<?xml version="1.0" encoding="utf-8"?> <!-- Generator: IcoMoon.io --> <!DOCTYPE svg PUBLIC "-//W3C//DTD SVG 1.1//EN" "http://www.w3.org/Graphics/SVG/1.1/DTD/svg11.dtd"> <svg fill="#333333" xmlns:xlink="http://www.w3.org/1999/xlink" xmlns="http://www.w3.org/2000/svg" width="16" height="16" viewBox="0 0 16 16"><g><path d="M 9,8.586 L 10.707,10.293 L 9.293,11.707 L 7,9.414 L 7,6 L 9,6 ZM 13,1 C 14.657,1 16,2.343 16,4 C 16,5.015 15.495,5.913 14.724,6.456 C 13.996,4.533 12.467,3.004 10.544,2.276 C 11.087,1.505 11.985,1 13,1 ZM 5.456,2.276 C 3.533,3.004 2.004,4.533 1.276,6.456 C 0.505,5.913 0,5.015 0,4 C 0,2.343 1.343,1 3,1 C 4.015,1 4.913,1.505 5.456,2.276 ZM 8,3C 4.686,3, 2,5.686, 2,9c0,1.448, 0.513,2.776, 1.367,3.813L 3,16l 1,0 l 1-1.803l-0-0 C 5.882,14.708, 6.907,15, 8,15c 1.093,0, 2.118-0.292, 3-0.803L 11,14.197L 12,16l 1,0 l-0.367-3.187 C 13.487,11.776, 14,10.448, 14,9C 14,5.686, 11.314,3, 8,3z M 8,13c-2.209,0-4-1.791-4-4s 1.791-4, 4-4 s 4,1.791, 4,4S 10.209,13, 8,13z"></path></g></svg>