<?xml version="1.0" encoding="utf-8"?> <!-- Generator: IcoMoon.io --> <!DOCTYPE svg PUBLIC "-//W3C//DTD SVG 1.1//EN" "http://www.w3.org/Graphics/SVG/1.1/DTD/svg11.dtd"> <svg fill="#333333" xmlns:xlink="http://www.w3.org/1999/xlink" xmlns="http://www.w3.org/2000/svg" width="16" height="16" viewBox="0 0 16 16"><g><path d="M 6.293,2.293l-5,5c-0.391,0.391-0.391,1.024,0,1.414l 5,5c 0.391,0.391, 1.024,0.391, 1.414,0 c 0.391-0.391, 0.391-1.024,0-1.414L 4.414,9L 14,9 c 0.552,0, 1-0.448, 1-1c0-0.552-0.448-1-1-1L 4.414,7 l 3.293-3.293 C 7.902,3.512, 8,3.256, 8,3s-0.098-0.512-0.293-0.707C 7.317,1.902, 6.683,1.902, 6.293,2.293z"></path></g></svg>