<?xml version="1.0" encoding="utf-8"?> <!-- Generator: IcoMoon.io --> <!DOCTYPE svg PUBLIC "-//W3C//DTD SVG 1.1//EN" "http://www.w3.org/Graphics/SVG/1.1/DTD/svg11.dtd"> <svg fill="#333333" xmlns:xlink="http://www.w3.org/1999/xlink" xmlns="http://www.w3.org/2000/svg" width="16" height="16" viewBox="0 0 16 16"><g><path d="M 9.707,13.707l 5-5c 0.391-0.391, 0.391-1.024,0-1.414l-5-5c-0.391-0.391-1.024-0.391-1.414,0 c-0.391,0.391-0.391,1.024,0,1.414L 11.586,7L 2,7 c-0.552,0-1,0.448-1,1s 0.448,1, 1,1l 9.586,0 L 8.293,12.293 C 8.098,12.488, 8,12.744, 8,13s 0.098,0.512, 0.293,0.707C 8.683,14.098, 9.317,14.098, 9.707,13.707z"></path></g></svg>