<?xml version="1.0" encoding="utf-8"?> <!-- Generator: IcoMoon.io --> <!DOCTYPE svg PUBLIC "-//W3C//DTD SVG 1.1//EN" "http://www.w3.org/Graphics/SVG/1.1/DTD/svg11.dtd"> <svg fill="#333333" xmlns:xlink="http://www.w3.org/1999/xlink" xmlns="http://www.w3.org/2000/svg" width="16" height="16" viewBox="0 0 16 16"><g><path d="M 13.707,6.293l-5-5c-0.391-0.391-1.024-0.391-1.414,0l-5,5c-0.391,0.391-0.391,1.024,0,1.414 c 0.391,0.391, 1.024,0.391, 1.414,0L 7,4.414L 7,14 c0,0.552, 0.448,1, 1,1c 0.552,0, 1-0.448, 1-1L 9,4.414 l 3.293,3.293 C 12.488,7.902, 12.744,8, 13,8s 0.512-0.098, 0.707-0.293C 14.098,7.317, 14.098,6.683, 13.707,6.293z"></path></g></svg>