<?xml version="1.0" encoding="utf-8"?> <!-- Generator: IcoMoon.io --> <!DOCTYPE svg PUBLIC "-//W3C//DTD SVG 1.1//EN" "http://www.w3.org/Graphics/SVG/1.1/DTD/svg11.dtd"> <svg fill="#333333" xmlns:xlink="http://www.w3.org/1999/xlink" xmlns="http://www.w3.org/2000/svg" width="16" height="16" viewBox="0 0 16 16"><g><path d="M 2.293,9.707l 5,5c 0.391,0.391, 1.024,0.391, 1.414,0l 5-5c 0.391-0.391, 0.391-1.024,0-1.414 c-0.391-0.391-1.024-0.391-1.414,0L 9,11.586L 9,2 c0-0.552-0.448-1-1-1s-1,0.448-1,1l0,9.586 L 3.707,8.293 C 3.512,8.098, 3.256,8, 3,8s-0.512,0.098-0.707,0.293C 1.902,8.683, 1.902,9.317, 2.293,9.707z"></path></g></svg>