<?xml version="1.0" encoding="utf-8"?> <!-- Generator: IcoMoon.io --> <!DOCTYPE svg PUBLIC "-//W3C//DTD SVG 1.1//EN" "http://www.w3.org/Graphics/SVG/1.1/DTD/svg11.dtd"> <svg fill="#333333" xmlns:xlink="http://www.w3.org/1999/xlink" xmlns="http://www.w3.org/2000/svg" width="16" height="16" viewBox="0 0 16 16"><g><path d="M 13,2c-0,0-0,0-0.001,0L 7,2 c-0.552,0-1,0.448-1,1s 0.448,1, 1,1l 3.586,0 L 2.293,12.293 c-0.391,0.391-0.391,1.024,0,1.414C 2.488,13.902, 2.744,14, 3,14s 0.512-0.098, 0.707-0.293L 12,5.414L 12,9 c0,0.552, 0.448,1, 1,1s 1-0.448, 1-1L 14,2 L 13,2 z"></path></g></svg>