<?xml version="1.0" encoding="utf-8"?> <!-- Generator: IcoMoon.io --> <!DOCTYPE svg PUBLIC "-//W3C//DTD SVG 1.1//EN" "http://www.w3.org/Graphics/SVG/1.1/DTD/svg11.dtd"> <svg fill="#333333" xmlns:xlink="http://www.w3.org/1999/xlink" xmlns="http://www.w3.org/2000/svg" width="16" height="16" viewBox="0 0 16 16"><g><path d="M 10.904,5.11l-1.015-1.014L 4.814,9.17c-0.841,0.841-0.841,2.204,0,3.044 c 0.841,0.841, 2.204,0.841, 3.045,0l 6.090-6.089c 1.402-1.401, 1.402-3.673,0-5.074 c-1.401-1.402-3.674-1.402-5.075,0L 2.479,7.444l 0.001,0.001c-0.005,0.005-0.010,0.009-0.014,0.013 c-1.955,1.955-1.955,5.123,0,7.077c 1.954,1.954, 5.123,1.954, 7.078,0c 0.004-0.004, 0.008-0.009, 0.013-0.014l 0.001,0.001 l 4.365-4.364l-1.015-1.014L 8.542,13.507l-0,0 c-0.005,0.004-0.009,0.009-0.013,0.013 c-1.392,1.392-3.656,1.392-5.048,0c-1.392-1.391-1.392-3.655,0-5.047c 0.005-0.005, 0.009-0.009, 0.014-0.013l-0.001-0.001 l 6.395-6.393c 0.839-0.84, 2.205-0.84, 3.045,0c 0.839,0.84, 0.839,2.205,0,3.044L 6.844,11.199 c-0.28,0.28-0.735,0.28-1.015,0c-0.28-0.279-0.28-0.735,0-1.014L 10.904,5.11z"></path></g></svg>