<?xml version="1.0" encoding="utf-8"?> <!-- Generator: IcoMoon.io --> <!DOCTYPE svg PUBLIC "-//W3C//DTD SVG 1.1//EN" "http://www.w3.org/Graphics/SVG/1.1/DTD/svg11.dtd"> <svg fill="#333333" xmlns:xlink="http://www.w3.org/1999/xlink" xmlns="http://www.w3.org/2000/svg" width="16.0234375" height="16" viewBox="0 0 16.0234375 16"><g><path d="M 16.023,12.5c0-4.5-4-3.5-4-7c0-0.29-0.028-0.538-0.079-0.749c-0.263-1.766-1.44-3.183-2.965-3.615 c 0.014-0.062, 0.021-0.126, 0.021-0.191C 9,0.425, 8.55,0, 8,0c-0.55,0-1,0.425-1,0.945c0,0.065, 0.007,0.129, 0.021,0.191 c-1.71,0.484-2.983,2.208-3.020,4.273c-0.001,0.030-0.001,0.060-0.001,0.091C 4,9,0,8,0,12.5 c0,1.191, 2.665,2.187, 6.234,2.439C 6.57,15.57, 7.235,16, 8,16s 1.43-0.43, 1.766-1.061 C 13.335,14.687, 16,13.691, 16,12.5c0-0.004-0-0.007-0-0.011L 16.023,12.5z M 12.91,13.345 c-0.847,0.226-1.846,0.389-2.918,0.479C 9.903,12.802, 9.045,12, 8,12s-1.903,0.802-1.992,1.824 c-1.072-0.090-2.071-0.253-2.918-0.479C 1.924,13.034, 1.366,12.686, 1.162,12.5c 0.204-0.186, 0.762-0.534, 1.928-0.845 C 4.446,11.293, 6.189,11.094, 8,11.094s 3.554,0.199, 4.91,0.561c 1.166,0.311, 1.724,0.659, 1.928,0.845 C 14.634,12.686, 14.076,13.034, 12.91,13.345z"></path></g></svg>