<?xml version="1.0" encoding="utf-8"?> <!-- Generator: IcoMoon.io --> <!DOCTYPE svg PUBLIC "-//W3C//DTD SVG 1.1//EN" "http://www.w3.org/Graphics/SVG/1.1/DTD/svg11.dtd"> <svg fill="#333333" xmlns:xlink="http://www.w3.org/1999/xlink" xmlns="http://www.w3.org/2000/svg" width="16" height="16" viewBox="0 0 16 16"><g><path d="M 1,0L 7,0L 7,1L 1,1zM 9,0L 15,0L 15,1L 9,1zM 14.875,5l-0.875,0 L 14,1 L 10,1 l0,4 L 6,5 L 6,1 L 2,1 l0,4 L 1.125,5 c-0.619,0-1.125,0.506-1.125,1.125l0,8.75 c0,0.619, 0.506,1.125, 1.125,1.125l 4.75,0 c 0.619,0, 1.125-0.506, 1.125-1.125L 7,9 l 2,0 l0,5.875 c0,0.619, 0.506,1.125, 1.125,1.125l 4.75,0 c 0.619,0, 1.125-0.506, 1.125-1.125L 16,6.125 C 16,5.506, 15.494,5, 14.875,5z M 5.438,15L 1.563,15 c-0.309,0-0.563-0.225-0.563-0.5 s 0.253-0.5, 0.563-0.5l 3.875,0 c 0.309,0, 0.563,0.225, 0.563,0.5S 5.747,15, 5.438,15z M 8.5,8l-1,0 c-0.275,0-0.5-0.225-0.5-0.5s 0.225-0.5, 0.5-0.5l 1,0 c 0.275,0, 0.5,0.225, 0.5,0.5 S 8.775,8, 8.5,8z M 14.438,15L 10.563,15 c-0.309,0-0.563-0.225-0.563-0.5s 0.253-0.5, 0.563-0.5l 3.875,0 c 0.309,0, 0.563,0.225, 0.563,0.5S 14.747,15, 14.438,15z"></path></g></svg>