<?xml version="1.0" encoding="utf-8"?> <!-- Generator: IcoMoon.io --> <!DOCTYPE svg PUBLIC "-//W3C//DTD SVG 1.1//EN" "http://www.w3.org/Graphics/SVG/1.1/DTD/svg11.dtd"> <svg fill="#333333" xmlns:xlink="http://www.w3.org/1999/xlink" xmlns="http://www.w3.org/2000/svg" width="16" height="16" viewBox="0 0 16 16"><g><path d="M 8,3 C 7.142,3 6.313,3.135 5.536,3.402 C 4.806,3.653 4.156,4.008 3.604,4.456 C 2.57,5.297 2,6.378 2,7.5 C 2,8.13 2.175,8.74 2.52,9.315 C 2.875,9.907 3.41,10.449 4.066,10.881 C 4.541,11.194 4.86,11.693 4.944,12.255 C 4.972,12.442 4.99,12.631 4.997,12.819 C 5.113,12.722 5.227,12.618 5.339,12.507 C 5.716,12.13 6.226,11.921 6.753,11.921 C 6.837,11.921 6.921,11.926 7.005,11.937 C 7.333,11.979 7.668,12 8,12 C 8.858,12 9.687,11.865 10.464,11.598 C 11.194,11.347 11.844,10.992 12.396,10.544 C 13.43,9.703 14,8.622 14,7.5 C 14,6.378 13.43,5.297 12.396,4.456 C 11.844,4.008 11.194,3.653 10.464,3.402 C 9.687,3.135 8.858,3 8,3 Z M 8,1 L 8,1 C 12.418,1 16,3.91 16,7.5 C 16,11.090 12.418,14 8,14 C 7.576,14 7.159,13.973 6.753,13.921 C 5.034,15.64 2.983,15.948 1,15.993 L 1,15.572 C 2.071,15.048 3,14.092 3,13 C 3,12.848 2.988,12.698 2.966,12.552 C 1.157,11.36 0,9.54 0,7.5 C 0,3.91 3.582,1 8,1 Z"></path></g></svg>