<?xml version="1.0" encoding="utf-8"?> <!-- Generator: IcoMoon.io --> <!DOCTYPE svg PUBLIC "-//W3C//DTD SVG 1.1//EN" "http://www.w3.org/Graphics/SVG/1.1/DTD/svg11.dtd"> <svg fill="#333333" xmlns:xlink="http://www.w3.org/1999/xlink" xmlns="http://www.w3.org/2000/svg" width="18" height="16" viewBox="0 0 18 16"><g><path d="M 7.5,2 C 6.708,2 5.944,2.124 5.228,2.369 C 4.558,2.599 3.961,2.923 3.455,3.332 C 2.517,4.092 2,5.064 2,6.069 C 2,6.632 2.157,7.178 2.467,7.693 C 2.791,8.229 3.278,8.721 3.878,9.114 C 4.353,9.426 4.674,9.926 4.758,10.488 C 4.773,10.582 4.784,10.676 4.793,10.77 C 4.835,10.731 4.877,10.69 4.919,10.648 C 5.296,10.273 5.805,10.065 6.331,10.065 C 6.414,10.065 6.498,10.071 6.582,10.081 C 6.885,10.12 7.193,10.139 7.5,10.139 C 8.292,10.139 9.056,10.015 9.772,9.77 C 10.442,9.54 11.039,9.216 11.545,8.807 C 12.483,8.047 13,7.075 13,6.069 C 13,5.064 12.483,4.092 11.545,3.332 C 11.039,2.923 10.442,2.599 9.772,2.369 C 9.056,2.124 8.292,2 7.5,2 Z M 7.5,0 L 7.5,0 C 11.642,0 15,2.717 15,6.069 C 15,9.422 11.642,12.139 7.5,12.139 C 7.102,12.139 6.712,12.114 6.331,12.065 C 4.72,13.67 2.859,13.958 1,14 L 1,13.607 C 2.004,13.117 2.813,12.225 2.813,11.205 C 2.813,11.063 2.801,10.923 2.781,10.787 C 1.085,9.674 0,7.974 0,6.069 C 0,2.717 3.358,0 7.5,0 ZM 15.563,13.604 C 15.563,14.479 16.13,15.243 17,15.663 L 17,16 C 15.389,15.964 13.91,15.717 12.513,14.342 C 12.183,14.383 11.845,14.405 11.5,14.405 C 10.008,14.405 8.634,14.002 7.537,13.326 C 9.798,13.318 11.932,12.594 13.55,11.284 C 14.366,10.624 15.010,9.85 15.463,8.982 C 15.944,8.062 16.188,7.082 16.188,6.069 C 16.188,5.906 16.18,5.744 16.168,5.582 C 17.302,6.519 18,7.795 18,9.202 C 18,10.835 17.060,12.292 15.59,13.246 C 15.572,13.363 15.563,13.482 15.563,13.604 Z"></path></g></svg>