<?xml version="1.0" encoding="utf-8"?> <!-- Generator: IcoMoon.io --> <!DOCTYPE svg PUBLIC "-//W3C//DTD SVG 1.1//EN" "http://www.w3.org/Graphics/SVG/1.1/DTD/svg11.dtd"> <svg fill="#333333" xmlns:xlink="http://www.w3.org/1999/xlink" xmlns="http://www.w3.org/2000/svg" width="18" height="16" viewBox="0 0 18 16"><g><path d="M 17,14.081 C 17,14.792 17.407,15.407 18,15.709 L 18,15.958 C 17.834,15.98 17.665,15.992 17.492,15.992 C 16.43,15.992 15.471,15.547 14.793,14.832 C 14.384,14.941 13.95,15 13.5,15 C 11.015,15 9,13.209 9,11 C 9,8.791 11.015,7 13.5,7 C 15.985,7 18,8.791 18,11 C 18,11.865 17.691,12.665 17.166,13.32 C 17.060,13.551 17,13.809 17,14.081 ZM 3.604,3.456 C 2.57,4.297 2,5.378 2,6.5 C 2,7.13 2.175,7.74 2.52,8.315 C 2.875,8.907 3.41,9.449 4.066,9.881 C 4.541,10.194 4.86,10.693 4.944,11.255 C 4.972,11.442 4.99,11.631 4.997,11.819 C 5.113,11.722 5.227,11.618 5.339,11.507 C 5.716,11.13 6.226,10.921 6.753,10.921 C 6.837,10.921 6.921,10.926 7.005,10.937 C 7.332,10.979 7.667,11 7.999,11 L 7.999,13 C 7.575,13 7.159,12.973 6.753,12.921 C 5.034,14.64 2.983,14.948 1,14.993 L 1,14.572 C 2.071,14.048 3,13.092 3,12 C 3,11.848 2.988,11.698 2.966,11.552 C 1.157,10.36 0,8.54 0,6.5 C 0,2.91 3.582,0 8,0 C 12.351,0 15.89,2.822 15.997,6.336 C 15.355,6.050 14.656,5.877 13.931,5.827 C 13.751,4.951 13.221,4.127 12.396,3.456 C 11.844,3.008 11.194,2.653 10.464,2.402 C 9.687,2.135 8.858,2 8,2 C 7.142,2 6.313,2.135 5.536,2.402 C 4.806,2.653 4.156,3.008 3.604,3.456 Z"></path></g></svg>