<?xml version="1.0" encoding="utf-8"?> <!-- Generator: IcoMoon.io --> <!DOCTYPE svg PUBLIC "-//W3C//DTD SVG 1.1//EN" "http://www.w3.org/Graphics/SVG/1.1/DTD/svg11.dtd"> <svg fill="#333333" xmlns:xlink="http://www.w3.org/1999/xlink" xmlns="http://www.w3.org/2000/svg" width="16" height="16" viewBox="0 0 16 16"><g><path d="M 16,9l0-1 l-3.020,0 c-0.092-1.136-0.497-2.172-1.12-3.004l 2.53,0 l 1.095-4.379l-0.97-0.243l-0.905,3.621l-2.729,0 c-0.014-0.011-0.028-0.021-0.042-0.032c 0.105-0.305, 0.162-0.632, 0.162-0.972C 11,1.34, 9.657,0, 8,0s-3,1.34-3,2.992 c0,0.34, 0.057,0.667, 0.162,0.972c-0.014,0.011-0.028,0.021-0.042,0.032l-2.729,0 l-0.905-3.621l-0.97,0.243l 1.095,4.379l 2.53,0 C 3.517,5.828, 3.112,6.864, 3.020,8L0,8 l0,1 l 3.021,0 c 0.059,0.714, 0.242,1.388, 0.526,1.996L 1.61,10.996 l-1.095,4.379 l 0.97,0.243l 0.905-3.621l 1.756,0 C 5.063,13.215, 6.449,13.992, 8,13.992s 2.937-0.777, 3.854-1.996l 1.756,0 l 0.905,3.621 l 0.97-0.243l-1.095-4.379l-1.937,0 c 0.283-0.608, 0.466-1.283, 0.526-1.996L 16,9 z"></path></g></svg>