<?xml version="1.0" encoding="utf-8"?> <!-- Generator: IcoMoon.io --> <!DOCTYPE svg PUBLIC "-//W3C//DTD SVG 1.1//EN" "http://www.w3.org/Graphics/SVG/1.1/DTD/svg11.dtd"> <svg fill="#333333" xmlns:xlink="http://www.w3.org/1999/xlink" xmlns="http://www.w3.org/2000/svg" width="16" height="16" viewBox="0 0 16 16"><g><path d="M 16,6.707c0-3.139-0.919-5.687-2.054-5.707c 0.005-0, 0.009-0, 0.014-0l-1.296,0 c0,0-3.044,2.287-7.425,3.184c-0.134,0.708-0.219,1.551-0.219,2.523c0,0.972, 0.085,1.816, 0.219,2.523 c 4.382,0.897, 7.425,3.184, 7.425,3.184l 1.296,0 c-0.005,0-0.009-0-0.014-0.001C 15.081,12.394, 16,9.847, 16,6.707 z M 13.513,11.551c-0.147,0-0.305-0.152-0.387-0.243c-0.197-0.22-0.387-0.562-0.55-0.99 c-0.363-0.957-0.564-2.239-0.564-3.611c0-1.372, 0.2-2.655, 0.564-3.611c 0.162-0.428, 0.353-0.77, 0.55-0.99 c 0.081-0.091, 0.24-0.243, 0.387-0.243c 0.147,0, 0.305,0.152, 0.387,0.243c 0.197,0.22, 0.387,0.562, 0.55,0.99 c 0.363,0.957, 0.564,2.239, 0.564,3.611c0,1.372-0.2,2.655-0.564,3.611c-0.162,0.428-0.353,0.77-0.55,0.99 C 13.818,11.399, 13.659,11.551, 13.513,11.551z M 3.935,6.707c0-0.812, 0.060-1.6, 0.173-2.33 c-0.74,0.102-1.39,0.161-2.193,0.161c-1.048,0-1.048,0-1.048,0L0,6.018l0,1.378 l 0.867,1.479c0,0,0,0, 1.048,0 c 0.803,0, 1.453,0.059, 2.193,0.161C 3.994,8.308, 3.935,7.519, 3.935,6.707z M 5.752,10.034l-2-0.383 l 1.279,5.024c 0.066,0.26, 0.324,0.391, 0.573,0.291l 1.852-0.741c 0.249-0.1, 0.349-0.374, 0.222-0.611L 5.752,10.034zM 13.513,8.574c-0.057,0-0.118-0.059-0.149-0.094c-0.076-0.085-0.149-0.217-0.212-0.381 c-0.14-0.369-0.217-0.863-0.217-1.392c0-0.529, 0.077-1.023, 0.217-1.392c 0.063-0.165, 0.136-0.297, 0.212-0.381 c 0.031-0.035, 0.092-0.094, 0.149-0.094c 0.057,0, 0.118,0.059, 0.149,0.094c 0.076,0.085, 0.149,0.217, 0.212,0.381 c 0.14,0.369, 0.217,0.863, 0.217,1.392c0,0.529-0.077,1.023-0.217,1.392c-0.063,0.165-0.136,0.297-0.212,0.381 C 13.631,8.515, 13.569,8.574, 13.513,8.574z"></path></g></svg>