<?xml version="1.0" encoding="utf-8"?> <!-- Generator: IcoMoon.io --> <!DOCTYPE svg PUBLIC "-//W3C//DTD SVG 1.1//EN" "http://www.w3.org/Graphics/SVG/1.1/DTD/svg11.dtd"> <svg fill="#333333" xmlns:xlink="http://www.w3.org/1999/xlink" xmlns="http://www.w3.org/2000/svg" width="16" height="16" viewBox="0 0 16 16"><g><path d="M 11.39,8C 13.543,6.635, 15,4.012, 15,1c0-0.339-0.019-0.672-0.054-1L 1.054,0 C 1.019,0.328, 1,0.661, 1,1 c0,3.012, 1.457,5.635, 3.609,7C 2.457,9.365, 1,11.988, 1,15c0,0.339, 0.019,0.672, 0.054,1l 13.891,0 c 0.036-0.328, 0.054-0.661, 0.054-1C 15,11.988, 13.543,9.365, 11.39,8z M 2.5,15c0-2.921, 1.253-5.397, 3.5-6.214 l0-1.572 l0,0 C 3.753,6.397, 2.5,3.921, 2.5,1l0,0 l 11,0 l0,0 c0,2.921-1.253,5.397-3.5,6.214l0,1.572 C 12.247,9.603, 13.5,12.079, 13.5,15L 2.5,15 zM 9.682,10.462c-1.12-0.635-1.181-1.459-1.182-1.959L 8.5,7.5 c0-0.5, 0.059-1.327, 1.183-1.964 c 0.602-0.349, 1.122-0.88, 1.516-1.536L 4.8,4 c 0.395,0.657, 0.916,1.188, 1.518,1.538 c 1.12,0.635, 1.181,1.459, 1.182,1.959L 7.5,8.5 c0,0.5-0.059,1.327-1.183,1.964c-1.135,0.659-1.98,1.964-2.236,3.537 l 7.839,0 C 11.664,12.426, 10.817,11.121, 9.682,10.462z"></path></g></svg>