<?xml version="1.0" encoding="utf-8"?> <!-- Generator: IcoMoon.io --> <!DOCTYPE svg PUBLIC "-//W3C//DTD SVG 1.1//EN" "http://www.w3.org/Graphics/SVG/1.1/DTD/svg11.dtd"> <svg fill="#333333" xmlns:xlink="http://www.w3.org/1999/xlink" xmlns="http://www.w3.org/2000/svg" width="16" height="16" viewBox="0 0 16 16"><g><path d="M 14,2l-1.5,0 l0,0.5 c0,0.551-0.449,1-1,1s-1-0.449-1-1L 10.5,2 L 5.5,2 l0,0.5 c0,0.551-0.449,1-1,1s-1-0.449-1-1L 3.5,2 L 2,2 c-0.55,0-1,0.45-1,1l0,11 c0,0.55, 0.45,1, 1,1l 12,0 c 0.55,0, 1-0.45, 1-1L 15,3 C 15,2.45, 14.55,2, 14,2z M 14,13.998 c-0.001,0.001-0.001,0.001-0.002,0.002L 2.002,14 c-0.001-0.001-0.001-0.001-0.002-0.002L 2,5 l 12,0 L 14,13.998 zM 4.5,3c 0.276,0, 0.5-0.224, 0.5-0.5L 5,0.5 c0-0.276-0.224-0.5-0.5-0.5s-0.5,0.224-0.5,0.5l0,2 C 4,2.776, 4.224,3, 4.5,3zM 11.5,3c 0.276,0, 0.5-0.224, 0.5-0.5L 12,0.5 c0-0.276-0.224-0.5-0.5-0.5s-0.5,0.224-0.5,0.5l0,2 C 11,2.776, 11.224,3, 11.5,3zM 9,6L 4,6L 4,7L 8,7L 8,9L 4,9L 4,10L 8,10L 8,12L 4,12L 4,13L 9,13 zM 11,13L 12,13L 12,6L 10,6L 10,7L 11,7 zM 13.625,15.375L 2.375,15.375 c-0.55,0-1-0.325-1-0.875l0,0.5 c0,0.55, 0.45,1, 1,1l 11.25,0 c 0.55,0, 1-0.45, 1-1l0-0.5 C 14.625,15.050, 14.175,15.375, 13.625,15.375z"></path></g></svg>