<?xml version="1.0" encoding="utf-8"?> <!-- Generator: IcoMoon.io --> <!DOCTYPE svg PUBLIC "-//W3C//DTD SVG 1.1//EN" "http://www.w3.org/Graphics/SVG/1.1/DTD/svg11.dtd"> <svg fill="#333333" xmlns:xlink="http://www.w3.org/1999/xlink" xmlns="http://www.w3.org/2000/svg" width="16" height="16" viewBox="0 0 16 16"><g><path d="M 5,6L 7,6L 7,8L 5,8zM 8,6L 10,6L 10,8L 8,8zM 11,6L 13,6L 13,8L 11,8zM 2,12L 4,12L 4,14L 2,14zM 5,12L 7,12L 7,14L 5,14zM 8,12L 10,12L 10,14L 8,14zM 5,9L 7,9L 7,11L 5,11zM 8,9L 10,9L 10,11L 8,11zM 11,9L 13,9L 13,11L 11,11zM 2,9L 4,9L 4,11L 2,11zM 13,0l0,1 l-2,0 L 11,0 L 4,0 l0,1 L 2,1 L 2,0 L0,0 l0,16 l 15,0 L 15,0 L 13,0 z M 14,15L 1,15 L 1,4 l 13,0 L 14,15 z"></path></g></svg>