<?xml version="1.0" encoding="utf-8"?> <!-- Generator: IcoMoon.io --> <!DOCTYPE svg PUBLIC "-//W3C//DTD SVG 1.1//EN" "http://www.w3.org/Graphics/SVG/1.1/DTD/svg11.dtd"> <svg fill="#333333" xmlns:xlink="http://www.w3.org/1999/xlink" xmlns="http://www.w3.org/2000/svg" width="16" height="16" viewBox="0 0 16 16"><g><path d="M 4.75,9.5c0,1.795, 1.455,3.25, 3.25,3.25s 3.25-1.455, 3.25-3.25s-1.455-3.25-3.25-3.25S 4.75,7.705, 4.75,9.5z M 15,4L 11.5,4 c-0.25-1-0.5-2-1.5-2L 6,2 c-1,0-1.25,1-1.5,2L 1,4 c-0.55,0-1,0.45-1,1l0,9 c0,0.55, 0.45,1, 1,1l 14,0 c 0.55,0, 1-0.45, 1-1L 16,5 C 16,4.45, 15.55,4, 15,4z M 8,13.938c-2.451,0-4.438-1.987-4.438-4.438c0-2.451, 1.987-4.438, 4.438-4.438c 2.451,0, 4.438,1.987, 4.438,4.438 C 12.438,11.951, 10.451,13.938, 8,13.938z M 15,7l-2,0 l0-1 l 2,0 L 15,7 z"></path></g></svg>