<?xml version="1.0" encoding="utf-8"?> <!-- Generator: IcoMoon.io --> <!DOCTYPE svg PUBLIC "-//W3C//DTD SVG 1.1//EN" "http://www.w3.org/Graphics/SVG/1.1/DTD/svg11.dtd"> <svg fill="#333333" xmlns:xlink="http://www.w3.org/1999/xlink" xmlns="http://www.w3.org/2000/svg" width="16" height="16" viewBox="0 0 16 16"><g><path d="M 15.854,12.854c-0-0-0-0-0-0L 11,8l 4.854-4.854c 0-0, 0-0, 0-0 c 0.052-0.052, 0.090-0.113, 0.114-0.178c 0.066-0.178, 0.029-0.386-0.114-0.529L 13.561,0.146c-0.143-0.143-0.351-0.181-0.529-0.114 c-0.065,0.024-0.126,0.062-0.178,0.114c0,0-0,0-0,0L 8,5L 3.146,0.146 c-0-0-0-0-0-0c-0.052-0.052-0.113-0.090-0.178-0.114c-0.178-0.066-0.386-0.029-0.529,0.114L 0.146,2.439 c-0.143,0.143-0.181,0.351-0.114,0.529c 0.024,0.065, 0.062,0.126, 0.114,0.178c 0,0, 0,0, 0,0L 5,8 L 0.146,12.854c-0,0-0,0-0,0c-0.052,0.052-0.090,0.113-0.114,0.178c-0.066,0.178-0.029,0.386, 0.114,0.529 l 2.293,2.293c 0.143,0.143, 0.351,0.181, 0.529,0.114c 0.065-0.024, 0.126-0.062, 0.178-0.114c 0-0, 0-0, 0-0 l 4.854-4.854l 4.854,4.854c 0,0, 0,0, 0,0c 0.052,0.052, 0.113,0.090, 0.178,0.114 c 0.178,0.066, 0.386,0.029, 0.529-0.114l 2.293-2.293c 0.143-0.143, 0.181-0.351, 0.114-0.529 C 15.944,12.967, 15.906,12.906, 15.854,12.854z"></path></g></svg>