<?xml version="1.0" encoding="utf-8"?> <!-- Generator: IcoMoon.io --> <!DOCTYPE svg PUBLIC "-//W3C//DTD SVG 1.1//EN" "http://www.w3.org/Graphics/SVG/1.1/DTD/svg11.dtd"> <svg fill="#333333" xmlns:xlink="http://www.w3.org/1999/xlink" xmlns="http://www.w3.org/2000/svg" width="16" height="16" viewBox="0 0 16 16"><g><path d="M 13.922,5.626C 13.871,3.615, 12.227,2, 10.205,2c-1.184,0-2.239,0.555-2.92,1.418 c-0.382-0.494-0.98-0.812-1.652-0.812c-1.153,0-2.088,0.936-2.088,2.089c0,0.101, 0.007,0.199, 0.021,0.296 c-0.175-0.032-0.356-0.049-0.54-0.049C 1.355,4.942,0,6.298,0,7.971C0,9.644, 1.355,11, 3.027,11l 1.559,0 L 8,14.414 L 11.414,11l 1.867,0 l0-0 C 14.783,10.997, 16,9.778, 16,8.274C 16,6.991, 15.114,5.916, 13.922,5.626z M 8,13l-3-3 l 2,0 l0-3 l 2,0 l0,3 l 2,0 L 8,13z"></path></g></svg>