<?xml version="1.0" encoding="utf-8"?> <!-- Generator: IcoMoon.io --> <!DOCTYPE svg PUBLIC "-//W3C//DTD SVG 1.1//EN" "http://www.w3.org/Graphics/SVG/1.1/DTD/svg11.dtd"> <svg fill="#333333" xmlns:xlink="http://www.w3.org/1999/xlink" xmlns="http://www.w3.org/2000/svg" width="16" height="16" viewBox="0 0 16 16"><g><path d="M 16,10.274c0-1.283-0.886-2.358-2.078-2.648C 13.871,5.615, 12.227,4, 10.205,4 c-1.184,0-2.239,0.555-2.92,1.418c-0.382-0.494-0.98-0.812-1.652-0.812c-1.153,0-2.088,0.936-2.088,2.089 c0,0.101, 0.007,0.199, 0.021,0.296c-0.175-0.032-0.356-0.049-0.54-0.049C 1.355,6.942,0,8.298,0,9.971 C0,11.644, 1.355,13, 3.027,13l 10.254,0 l0-0 C 14.783,12.997, 16,11.778, 16,10.274z"></path></g></svg>