<?xml version="1.0" encoding="utf-8"?> <!-- Generator: IcoMoon.io --> <!DOCTYPE svg PUBLIC "-//W3C//DTD SVG 1.1//EN" "http://www.w3.org/Graphics/SVG/1.1/DTD/svg11.dtd"> <svg fill="#333333" xmlns:xlink="http://www.w3.org/1999/xlink" xmlns="http://www.w3.org/2000/svg" width="16" height="16" viewBox="0 0 16 16"><g><path d="M 13.942,6.039C 13.98,5.865, 14,5.685, 14,5.5c0-1.381-1.119-2.5-2.5-2.5c-0.222,0-0.438,0.029-0.643,0.084 C 10.47,1.875, 9.337,1, 8,1c-1.365,0-2.516,0.911-2.88,2.159C 4.765,3.055, 4.389,3, 4,3C 1.791,3,0,4.791,0,7 c0,2.209, 1.791,4, 4,4l 2,0 l0,3 l 4,0 l0-3 l 3.5,0 c 1.381,0, 2.5-1.119, 2.5-2.5C 16,7.27, 15.112,6.247, 13.942,6.039z M 9,10l0,3 l-2,0 l0-3 l-2.5,0 l 3.5-3.5l 3.5,3.5L 9,10 z"></path></g></svg>