<?xml version="1.0" encoding="utf-8"?> <!-- Generator: IcoMoon.io --> <!DOCTYPE svg PUBLIC "-//W3C//DTD SVG 1.1//EN" "http://www.w3.org/Graphics/SVG/1.1/DTD/svg11.dtd"> <svg fill="#333333" xmlns:xlink="http://www.w3.org/1999/xlink" xmlns="http://www.w3.org/2000/svg" width="16" height="16" viewBox="0 0 16 16"><g><path d="M 14.59,9.535c-0.839-1.454-0.335-3.317, 1.127-4.164l-1.572-2.723c-0.449,0.263-0.972,0.414-1.529,0.414 c-1.68,0-3.042-1.371-3.042-3.062L 6.43-0 c 0.004,0.522-0.126,1.051-0.406,1.535 c-0.839,1.454-2.706,1.948-4.17,1.106L 0.282,5.364c 0.453,0.257, 0.845,0.634, 1.123,1.117 c 0.838,1.452, 0.336,3.311-1.12,4.16l 1.572,2.723c 0.448-0.261, 0.967-0.41, 1.522-0.41 c 1.675,0, 3.034,1.362, 3.042,3.046l 3.145,0 c-0.001-0.517, 0.129-1.040, 0.406-1.519 c 0.838-1.452, 2.7-1.947, 4.163-1.11l 1.572-2.723C 15.257,10.391, 14.868,10.015, 14.59,9.535z M 8,11.24 c-1.789,0-3.24-1.45-3.24-3.24c0-1.789, 1.45-3.24, 3.24-3.24c 1.789,0, 3.24,1.45, 3.24,3.24 C 11.24,9.789, 9.789,11.24, 8,11.24z"></path></g></svg>