<?xml version="1.0" encoding="utf-8"?> <!-- Generator: IcoMoon.io --> <!DOCTYPE svg PUBLIC "-//W3C//DTD SVG 1.1//EN" "http://www.w3.org/Graphics/SVG/1.1/DTD/svg11.dtd"> <svg fill="#333333" xmlns:xlink="http://www.w3.org/1999/xlink" xmlns="http://www.w3.org/2000/svg" width="16" height="16" viewBox="0 0 16 16"><g><path d="M 7.5,1C 3.358,1,0,4.358,0,8.5c0,4.142, 3.358,7.5, 7.5,7.5c 4.142,0, 7.5-3.358, 7.5-7.5 C 15,4.358, 11.642,1, 7.5,1z M 7.5,14.5c-3.314,0-6-2.686-6-6c0-3.314, 2.686-6, 6-6 c 3.314,0, 6,2.686, 6,6C 13.5,11.814, 10.814,14.5, 7.5,14.5zM 8,8l0-2 l 2,0 l0-1 l-2,0 l0-1 l-1,0 l0,1 l-2,0 l0,4 l 2,0 l0,2 l-2,0 l0,1 l 2,0 l0,1 l 1,0 l0-1 l 2,0 l 0,0 L 10,8L 8,8 z M 7,8l-1,0 l0-2 l 1,0 L 7,8 z M 9,11L 8,11 l0-2 l 1,0 L 9,11 z"></path></g></svg>