<?xml version="1.0" encoding="utf-8"?> <!-- Generator: IcoMoon.io --> <!DOCTYPE svg PUBLIC "-//W3C//DTD SVG 1.1//EN" "http://www.w3.org/Graphics/SVG/1.1/DTD/svg11.dtd"> <svg fill="#333333" xmlns:xlink="http://www.w3.org/1999/xlink" xmlns="http://www.w3.org/2000/svg" width="16" height="16" viewBox="0 0 16 16"><g><path d="M 8,0C 3.582,0,0,3.582,0,8s 3.582,8, 8,8s 8-3.582, 8-8S 12.418,0, 8,0z M 8,14.5 c-3.59,0-6.5-2.91-6.5-6.5S 4.41,1.5, 8,1.5s 6.5,2.91, 6.5,6.5S 11.59,14.5, 8,14.5zM 9.5,6.5l-4.5-2.5l-1,0 l0,1 l 2.5,4.5l 4.5,2.5l 1,0 l0-1 L 9.5,6.5z M 8,9c-0.552,0-1-0.448-1-1c0-0.552, 0.448-1, 1-1 c 0.552,0, 1,0.448, 1,1C 9,8.552, 8.552,9, 8,9z"></path></g></svg>