<?xml version="1.0" encoding="utf-8"?> <!-- Generator: IcoMoon.io --> <!DOCTYPE svg PUBLIC "-//W3C//DTD SVG 1.1//EN" "http://www.w3.org/Graphics/SVG/1.1/DTD/svg11.dtd"> <svg fill="#333333" xmlns:xlink="http://www.w3.org/1999/xlink" xmlns="http://www.w3.org/2000/svg" width="16" height="16" viewBox="0 0 16 16"><g><path d="M 13.334,0L 2.667,0 C 1.2,0,0,1.2,0,2.667l0,10.666 C0,14.801, 1.2,16, 2.667,16l 10.667,0 C 14.801,16, 16,14.801, 16,13.333L 16,2.667 C 16,1.2, 14.801,0, 13.334,0z M 15,13.333c0,0.443-0.174,0.861-0.49,1.177 C 14.194,14.826, 13.776,15, 13.334,15L 8,15 L 8,8 L 1,8 L 1,2.667 c0-0.442, 0.174-0.86, 0.491-1.177C 1.807,1.174, 2.225,1, 2.667,1 L 8,1 l0,7 l 7,0 L 15,13.333 z"></path></g></svg>