<?xml version="1.0" encoding="utf-8"?> <!-- Generator: IcoMoon.io --> <!DOCTYPE svg PUBLIC "-//W3C//DTD SVG 1.1//EN" "http://www.w3.org/Graphics/SVG/1.1/DTD/svg11.dtd"> <svg fill="#333333" xmlns:xlink="http://www.w3.org/1999/xlink" xmlns="http://www.w3.org/2000/svg" width="16" height="16" viewBox="0 0 16 16"><g><path d="M 13.5,3L 5.5,3 c-1.375,0-2.5,1.125-2.5,2.5l0,8 c0,1.375, 1.125,2.5, 2.5,2.5l 8,0 c 1.375,0, 2.5-1.125, 2.5-2.5L 16,5.5 C 16,4.125, 14.875,3, 13.5,3z M 6.5,14 c-0.828,0-1.5-0.672-1.5-1.5s 0.672-1.5, 1.5-1.5s 1.5,0.672, 1.5,1.5S 7.328,14, 6.5,14z M 6.5,8c-0.828,0-1.5-0.672-1.5-1.5s 0.672-1.5, 1.5-1.5 s 1.5,0.672, 1.5,1.5S 7.328,8, 6.5,8z M 9.5,11c-0.828,0-1.5-0.672-1.5-1.5s 0.672-1.5, 1.5-1.5s 1.5,0.672, 1.5,1.5S 10.328,11, 9.5,11z M 12.5,14 c-0.828,0-1.5-0.672-1.5-1.5s 0.672-1.5, 1.5-1.5s 1.5,0.672, 1.5,1.5S 13.328,14, 12.5,14z M 12.5,8c-0.828,0-1.5-0.672-1.5-1.5s 0.672-1.5, 1.5-1.5 s 1.5,0.672, 1.5,1.5S 13.328,8, 12.5,8z M 12.949,2C 12.716,0.862, 11.704,0, 10.5,0L 2.5,0 C 1.125,0,0,1.125,0,2.5l0,8 c0,1.204, 0.862,2.216, 2,2.449L 2,3 c0-0.55, 0.45-1, 1-1L 12.949,2 z"></path></g></svg>