<?xml version="1.0" encoding="utf-8"?> <!-- Generator: IcoMoon.io --> <!DOCTYPE svg PUBLIC "-//W3C//DTD SVG 1.1//EN" "http://www.w3.org/Graphics/SVG/1.1/DTD/svg11.dtd"> <svg fill="#333333" xmlns:xlink="http://www.w3.org/1999/xlink" xmlns="http://www.w3.org/2000/svg" width="16" height="16" viewBox="0 0 16 16"><g><path d="M 14.5,2L 1.5,2 C 0.675,2,0,2.675,0,3.5l0,10 c0,0.825, 0.675,1.5, 1.5,1.5l 13,0 c 0.825,0, 1.5-0.675, 1.5-1.5L 16,3.5 C 16,2.675, 15.325,2, 14.5,2z M 6.23,8.6L 2,11.895L 2,4.057 L 6.23,8.6z M 2.756,4L 13.244,4 L 8,7.938L 2.756,4z M 6.395,8.777L 8,10.5l 1.605-1.723 L 12.895,13L 3.105,13 L 6.395,8.777z M 9.77,8.6L 14,4.057l0,7.838 L 9.77,8.6z"></path></g></svg>