<?xml version="1.0" encoding="utf-8"?> <!-- Generator: IcoMoon.io --> <!DOCTYPE svg PUBLIC "-//W3C//DTD SVG 1.1//EN" "http://www.w3.org/Graphics/SVG/1.1/DTD/svg11.dtd"> <svg fill="#333333" xmlns:xlink="http://www.w3.org/1999/xlink" xmlns="http://www.w3.org/2000/svg" width="16" height="16" viewBox="0 0 16 16"><g><path d="M 8,3C 4.511,3, 1.486,5.032,0,8c 1.486,2.968, 4.511,5, 8,5c 3.489,0, 6.514-2.032, 8-5 C 14.514,5.032, 11.489,3, 8,3z M 11.945,5.652c 0.94,0.6, 1.737,1.403, 2.335,2.348 c-0.598,0.946-1.395,1.749-2.335,2.348C 10.763,11.102, 9.399,11.5, 8,11.5c-1.399,0-2.763-0.398-3.945-1.152 C 3.115,9.749, 2.319,8.946, 1.721,8c 0.598-0.946, 1.395-1.749, 2.335-2.348c 0.061-0.039, 0.123-0.077, 0.185-0.114 C 4.085,5.965, 4,6.425, 4,6.906c0,2.209, 1.791,4, 4,4s 4-1.791, 4-4c0-0.481-0.085-0.942-0.241-1.369 C 11.821,5.575, 11.883,5.613, 11.945,5.652z M 8,6.406c0,0.828-0.672,1.5-1.5,1.5s-1.5-0.672-1.5-1.5s 0.672-1.5, 1.5-1.5 S 8,5.578, 8,6.406z"></path></g></svg>