<?xml version="1.0" encoding="utf-8"?> <!-- Generator: IcoMoon.io --> <!DOCTYPE svg PUBLIC "-//W3C//DTD SVG 1.1//EN" "http://www.w3.org/Graphics/SVG/1.1/DTD/svg11.dtd"> <svg fill="#333333" xmlns:xlink="http://www.w3.org/1999/xlink" xmlns="http://www.w3.org/2000/svg" width="16" height="16" viewBox="0 0 16 16"><g><path d="M 13.334,0L 2.667,0 C 1.2,0,0,1.2,0,2.667l0,10.666 C0,14.801, 1.2,16, 2.667,16l 10.667-0 c 1.467,0, 2.667-1.199, 2.667-2.667L 16,2.667 C 16,1.2, 14.8,0, 13.334,0z M 13.603,8L 11,8 l0,7 l-3,0 L 8,8 l-1.446,0 l0-2.29 L 8,5.71 l0-1.487 C 8,2.202, 8.872,1, 11.248,1l 2.738,0 l0,2.478 l-2.236,0 c-0.664-0.001-0.746,0.346-0.746,0.992L 11,5.71l 3,0 L 13.603,8z"></path></g></svg>