<?xml version="1.0" encoding="utf-8"?> <!-- Generator: IcoMoon.io --> <!DOCTYPE svg PUBLIC "-//W3C//DTD SVG 1.1//EN" "http://www.w3.org/Graphics/SVG/1.1/DTD/svg11.dtd"> <svg fill="#333333" xmlns:xlink="http://www.w3.org/1999/xlink" xmlns="http://www.w3.org/2000/svg" width="16" height="16" viewBox="0 0 16 16"><g><path d="M 13.333,0L 2.667,0 C 1.2,0,0,1.2,0,2.667l0,10.666 C0,14.801, 1.2,16, 2.667,16L 13.333,16 c 1.467,0, 2.667-1.199, 2.667-2.667L 16,2.667 C 16,1.2, 14.8,0, 13.333,0z M 4.359,12.988C 3.609,12.988, 3,12.384, 3,11.635 c0-0.745, 0.609-1.356, 1.359-1.356c 0.752,0, 1.36,0.611, 1.36,1.356C 5.719,12.384, 5.111,12.988, 4.359,12.988z M 7.773,13c0-1.278-0.497-2.482-1.398-3.382c-0.902-0.902-2.1-1.4-3.373-1.4L 3.002,6.262 c 3.713,0, 6.736,3.023, 6.736,6.738L 7.773,13L 7.773,13z M 11.244,13 c0-4.548-3.698-8.249-8.24-8.249L 3.004,2.794 c 5.625,0, 10.202,4.58, 10.202,10.206L 11.244,13L 11.244,13z"></path></g></svg>