<?xml version="1.0" encoding="utf-8"?> <!-- Generator: IcoMoon.io --> <!DOCTYPE svg PUBLIC "-//W3C//DTD SVG 1.1//EN" "http://www.w3.org/Graphics/SVG/1.1/DTD/svg11.dtd"> <svg fill="#333333" xmlns:xlink="http://www.w3.org/1999/xlink" xmlns="http://www.w3.org/2000/svg" width="16" height="16" viewBox="0 0 16 16"><g><path d="M 2.13,11.733c-1.175,0-2.13,0.958-2.13,2.126c0,1.174, 0.955,2.122, 2.13,2.122 c 1.179,0, 2.133-0.948, 2.133-2.122C 4.262,12.692, 3.309,11.733, 2.13,11.733zM 0.002,5.436l0,3.067 c 1.997,0, 3.874,0.781, 5.288,2.196c 1.412,1.411, 2.192,3.297, 2.192,5.302l 3.080,0 C 10.563,10.175, 5.824,5.436, 0.002,5.436zM 0.006,0l0,3.068 c 7.122,0, 12.918,5.802, 12.918,12.932L 16,16 C 16,7.18, 8.824,0, 0.006,0z"></path></g></svg>