<?xml version="1.0" encoding="utf-8"?> <!-- Generator: IcoMoon.io --> <!DOCTYPE svg PUBLIC "-//W3C//DTD SVG 1.1//EN" "http://www.w3.org/Graphics/SVG/1.1/DTD/svg11.dtd"> <svg fill="#333333" xmlns:xlink="http://www.w3.org/1999/xlink" xmlns="http://www.w3.org/2000/svg" width="16" height="16" viewBox="0 0 16 16"><g><path d="M 10.785,7.37c-0.948-0.448-2.156-0.538-3.044,0.095c 1.080-0.103, 2.265,0.076, 3.049,0.893 c 0.75-0.861, 1.939-1.022, 3.015-0.933C 12.906,6.828, 11.722,6.908, 10.785,7.37zM 10.401,9.465c-1.068-0.025-2.101,0.362-2.986,0.939c-1.675-0.712-3.793-0.58-5.219,0.609 c 0.411-0.015, 0.813-0.116, 1.22-0.169c 1.487-0.148, 3.072,0.221, 4.196,1.247c 0.465-0.68, 1.119-1.223, 1.87-1.561 c 0.986-0.477, 2.096-0.526, 3.169-0.539C 11.998,9.543, 11.171,9.46, 10.401,9.465zM 14.116,3.116l-2.232-2.232C 11.398,0.398, 10.438,0, 9.75,0L 2.25,0 C 1.563,0, 1,0.563, 1,1.25l0,13.5 c0,0.688, 0.563,1.25, 1.25,1.25l 11.5,0 c 0.688,0, 1.25-0.563, 1.25-1.25L 15,5.25 C 15,4.563, 14.602,3.602, 14.116,3.116z M 13.409,3.823c 0.049,0.049, 0.098,0.109, 0.145,0.177L 11,4 L 11,1.446 c 0.068,0.047, 0.128,0.096, 0.177,0.145L 13.409,3.823z M 14,14.75c0,0.136-0.115,0.25-0.25,0.25L 2.25,15 c-0.136,0-0.25-0.115-0.25-0.25L 2,1.25 c0-0.136, 0.115-0.25, 0.25-0.25l 7.5,0 c 0.075,0, 0.16,0.010, 0.25,0.027L 10,5 l 3.973,0 c 0.017,0.090, 0.027,0.174, 0.027,0.25L 14,14.75 z"></path></g></svg>