<?xml version="1.0" encoding="utf-8"?> <!-- Generator: IcoMoon.io --> <!DOCTYPE svg PUBLIC "-//W3C//DTD SVG 1.1//EN" "http://www.w3.org/Graphics/SVG/1.1/DTD/svg11.dtd"> <svg fill="#333333" xmlns:xlink="http://www.w3.org/1999/xlink" xmlns="http://www.w3.org/2000/svg" width="16" height="16" viewBox="0 0 16 16"><g><path d="M 3,8l 3,0 l0,1 L 3,9 L 3,8 z M 3,10l 3,0 l0,1 L 3,11 L 3,10 z M 3,12l 3,0 l0,1 L 3,13 L 3,12 z M 14.116,3.116l-2.232-2.232 C 11.398,0.398, 10.438,0, 9.75,0L 2.25,0 C 1.563,0, 1,0.563, 1,1.25l0,13.5 c0,0.688, 0.563,1.25, 1.25,1.25l 11.5,0 c 0.688,0, 1.25-0.563, 1.25-1.25L 15,5.25 C 15,4.563, 14.602,3.602, 14.116,3.116z M 13.409,3.823c 0.049,0.049, 0.098,0.109, 0.145,0.177L 11,4 L 11,1.446 c 0.068,0.047, 0.128,0.096, 0.177,0.145L 13.409,3.823z M 14,14.75c0,0.136-0.115,0.25-0.25,0.25L 2.25,15 c-0.136,0-0.25-0.115-0.25-0.25L 2,1.25 c0-0.136, 0.115-0.25, 0.25-0.25 l 7.5,0 c 0.075,0, 0.16,0.010, 0.25,0.027L 10,5 l 3.973,0 c 0.017,0.090, 0.027,0.174, 0.027,0.25L 14,14.75 zM 9,11 L 11.95,11 C 11.718,12.141 10.709,13 9.5,13 C 8.119,13 7,11.881 7,10.5 C 7,9.291 7.859,8.282 9,8.050 L 9,11 ZM 10.5,7 C 11.881,7 13,8.119 13,9.5 C 13,9.671 12.983,9.838 12.95,10 L 10,10 L 10,7.050 C 10.162,7.017 10.329,7 10.5,7 Z"></path></g></svg>