<?xml version="1.0" encoding="utf-8"?> <!-- Generator: IcoMoon.io --> <!DOCTYPE svg PUBLIC "-//W3C//DTD SVG 1.1//EN" "http://www.w3.org/Graphics/SVG/1.1/DTD/svg11.dtd"> <svg fill="#333333" xmlns:xlink="http://www.w3.org/1999/xlink" xmlns="http://www.w3.org/2000/svg" width="16" height="16" viewBox="0 0 16 16"><g><path d="M 13.156,9.211c-0.213-0.21-0.686-0.321-1.406-0.331c-0.487-0.005-1.073,0.038-1.69,0.124 c-0.276-0.159-0.561-0.333-0.784-0.542c-0.601-0.561-1.103-1.34-1.415-2.197c 0.020-0.080, 0.038-0.15, 0.054-0.222 c0,0, 0.339-1.923, 0.249-2.573c-0.012-0.089-0.020-0.115-0.044-0.184l-0.029-0.076c-0.092-0.212-0.273-0.437-0.556-0.425 l-0.166-0.005l-0.005-0c-0.316,0-0.573,0.161-0.64,0.403c-0.205,0.757, 0.007,1.889, 0.39,3.355l-0.098,0.239 c-0.275,0.67-0.619,1.345-0.923,1.94l-0.040,0.077c-0.32,0.626-0.61,1.157-0.873,1.607l-0.272,0.144 c-0.020,0.010-0.485,0.257-0.594,0.323c-0.926,0.553-1.539,1.18-1.641,1.678c-0.032,0.159-0.008,0.362, 0.156,0.456 l 0.263,0.132c 0.114,0.057, 0.234,0.086, 0.357,0.086c 0.659,0, 1.425-0.821, 2.48-2.662 c 1.218-0.396, 2.604-0.726, 3.819-0.908c 0.926,0.521, 2.065,0.884, 2.783,0.884c 0.128,0, 0.238-0.012, 0.327-0.036 c 0.138-0.036, 0.254-0.115, 0.325-0.222c 0.139-0.21, 0.168-0.499, 0.13-0.795C 13.303,9.393, 13.232,9.285, 13.156,9.211z M 3.307,12.72c 0.12-0.329, 0.596-0.979, 1.3-1.556c 0.044-0.036, 0.153-0.138, 0.253-0.233 C 4.124,12.105, 3.631,12.573, 3.307,12.72z M 7.476,3.12c 0.212,0, 0.333,0.534, 0.343,1.035 c 0.010,0.501-0.107,0.853-0.252,1.113c-0.12-0.385-0.179-0.992-0.179-1.389C 7.387,3.879, 7.378,3.12, 7.476,3.12z M 6.232,9.961c 0.148-0.264, 0.301-0.543, 0.458-0.839c 0.383-0.724, 0.624-1.29, 0.804-1.755 c 0.358,0.651, 0.804,1.205, 1.328,1.649c 0.065,0.055, 0.135,0.111, 0.207,0.166C 7.964,9.393, 7.043,9.649, 6.232,9.961z M 12.952,9.901c-0.065,0.041-0.251,0.064-0.37,0.064c-0.386,0-0.864-0.176-1.533-0.464 c 0.257-0.019, 0.493-0.029, 0.705-0.029c 0.387,0, 0.502-0.002, 0.88,0.095S 13.017,9.86, 12.952,9.901zM 14.116,3.116l-2.232-2.232C 11.398,0.398, 10.438,0, 9.75,0L 2.25,0 C 1.563,0, 1,0.563, 1,1.25l0,13.5 c0,0.688, 0.563,1.25, 1.25,1.25l 11.5,0 c 0.688,0, 1.25-0.563, 1.25-1.25L 15,5.25 C 15,4.563, 14.602,3.602, 14.116,3.116z M 13.409,3.823c 0.049,0.049, 0.098,0.109, 0.145,0.177L 11,4 L 11,1.446 c 0.068,0.047, 0.128,0.096, 0.177,0.145L 13.409,3.823z M 14,14.75c0,0.136-0.115,0.25-0.25,0.25L 2.25,15 c-0.136,0-0.25-0.115-0.25-0.25L 2,1.25 c0-0.136, 0.115-0.25, 0.25-0.25l 7.5,0 c 0.075,0, 0.16,0.010, 0.25,0.027L 10,5 l 3.973,0 c 0.017,0.090, 0.027,0.174, 0.027,0.25L 14,14.75 z"></path></g></svg>