<?xml version="1.0" encoding="utf-8"?> <!-- Generator: IcoMoon.io --> <!DOCTYPE svg PUBLIC "-//W3C//DTD SVG 1.1//EN" "http://www.w3.org/Graphics/SVG/1.1/DTD/svg11.dtd"> <svg fill="#333333" xmlns:xlink="http://www.w3.org/1999/xlink" xmlns="http://www.w3.org/2000/svg" width="16" height="16" viewBox="0 0 16 16"><g><path d="M0,2l0,12 l 16,0 L 16,2 L0,2 z M 3,13L 1,13 l0-2 l 2,0 L 3,13 z M 3,9L 1,9 l0-2 l 2,0 L 3,9 z M 3,5L 1,5 L 1,3 l 2,0 L 3,5 z M 12,13L 4,13 L 4,3 l 8,0 L 12,13 z M 15,13l-2,0 l0-2 l 2,0 L 15,13 z M 15,9l-2,0 l0-2 l 2,0 L 15,9 z M 15,5l-2,0 L 13,3 l 2,0 L 15,5 zM 6,5L 6,11L 10,8 z"></path></g></svg>