<?xml version="1.0" encoding="utf-8"?> <!-- Generator: IcoMoon.io --> <!DOCTYPE svg PUBLIC "-//W3C//DTD SVG 1.1//EN" "http://www.w3.org/Graphics/SVG/1.1/DTD/svg11.dtd"> <svg fill="#333333" xmlns:xlink="http://www.w3.org/1999/xlink" xmlns="http://www.w3.org/2000/svg" width="16" height="16" viewBox="0 0 16 16"><g><path d="M 5.016,16 C 3.949,13.781 4.517,12.51 5.337,11.312 C 6.234,10 6.466,8.701 6.466,8.701 C 6.466,8.701 7.171,9.619 6.889,11.053 C 8.135,9.666 8.371,7.455 8.182,6.608 C 11,8.577 12.204,12.84 10.581,16 C 19.212,11.117 12.728,3.81 11.599,2.987 C 11.976,3.81 12.047,5.203 11.287,5.879 C 10,1 6.818,0 6.818,0 C 7.195,2.516 5.454,5.268 3.776,7.324 C 3.717,6.321 3.655,5.628 3.127,4.668 C 3.009,6.491 1.616,7.977 1.238,9.803 C 0.727,12.276 1.621,14.087 5.016,16 Z"></path></g></svg>