<?xml version="1.0" encoding="utf-8"?> <!-- Generator: IcoMoon.io --> <!DOCTYPE svg PUBLIC "-//W3C//DTD SVG 1.1//EN" "http://www.w3.org/Graphics/SVG/1.1/DTD/svg11.dtd"> <svg fill="#333333" xmlns:xlink="http://www.w3.org/1999/xlink" xmlns="http://www.w3.org/2000/svg" width="16" height="16" viewBox="0 0 16 16"><g><path d="M 13,2.692 C 14.195,2.692 15.267,2.042 16,1.55 L 16,10.858 C 15.267,11.35 14.195,12 13,12 C 11.805,12 10.733,11.646 10,11.154 C 9.267,10.662 8.195,10.308 7,10.308 C 5.805,10.308 4.733,10.916 4,11.408 L 4,2.1 C 4.733,1.608 5.805,1 7,1 C 8.195,1 9.267,1.354 10,1.846 C 10.733,2.338 11.805,2.692 13,2.692 ZM 2,0 C 2.552,0 3,0.448 3,1 L 3,16 L 1,16 L 1,1 C 1,0.448 1.448,0 2,0 Z"></path></g></svg>