<?xml version="1.0" encoding="utf-8"?> <!-- Generator: IcoMoon.io --> <!DOCTYPE svg PUBLIC "-//W3C//DTD SVG 1.1//EN" "http://www.w3.org/Graphics/SVG/1.1/DTD/svg11.dtd"> <svg fill="#333333" xmlns:xlink="http://www.w3.org/1999/xlink" xmlns="http://www.w3.org/2000/svg" width="16" height="16" viewBox="0 0 16 16"><g><path d="M 12.055,5c 0.283-0.201, 0.555-0.425, 0.804-0.674c 0.522-0.522, 0.871-1.164, 0.983-1.808 c 0.123-0.706-0.057-1.362-0.494-1.798c-0.348-0.348-0.82-0.533-1.365-0.533c-0.775,0-1.593,0.372-2.242,1.021 c-1.039,1.039-1.644,2.472-1.97,3.496c-0.241-1.028-0.722-2.416-1.657-3.351C 5.613,0.851, 4.972,0.594, 4.367,0.594 c-0.495,0-0.965,0.172-1.317,0.523c-0.781,0.781-0.675,2.153, 0.236,3.064c 0.325,0.325, 0.705,0.595, 1.105,0.819L 1,5 l0,4 l 1,0 l0,7 l 12,0 L 14,9 l 1,0 L 15,5 L 12.055,5 z M 10.536,2.003c 0.433-0.433, 0.974-0.692, 1.446-0.692c 0.167,0, 0.402,0.035, 0.57,0.203 c 0.407,0.407, 0.178,1.349-0.489,2.016c-0.687,0.687-1.61,1.159-2.413,1.47l-0.792,0 C 9.149,4.101, 9.672,2.868, 10.536,2.003z M 3.655,2.514c-0.011-0.142-0.001-0.41, 0.191-0.601 C 4.006,1.752, 4.217,1.719, 4.367,1.719l0,0 c 0.332,0, 0.679,0.157, 0.952,0.429c 0.529,0.529, 0.965,1.371, 1.26,2.436 c 0.008,0.029, 0.016,0.057, 0.023,0.086c-0.028-0.008-0.057-0.015-0.086-0.023c-1.064-0.295-1.906-0.731-2.436-1.26 C 3.834,3.138, 3.679,2.821, 3.655,2.514z M 7,15L 3,15 L 3,8.5 l 4,0 L 7,15 z M 7,8L 2,8 l0-2 l 5,0 L 7,8 z M 13,15L 9,15 L 9,8.5 l 4,0 L 13,15 z M 14,8L 9,8 l0-2 l 5,0 L 14,8 z"></path></g></svg>