<?xml version="1.0" encoding="utf-8"?> <!-- Generator: IcoMoon.io --> <!DOCTYPE svg PUBLIC "-//W3C//DTD SVG 1.1//EN" "http://www.w3.org/Graphics/SVG/1.1/DTD/svg11.dtd"> <svg fill="#333333" xmlns:xlink="http://www.w3.org/1999/xlink" xmlns="http://www.w3.org/2000/svg" width="16" height="16" viewBox="0 0 16 16"><g><path d="M 7.5,1C 3.358,1,0,4.358,0,8.5c0,4.142, 3.358,7.5, 7.5,7.5c 4.142,0, 7.5-3.358, 7.5-7.5 C 15,4.358, 11.642,1, 7.5,1z M 11.744,11c 0.134-0.632, 0.219-1.303, 0.246-2l 1.991,0 c-0.052,0.691-0.213,1.361-0.479,2 L 11.744,11 z M 3.256,6c-0.134,0.632-0.219,1.303-0.246,2L 1.019,8 c 0.052-0.691, 0.213-1.361, 0.479-2L 3.256,6 z M 10.719,6 c 0.15,0.64, 0.241,1.31, 0.27,2L 8,8 l0-2 L 10.719,6 z M 8,5L 8,2.073 c 0.228,0.066, 0.454,0.178, 0.675,0.334 c 0.415,0.293, 0.813,0.744, 1.149,1.304c 0.233,0.388, 0.434,0.819, 0.602,1.289L 8,5 z M 5.176,3.711 c 0.336-0.561, 0.734-1.012, 1.149-1.304c 0.222-0.156, 0.447-0.268, 0.675-0.334L 7,5 l-2.426,0 C 4.742,4.53, 4.943,4.099, 5.176,3.711z M 7,6l0,2 l-2.989,0 c 0.029-0.69, 0.12-1.36, 0.27-2L 7,6 z M 1.498,11 c-0.267-0.639-0.427-1.309-0.479-2l 1.991,0 c 0.028,0.697, 0.112,1.368, 0.246,2L 1.498,11 z M 4.011,9L 7,9 l0,2 l-2.719,0 C 4.13,10.36, 4.040,9.69, 4.011,9z M 7,12l0,2.927 c-0.228-0.066-0.454-0.178-0.675-0.334 c-0.415-0.293-0.813-0.744-1.149-1.304c-0.233-0.388-0.434-0.819-0.602-1.289L 7,12 z M 9.825,13.289 c-0.336,0.561-0.734,1.012-1.149,1.304c-0.222,0.156-0.447,0.268-0.675,0.334L 8,12 l 2.426,0 C 10.258,12.47, 10.057,12.901, 9.825,13.289z M 8,11l0-2 l 2.989,0 c-0.029,0.69-0.12,1.36-0.27,2L 8,11 z M 11.99,8 c-0.028-0.697-0.112-1.368-0.246-2l 1.758,0 c 0.267,0.639, 0.427,1.309, 0.479,2L 11.99,8 z M 12.979,5l-1.498,0 c-0.291-0.918-0.693-1.723-1.177-2.366c 0.665,0.318, 1.267,0.744, 1.792,1.27C 12.432,4.239, 12.727,4.606, 12.979,5 z M 2.904,3.904c 0.526-0.526, 1.128-0.952, 1.792-1.27c-0.483,0.643-0.886,1.448-1.177,2.366L 2.021,5 C 2.273,4.606, 2.568,4.239, 2.904,3.904z M 2.021,12l 1.498,0 c 0.291,0.918, 0.693,1.723, 1.177,2.366 c-0.665-0.318-1.267-0.744-1.792-1.27C 2.568,12.761, 2.273,12.394, 2.021,12z M 12.096,13.096 c-0.526,0.526-1.128,0.952-1.792,1.27c 0.483-0.643, 0.886-1.448, 1.177-2.366l 1.498,0 C 12.727,12.394, 12.432,12.761, 12.096,13.096z"></path></g></svg>