<?xml version="1.0" encoding="utf-8"?> <!-- Generator: IcoMoon.io --> <!DOCTYPE svg PUBLIC "-//W3C//DTD SVG 1.1//EN" "http://www.w3.org/Graphics/SVG/1.1/DTD/svg11.dtd"> <svg fill="#333333" xmlns:xlink="http://www.w3.org/1999/xlink" xmlns="http://www.w3.org/2000/svg" width="16" height="16" viewBox="0 0 16 16"><g><path d="M 0.013,13.588c-0.004-0.040-0.007-0.079-0.009-0.119C 0.005,13.509, 0.009,13.549, 0.013,13.588zM 3.686,8.83c 1.438,0.043, 2.402-1.448, 2.154-3.331c-0.248-1.883-1.616-3.393-3.053-3.436 c-1.438-0.043-2.402,1.398-2.154,3.281C 0.881,7.226, 2.248,8.788, 3.686,8.83zM 16,4L 16,2.667 C 16,1.2, 14.8,0, 13.333,0L 2.667,0 C 1.225,0, 0.042,1.16, 0.002,2.593 c 0.912-0.803, 2.177-1.474, 3.482-1.474c 1.395,0, 5.582,0, 5.582,0l-1.249,1.057l-1.77,0 c 1.174,0.45, 1.799,1.814, 1.799,3.214c0,1.176-0.653,2.187-1.576,2.906c-0.901,0.702-1.071,0.995-1.071,1.592 c0,0.509, 0.965,1.375, 1.469,1.731c 1.475,1.040, 1.952,2.005, 1.952,3.616c0,0.257-0.032,0.513-0.095,0.765l 4.808,0 C 14.8,16, 16,14.801, 16,13.333L 16,5 l-3,0 L 13,8 l-1,0 l0-3 l-3,0 l0-1 L 12,4 L 12,1 l 1,0 l0,3 L 16,4 zM 2.904,11.968c 0.338,0, 0.647-0.009, 0.968-0.009c-0.424-0.411-0.76-0.916-0.76-1.537 c0-0.369, 0.118-0.724, 0.283-1.039c-0.168,0.012-0.34,0.016-0.518,0.016c-1.162,0-2.149-0.376-2.878-0.998l0,1.051 l 0,3.152C 0.835,12.206, 1.826,11.968, 2.904,11.968zM 0.053,13.863c-0.017-0.085-0.031-0.172-0.040-0.26C 0.023,13.691, 0.036,13.778, 0.053,13.863zM 7.116,14.888c-0.235-0.919-1.070-1.374-2.233-2.181c-0.423-0.136-0.889-0.217-1.389-0.222 c-1.4-0.015-2.705,0.546-3.441,1.381C 0.303,15.080, 1.383,16, 2.667,16l 4.476,0 c 0.028-0.174, 0.042-0.354, 0.042-0.538 C 7.185,15.266, 7.161,15.075, 7.116,14.888z"></path></g></svg>