<?xml version="1.0" encoding="utf-8"?> <!-- Generator: IcoMoon.io --> <!DOCTYPE svg PUBLIC "-//W3C//DTD SVG 1.1//EN" "http://www.w3.org/Graphics/SVG/1.1/DTD/svg11.dtd"> <svg fill="#333333" xmlns:xlink="http://www.w3.org/1999/xlink" xmlns="http://www.w3.org/2000/svg" width="16.5" height="16" viewBox="0 0 16.5 16"><g><path d="M 9,1 C 12.866,1 16,4.134 16,8 C 16,11.866 12.866,15 9,15 L 9,13.5 C 10.469,13.5 11.85,12.928 12.889,11.889 C 13.928,10.85 14.5,9.469 14.5,8 C 14.5,6.531 13.928,5.15 12.889,4.111 C 11.85,3.072 10.469,2.5 9,2.5 C 7.531,2.5 6.15,3.072 5.111,4.111 C 4.312,4.91 3.789,5.912 3.591,7 L 6.5,7 L 3,11 L -0.5,7 L 2.071,7 C 2.557,3.608 5.474,1 9,1 ZM 12,7 L 12,9 L 8,9 L 8,4 L 10,4 L 10,7 Z"></path></g></svg>