<?xml version="1.0" encoding="utf-8"?> <!-- Generator: IcoMoon.io --> <!DOCTYPE svg PUBLIC "-//W3C//DTD SVG 1.1//EN" "http://www.w3.org/Graphics/SVG/1.1/DTD/svg11.dtd"> <svg fill="#333333" xmlns:xlink="http://www.w3.org/1999/xlink" xmlns="http://www.w3.org/2000/svg" width="16" height="16" viewBox="0 0 16 16"><g><path d="M 8,0C 3.582,0,0,3.582,0,8s 3.582,8, 8,8s 8-3.582, 8-8S 12.418,0, 8,0z M 8,14.5 c-3.59,0-6.5-2.91-6.5-6.5S 4.41,1.5, 8,1.5s 6.5,2.91, 6.5,6.5S 11.59,14.5, 8,14.5zM 7,4L 9,4L 9,6L 7,6zM 10,12L 6,12L 6,11L 7,11L 7,8L 6,8L 6,7L 9,7L 9,11L 10,11 z"></path></g></svg>