<?xml version="1.0" encoding="utf-8"?> <!-- Generator: IcoMoon.io --> <!DOCTYPE svg PUBLIC "-//W3C//DTD SVG 1.1//EN" "http://www.w3.org/Graphics/SVG/1.1/DTD/svg11.dtd"> <svg fill="#333333" xmlns:xlink="http://www.w3.org/1999/xlink" xmlns="http://www.w3.org/2000/svg" width="16" height="16" viewBox="0 0 16 16"><g><path d="M 13.344,0L 2.656,0 C 1.195,0,0,1.195,0,2.656l0,10.688 c0,1.461, 1.195,2.656, 2.656,2.656l 10.688,0 c 1.461,0, 2.656-1.195, 2.656-2.656L 16,2.656 C 16,1.195, 14.805,0, 13.344,0z M 5.122,7l 5.756,0 c 0.109,0.313, 0.169,0.65, 0.169,1c0,1.68-1.367,3.047-3.047,3.047c-1.68,0-3.047-1.367-3.047-3.047 C 4.953,7.65, 5.013,7.313, 5.122,7z M 14,7.001L 14,11 l0,2 c0,0.55-0.45,1-1,1L 3,14 c-0.55,0-1-0.45-1-1l0-2 L 2,7.001 L 2,7 l 1.564,0 c-0.073,0.322-0.111,0.656-0.111,1c0,2.507, 2.040,4.547, 4.547,4.547c 2.507,0, 4.547-2.040, 4.547-4.547 c0-0.344-0.038-0.678-0.111-1L 14,7 L 14,7.001 z M 14,3.5c0,0.275-0.225,0.5-0.5,0.5l-1,0 c-0.275,0-0.5-0.225-0.5-0.5L 12,2.5 c0-0.275, 0.225-0.5, 0.5-0.5l 1,0 c 0.275,0, 0.5,0.225, 0.5,0.5L 14,3.5 z"></path></g></svg>