<?xml version="1.0" encoding="utf-8"?> <!-- Generator: IcoMoon.io --> <!DOCTYPE svg PUBLIC "-//W3C//DTD SVG 1.1//EN" "http://www.w3.org/Graphics/SVG/1.1/DTD/svg11.dtd"> <svg fill="#333333" xmlns:xlink="http://www.w3.org/1999/xlink" xmlns="http://www.w3.org/2000/svg" width="16" height="16" viewBox="0 0 16 16"><g><path d="M 11,0c-2.761,0-5,2.239-5,5c0,0.313, 0.029,0.619, 0.084,0.916L0,12l0,3 c0,0.552, 0.448,1, 1,1 l 1,0 l0-1 l 2,0 l0-2 l 2,0 l0-2 l 2,0 l 1.298-1.298C 9.829,9.895, 10.402,10, 11,10c 2.761,0, 5-2.239, 5-5S 13.761,0, 11,0z M 12.498,5.002c-0.828,0-1.5-0.672-1.5-1.5s 0.672-1.5, 1.5-1.5s 1.5,0.672, 1.5,1.5S 13.326,5.002, 12.498,5.002z"></path></g></svg>