<?xml version="1.0" encoding="utf-8"?> <!-- Generator: IcoMoon.io --> <!DOCTYPE svg PUBLIC "-//W3C//DTD SVG 1.1//EN" "http://www.w3.org/Graphics/SVG/1.1/DTD/svg11.dtd"> <svg fill="#333333" xmlns:xlink="http://www.w3.org/1999/xlink" xmlns="http://www.w3.org/2000/svg" width="16" height="16" viewBox="0 0 16 16"><g><path d="M 14.942,12.57L 10,4.335L 10,1 l 0.5,0 c 0.275,0, 0.5-0.225, 0.5-0.5s-0.225-0.5-0.5-0.5L 5.5,0 c-0.275,0-0.5,0.225-0.5,0.5s 0.225,0.5, 0.5,0.5l 0.5,0 l0,3.335 L 1.058,12.57C-0.074,14.457, 0.8,16, 3,16l 10,0 C 15.2,16, 16.074,14.457, 14.942,12.57z M 3.766,10L 7,4.61L 7,1 l 2,0 l0,3.61 L 12.234,10L 3.766,10 z"></path></g></svg>