<?xml version="1.0" encoding="utf-8"?> <!-- Generator: IcoMoon.io --> <!DOCTYPE svg PUBLIC "-//W3C//DTD SVG 1.1//EN" "http://www.w3.org/Graphics/SVG/1.1/DTD/svg11.dtd"> <svg fill="#333333" xmlns:xlink="http://www.w3.org/1999/xlink" xmlns="http://www.w3.org/2000/svg" width="16" height="16" viewBox="0 0 16 16"><g><path d="M 8,0L0,5l 16,0 L 8,0z M 12.5,6l 0.5,1l0,6 l 2,0 L 15,7 l 0.5-1L 12.5,6 z M 8.5,6l 0.5,1l0,6 l 2,0 L 11,7 l 0.5-1L 8.5,6 z M 4.5,6l 0.5,1l0,6 l 2,0 L 7,7 l 0.5-1L 4.5,6 z M 0.5,6l 0.5,1l0,6 l 2,0 L 3,7 l 0.5-1L 0.5,6 z M 0.5,14L0,16l 16,0 l-0.5-2L 0.5,14 z M 9,3c0,0.552-0.448,1-1,1 c-0.552,0-1-0.448-1-1s 0.448-1, 1-1C 8.552,2, 9,2.448, 9,3z"></path></g></svg>