<?xml version="1.0" encoding="utf-8"?> <!-- Generator: IcoMoon.io --> <!DOCTYPE svg PUBLIC "-//W3C//DTD SVG 1.1//EN" "http://www.w3.org/Graphics/SVG/1.1/DTD/svg11.dtd"> <svg fill="#333333" xmlns:xlink="http://www.w3.org/1999/xlink" xmlns="http://www.w3.org/2000/svg" width="16" height="16" viewBox="0 0 16 16"><g><path d="M 8.354,0.354C 8.159,0.159, 7.775,0, 7.5,0L 1.5,0 c-0.275,0-0.5,0.225-0.5,0.5l0,15 c0,0.275, 0.225,0.5, 0.5,0.5l 12,0 c 0.275,0, 0.5-0.225, 0.5-0.5L 14,6.5 c0-0.275-0.159-0.659-0.354-0.854L 8.354,0.354z M 13,15L 2,15 L 2,1 l 5.487,0 c 0.046,0.007, 0.131,0.043, 0.169,0.070l 5.274,5.274 c 0.027,0.038, 0.062,0.123, 0.070,0.169L 13,15 zM 13.5,0l-3,0 c-0.275,0-0.341,0.159-0.146,0.354l 3.293,3.293C 13.841,3.841, 14,3.775, 14,3.5L 14,0.5 C 14,0.225, 13.775,0, 13.5,0 z"></path></g></svg>