<?xml version="1.0" encoding="utf-8"?> <!-- Generator: IcoMoon.io --> <!DOCTYPE svg PUBLIC "-//W3C//DTD SVG 1.1//EN" "http://www.w3.org/Graphics/SVG/1.1/DTD/svg11.dtd"> <svg fill="#333333" xmlns:xlink="http://www.w3.org/1999/xlink" xmlns="http://www.w3.org/2000/svg" width="16" height="16" viewBox="0 0 16 16"><g><path d="M 9.25,7l-0.25,0 l0-3 c0-1.654-1.346-3-3-3l-2,0 c-1.654,0-3,1.346-3,3l0,3 l-0.25,0 c-0.412,0-0.75,0.338-0.75,0.75l0,7.5 c0,0.412, 0.338,0.75, 0.75,0.75l 8.5,0 c 0.412,0, 0.75-0.338, 0.75-0.75L 10,7.75 C 10,7.338, 9.662,7, 9.25,7z M 6,14l-2,0 l 0.435-2.175 C 4.172,11.645, 4,11.343, 4,11c0-0.552, 0.448-1, 1-1c 0.552,0, 1,0.448, 1,1c0,0.343-0.172,0.645-0.435,0.825L 6,14 z M 7,7L 3,7 l0-3 c0-0.551, 0.449-1, 1-1l 2,0 c 0.551,0, 1,0.449, 1,1L 7,7 z"></path></g></svg>