<?xml version="1.0" encoding="utf-8"?> <!-- Generator: IcoMoon.io --> <!DOCTYPE svg PUBLIC "-//W3C//DTD SVG 1.1//EN" "http://www.w3.org/Graphics/SVG/1.1/DTD/svg11.dtd"> <svg fill="#333333" xmlns:xlink="http://www.w3.org/1999/xlink" xmlns="http://www.w3.org/2000/svg" width="16" height="16" viewBox="0 0 16 16"><g><path d="M 13.657,2.343C 12.209,0.896, 10.209,0, 8,0C 4.571,0, 1.645,2.158, 0.508,5.19l 1.873,0.702 C 3.234,3.619, 5.428,2, 8,2c 1.657,0, 3.157,0.672, 4.242,1.758L 10,6l 6,0 L 16,0 L 13.657,2.343zM 8,14c-1.657,0-3.157-0.672-4.242-1.758L 6,10L0,10 l0,6 l 2.344-2.344C 3.791,15.104, 5.791,16, 8,16 c 3.43,0, 6.355-2.158, 7.492-5.19l-1.873-0.702C 12.766,12.381, 10.572,14, 8,14z"></path></g></svg>