<?xml version="1.0" encoding="utf-8"?> <!-- Generator: IcoMoon.io --> <!DOCTYPE svg PUBLIC "-//W3C//DTD SVG 1.1//EN" "http://www.w3.org/Graphics/SVG/1.1/DTD/svg11.dtd"> <svg fill="#333333" xmlns:xlink="http://www.w3.org/1999/xlink" xmlns="http://www.w3.org/2000/svg" width="16" height="16" viewBox="0 0 16 16"><g><path d="M 13,5l-1,0 l0-1.5 c0-1.381-2.686-2.5-6-2.5C 2.686,1,0,2.119,0,3.5l0,9 c0,1.381, 2.686,2.5, 6,2.5 c 3.314,0, 6-1.119, 6-2.5l0-1.5 l 1,0 c 1.65,0, 3-1.35, 3-3S 14.65,5, 13,5z M 2.751,2.963C 3.656,2.664, 4.81,2.5, 6,2.5 s 2.344,0.164, 3.249,0.463c 0.578,0.19, 0.928,0.394, 1.116,0.537c-0.188,0.143-0.538,0.347-1.116,0.537 C 8.344,4.336, 7.19,4.5, 6,4.5s-2.344-0.164-3.249-0.463C 2.173,3.847, 1.823,3.643, 1.635,3.5 C 1.823,3.357, 2.173,3.153, 2.751,2.963z M 14.131,8.881C 13.993,9.019, 13.695,9.25, 13.25,9.25l-1.25,0 l0-2.5 l 1.25,0 c 0.445,0, 0.743,0.231, 0.881,0.369S 14.5,7.555, 14.5,8S 14.269,8.743, 14.131,8.881z"></path></g></svg>