<?xml version="1.0" encoding="utf-8"?> <!-- Generator: IcoMoon.io --> <!DOCTYPE svg PUBLIC "-//W3C//DTD SVG 1.1//EN" "http://www.w3.org/Graphics/SVG/1.1/DTD/svg11.dtd"> <svg fill="#333333" xmlns:xlink="http://www.w3.org/1999/xlink" xmlns="http://www.w3.org/2000/svg" width="16" height="16" viewBox="0 0 16 16"><g><path d="M 5,3 L 16,0 L 16,1 L 16,3 L 16,11.5 C 16,12.881 14.433,14 12.5,14 C 10.567,14 9,12.881 9,11.5 C 9,10.119 10.567,9 12.5,9 C 13.037,9 13.545,9.086 14,9.241 L 14,4.091 L 7,6 L 7,13.5 C 7,14.881 5.433,16 3.5,16 C 1.567,16 0,14.881 0,13.5 C 0,12.119 1.567,11 3.5,11 C 4.037,11 4.545,11.086 5,11.241 L 5,6 L 5,3 Z"></path></g></svg>