<?xml version="1.0" encoding="utf-8"?> <!-- Generator: IcoMoon.io --> <!DOCTYPE svg PUBLIC "-//W3C//DTD SVG 1.1//EN" "http://www.w3.org/Graphics/SVG/1.1/DTD/svg11.dtd"> <svg fill="#333333" xmlns:xlink="http://www.w3.org/1999/xlink" xmlns="http://www.w3.org/2000/svg" width="16" height="16" viewBox="0 0 16 16"><g><path d="M 14,4L 14,2 L0,2 l0,11 c0,0.552, 0.448,1, 1,1l 13.5,0 c 0.828,0, 1.5-0.672, 1.5-1.5L 16,4 L 14,4 z M 13,13L 1,13 L 1,3 l 12,0 L 13,13 zM 2,5L 12,5L 12,6L 2,6zM 8,7L 12,7L 12,8L 8,8zM 8,9L 12,9L 12,10L 8,10zM 8,11L 11,11L 11,12L 8,12zM 2,7L 7,7L 7,12L 2,12z"></path></g></svg>