<?xml version="1.0" encoding="utf-8"?> <!-- Generator: IcoMoon.io --> <!DOCTYPE svg PUBLIC "-//W3C//DTD SVG 1.1//EN" "http://www.w3.org/Graphics/SVG/1.1/DTD/svg11.dtd"> <svg fill="#333333" xmlns:xlink="http://www.w3.org/1999/xlink" xmlns="http://www.w3.org/2000/svg" width="16" height="16" viewBox="0 0 16 16"><g><path d="M0,16l 8,0 L 8,0 L0,0 L0,16 z M 5,2l 2,0 l0,2 l-2,0 L 5,2 z M 5,6l 2,0 l0,2 l-2,0 L 5,6 z M 5,10l 2,0 l0,2 l-2,0 L 5,10 z M 1,2l 2,0 l0,2 L 1,4 L 1,2 z M 1,6 l 2,0 l0,2 L 1,8 L 1,6 z M 1,10l 2,0 l0,2 L 1,12 L 1,10 zM 9,5L 16,5L 16,6L 9,6zM 9,16L 11,16L 11,12L 14,12L 14,16L 16,16L 16,7L 9,7 z"></path></g></svg>