<?xml version="1.0" encoding="utf-8"?> <!-- Generator: IcoMoon.io --> <!DOCTYPE svg PUBLIC "-//W3C//DTD SVG 1.1//EN" "http://www.w3.org/Graphics/SVG/1.1/DTD/svg11.dtd"> <svg fill="#333333" xmlns:xlink="http://www.w3.org/1999/xlink" xmlns="http://www.w3.org/2000/svg" width="16" height="16" viewBox="0 0 16 16"><g><path d="M 13,5L 13,2.5 c0-0.275-0.225-0.5-0.5-0.5L 9,2 L 9,1 c0-0.55-0.45-1-1-1l-2,0 c-0.55,0-1,0.45-1,1l0,1 L 1.5,2 c-0.275,0-0.5,0.225-0.5,0.5l0,10 c0,0.275, 0.225,0.5, 0.5,0.5l 4.5,0 l0,3 l 7,0 l 3-3L 16,5 L 13,5 z M 6,1.002c 0.001-0.001, 0.001-0.001, 0.002-0.002l 1.996,0 c 0.001,0.001, 0.001,0.001, 0.002,0.002L 8,2 l-2,0 L 6,1.002 z M 3,4L 3,3 l 8,0 l0,1 L 3,4 z M 13,14.586L 13,13 l 1.586,0 L 13,14.586z M 15,12l-3,0 l0,3 L 7,15 L 7,6 l 8,0 L 15,12 z"></path></g></svg>