<?xml version="1.0" encoding="utf-8"?> <!-- Generator: IcoMoon.io --> <!DOCTYPE svg PUBLIC "-//W3C//DTD SVG 1.1//EN" "http://www.w3.org/Graphics/SVG/1.1/DTD/svg11.dtd"> <svg fill="#333333" xmlns:xlink="http://www.w3.org/1999/xlink" xmlns="http://www.w3.org/2000/svg" width="16" height="16" viewBox="0 0 16 16"><g><path d="M 15.5,6L 10,6 L 10,0.5 c0-0.276-0.224-0.5-0.5-0.5l-3,0 c-0.276,0-0.5,0.224-0.5,0.5l0,5.5 L 0.5,6 c-0.276,0-0.5,0.224-0.5,0.5l0,3 c0,0.276, 0.224,0.5, 0.5,0.5l 5.5,0 l0,5.5 c0,0.276, 0.224,0.5, 0.5,0.5l 3,0 c 0.276,0, 0.5-0.224, 0.5-0.5L 10,10 l 5.5,0 c 0.276,0, 0.5-0.224, 0.5-0.5l0-3 C 16,6.224, 15.776,6, 15.5,6z"></path></g></svg>