<?xml version="1.0" encoding="utf-8"?> <!-- Generator: IcoMoon.io --> <!DOCTYPE svg PUBLIC "-//W3C//DTD SVG 1.1//EN" "http://www.w3.org/Graphics/SVG/1.1/DTD/svg11.dtd"> <svg fill="#333333" xmlns:xlink="http://www.w3.org/1999/xlink" xmlns="http://www.w3.org/2000/svg" width="16" height="16" viewBox="0 0 16 16"><g><path d="M 4,1L 12,1L 12,3L 4,3zM 15,4L 1,4 C 0.45,4,0,4.45,0,5l0,5 c0,0.55, 0.45,1, 1,1l 3,0 l0,4 l 8,0 L 12,11 l 3,0 c 0.55,0, 1-0.45, 1-1L 16,5 C 16,4.45, 15.55,4, 15,4z M 11,14L 5,14 L 5,9 l 6,0 L 11,14 z M 15.225,5.5c0,0.4-0.325,0.725-0.725,0.725 c-0.4,0-0.725-0.325-0.725-0.725s 0.325-0.725, 0.725-0.725C 14.9,4.775, 15.225,5.1, 15.225,5.5z"></path></g></svg>