<?xml version="1.0" encoding="utf-8"?> <!-- Generator: IcoMoon.io --> <!DOCTYPE svg PUBLIC "-//W3C//DTD SVG 1.1//EN" "http://www.w3.org/Graphics/SVG/1.1/DTD/svg11.dtd"> <svg fill="#333333" xmlns:xlink="http://www.w3.org/1999/xlink" xmlns="http://www.w3.org/2000/svg" width="16" height="16" viewBox="0 0 16 16"><g><path d="M 5,1 L 1,1 L 1,5 L 5,5 L 5,1 Z M 6,0 L 6,0 L 6,6 L 0,6 L 0,0 L 6,0 ZM 2,2L 4,2L 4,4L 2,4zM 15,1 L 11,1 L 11,5 L 15,5 L 15,1 Z M 16,0 L 16,0 L 16,6 L 10,6 L 10,0 L 16,0 ZM 12,2L 14,2L 14,4L 12,4zM 5,11 L 1,11 L 1,15 L 5,15 L 5,11 Z M 6,10 L 6,10 L 6,16 L 0,16 L 0,10 L 6,10 ZM 2,12L 4,12L 4,14L 2,14zM 7,0L 8,0L 8,1L 7,1zM 8,1L 9,1L 9,2L 8,2zM 7,2L 8,2L 8,3L 7,3zM 8,3L 9,3L 9,4L 8,4zM 7,4L 8,4L 8,5L 7,5zM 8,5L 9,5L 9,6L 8,6zM 7,6L 8,6L 8,7L 7,7zM 7,8L 8,8L 8,9L 7,9zM 8,9L 9,9L 9,10L 8,10zM 7,10L 8,10L 8,11L 7,11zM 8,11L 9,11L 9,12L 8,12zM 7,12L 8,12L 8,13L 7,13zM 8,13L 9,13L 9,14L 8,14zM 7,14L 8,14L 8,15L 7,15zM 8,15L 9,15L 9,16L 8,16zM 15,8L 16,8L 16,9L 15,9zM 1,8L 2,8L 2,9L 1,9zM 2,7L 3,7L 3,8L 2,8zM0,7L 1,7L 1,8L0,8zM 4,7L 5,7L 5,8L 4,8zM 5,8L 6,8L 6,9L 5,9zM 6,7L 7,7L 7,8L 6,8zM 9,8L 10,8L 10,9L 9,9zM 10,7L 11,7L 11,8L 10,8zM 11,8L 12,8L 12,9L 11,9zM 12,7L 13,7L 13,8L 12,8zM 13,8L 14,8L 14,9L 13,9zM 14,7L 15,7L 15,8L 14,8zM 15,10L 16,10L 16,11L 15,11zM 9,10L 10,10L 10,11L 9,11zM 10,9L 11,9L 11,10L 10,10zM 11,10L 12,10L 12,11L 11,11zM 13,10L 14,10L 14,11L 13,11zM 14,9L 15,9L 15,10L 14,10zM 15,12L 16,12L 16,13L 15,13zM 9,12L 10,12L 10,13L 9,13zM 10,11L 11,11L 11,12L 10,12zM 12,11L 13,11L 13,12L 12,12zM 13,12L 14,12L 14,13L 13,13zM 14,11L 15,11L 15,12L 14,12zM 15,14L 16,14L 16,15L 15,15zM 10,13L 11,13L 11,14L 10,14zM 11,14L 12,14L 12,15L 11,15zM 12,13L 13,13L 13,14L 12,14zM 13,14L 14,14L 14,15L 13,15zM 10,15L 11,15L 11,16L 10,16zM 12,15L 13,15L 13,16L 12,16zM 14,15L 15,15L 15,16L 14,16z"></path></g></svg>