<?xml version="1.0" encoding="utf-8"?> <!-- Generator: IcoMoon.io --> <!DOCTYPE svg PUBLIC "-//W3C//DTD SVG 1.1//EN" "http://www.w3.org/Graphics/SVG/1.1/DTD/svg11.dtd"> <svg fill="#333333" xmlns:xlink="http://www.w3.org/1999/xlink" xmlns="http://www.w3.org/2000/svg" width="16.015625" height="16" viewBox="0 0 16.015625 16"><g><path d="M 3.516,7 C 5.449,7 7.016,8.567 7.016,10.5 C 7.016,12.433 5.449,14 3.516,14 C 1.583,14 0.016,12.433 0.016,10.5 L 0,10 C 0,6.134 3.134,3 7,3 L 7,5 C 5.664,5 4.409,5.52 3.464,6.464 C 3.283,6.646 3.117,6.84 2.967,7.043 C 3.146,7.015 3.329,7 3.516,7 ZM 12.516,7 C 14.449,7 16.016,8.567 16.016,10.5 C 16.016,12.433 14.449,14 12.516,14 C 10.583,14 9.016,12.433 9.016,10.5 L 9,10 C 9,6.134 12.134,3 16,3 L 16,5 C 14.664,5 13.409,5.52 12.464,6.464 C 12.283,6.646 12.117,6.84 11.967,7.043 C 12.146,7.015 12.329,7 12.516,7 Z"></path></g></svg>