<?xml version="1.0" encoding="utf-8"?> <!-- Generator: IcoMoon.io --> <!DOCTYPE svg PUBLIC "-//W3C//DTD SVG 1.1//EN" "http://www.w3.org/Graphics/SVG/1.1/DTD/svg11.dtd"> <svg fill="#333333" xmlns:xlink="http://www.w3.org/1999/xlink" xmlns="http://www.w3.org/2000/svg" width="16" height="16" viewBox="0 0 16 16"><g><path d="M 13.918,11.081c-0.713-0.712-1.621-1.079-2.468-1.079l-0.455,0 l-0.999-1l 3.994-4.001 c 0.999-1, 0.999-3,0-4.001L 8,7.001L 2.009,1c-0.999,1-0.999,3,0,4.001l 3.994,4.001 l-0.999,1l-0.455,0 c-0.847,0-1.755,0.367-2.468,1.079c-1.275,1.273-1.448,3.164-0.385,4.224 C 2.165,15.772, 2.795,16, 3.462,16c 0.847,0, 1.755-0.367, 2.468-1.079c 0.837-0.835, 1.199-1.938, 1.048-2.896l 1.022-1.023 l 1.022,1.023c-0.151,0.959, 0.211,2.061, 1.048,2.896C 10.783,15.633, 11.691,16, 12.538,16 c 0.667,0, 1.297-0.228, 1.766-0.695C 15.366,14.244, 15.194,12.353, 13.918,11.081z M 5.516,13.212 c-0.12,0.279-0.297,0.537-0.525,0.764c-0.229,0.228-0.487,0.405-0.768,0.525c-0.252,0.108-0.515,0.165-0.76,0.165 c-0.237,0-0.572-0.053-0.826-0.306c-0.252-0.252-0.305-0.583-0.305-0.817c0-0.243, 0.057-0.503, 0.164-0.753 c 0.12-0.279, 0.297-0.537, 0.525-0.764c 0.229-0.228, 0.487-0.405, 0.768-0.525c 0.252-0.108, 0.515-0.165, 0.76-0.165 c 0.237,0, 0.572,0.053, 0.826,0.306c 0.252,0.252, 0.305,0.583, 0.305,0.817C 5.681,12.701, 5.624,12.962, 5.516,13.212z M 8,10.416c-0.78,0-1.412-0.633-1.412-1.414c0-0.781, 0.632-1.414, 1.412-1.414s 1.412,0.633, 1.412,1.414 C 9.412,9.782, 8.78,10.416, 8,10.416z M 13.364,14.36c-0.254,0.253-0.589,0.306-0.826,0.306 c-0.245,0-0.508-0.057-0.76-0.165c-0.281-0.12-0.539-0.297-0.768-0.525c-0.228-0.228-0.405-0.485-0.525-0.764 c-0.108-0.25-0.164-0.51-0.164-0.753c0-0.234, 0.053-0.565, 0.305-0.817c 0.254-0.253, 0.589-0.306, 0.826-0.306 c 0.245,0, 0.508,0.057, 0.76,0.165c 0.281,0.12, 0.539,0.297, 0.768,0.525c 0.228,0.228, 0.405,0.485, 0.525,0.764 c 0.108,0.25, 0.164,0.51, 0.164,0.753C 13.669,13.777, 13.616,14.108, 13.364,14.36z"></path></g></svg>