<?xml version="1.0" encoding="utf-8"?> <!-- Generator: IcoMoon.io --> <!DOCTYPE svg PUBLIC "-//W3C//DTD SVG 1.1//EN" "http://www.w3.org/Graphics/SVG/1.1/DTD/svg11.dtd"> <svg fill="#333333" xmlns:xlink="http://www.w3.org/1999/xlink" xmlns="http://www.w3.org/2000/svg" width="16" height="16" viewBox="0 0 16 16"><g><path d="M 15.504,13.616L 11.714,10.392c-0.392-0.353-0.811-0.514-1.149-0.499C 11.46,8.845, 12,7.486, 12,6 C 12,2.686, 9.314,0, 6,0C 2.686,0,0,2.686,0,6c0,3.314, 2.686,6, 6,6c 1.486,0, 2.845-0.54, 3.893-1.435 c-0.016,0.338, 0.146,0.757, 0.499,1.149l 3.223,3.79c 0.552,0.613, 1.453,0.665, 2.003,0.115S 16.117,14.167, 15.504,13.616z M 6,10c-2.209,0-4-1.791-4-4S 3.791,2, 6,2s 4,1.791, 4,4S 8.209,10, 6,10z"></path></g></svg>