<?xml version="1.0" encoding="utf-8"?> <!-- Generator: IcoMoon.io --> <!DOCTYPE svg PUBLIC "-//W3C//DTD SVG 1.1//EN" "http://www.w3.org/Graphics/SVG/1.1/DTD/svg11.dtd"> <svg fill="#333333" xmlns:xlink="http://www.w3.org/1999/xlink" xmlns="http://www.w3.org/2000/svg" width="16" height="16" viewBox="0 0 16 16"><g><path d="M 13.5,11c-0.706,0-1.343,0.293-1.797,0.763L 4.968,8.396C 4.989,8.267, 5,8.135, 5,8 s-0.011-0.267-0.032-0.396l 6.734-3.367C 12.158,4.707, 12.794,5, 13.5,5c 1.381,0, 2.5-1.119, 2.5-2.5S 14.881,0, 13.5,0 s-2.5,1.119-2.5,2.5c0,0.135, 0.011,0.267, 0.032,0.396L 4.297,6.263C 3.842,5.793, 3.206,5.5, 2.5,5.5c-1.381,0-2.5,1.119-2.5,2.5 c0,1.381, 1.119,2.5, 2.5,2.5c 0.706,0, 1.343-0.293, 1.797-0.763l 6.734,3.367C 11.011,13.233, 11,13.365, 11,13.5 c0,1.381, 1.119,2.5, 2.5,2.5s 2.5-1.119, 2.5-2.5C 16,12.119, 14.881,11, 13.5,11z"></path></g></svg>