<?xml version="1.0" encoding="utf-8"?> <!-- Generator: IcoMoon.io --> <!DOCTYPE svg PUBLIC "-//W3C//DTD SVG 1.1//EN" "http://www.w3.org/Graphics/SVG/1.1/DTD/svg11.dtd"> <svg fill="#333333" xmlns:xlink="http://www.w3.org/1999/xlink" xmlns="http://www.w3.org/2000/svg" width="16" height="16" viewBox="0 0 16 16"><g><path d="M 8,0 C 3.645,0 0.102,3.481 0.002,7.812 C 0.095,4.033 2.969,1 6.5,1 C 10.090,1 13,4.134 13,8 C 13,8.828 13.672,9.5 14.5,9.5 C 15.328,9.5 16,8.828 16,8 C 16,3.582 12.418,0 8,0 ZM 8,16 C 12.355,16 15.898,12.519 15.998,8.188 C 15.905,11.967 13.031,15 9.5,15 C 5.91,15 3,11.866 3,8 C 3,7.172 2.328,6.5 1.5,6.5 C 0.672,6.5 0,7.172 0,8 C 0,12.418 3.582,16 8,16 Z"></path></g></svg>