<?xml version="1.0" encoding="utf-8"?> <!-- Generator: IcoMoon.io --> <!DOCTYPE svg PUBLIC "-//W3C//DTD SVG 1.1//EN" "http://www.w3.org/Graphics/SVG/1.1/DTD/svg11.dtd"> <svg fill="#333333" xmlns:xlink="http://www.w3.org/1999/xlink" xmlns="http://www.w3.org/2000/svg" width="16" height="16" viewBox="0 0 16 16"><g><path d="M 8,0C 3.582,0,0,3.582,0,8s 3.582,8, 8,8s 8-3.582, 8-8S 12.418,0, 8,0z M 5,8 c0-1.657, 1.343-3, 3-3s 3,1.343, 3,3s-1.343,3-3,3S 5,9.657, 5,8z M 14.468,10.679L 14.468,10.679l-2.772-1.148 C 11.892,9.059, 12,8.542, 12,8s-0.108-1.059-0.304-1.531l 1.908-0.79l 0.864-0.358C 14.811,6.146, 15,7.051, 15,8 C 15,8.949, 14.811,9.854, 14.468,10.679L 14.468,10.679z M 10.679,1.532L 10.679,1.532L 10.679,1.532l-1.148,2.772 C 9.059,4.108, 8.542,4, 8,4s-1.059,0.108-1.531,0.304l-0.538-1.3l-0.61-1.472C 6.146,1.189, 7.051,1, 8,1 C 8.949,1, 9.854,1.189, 10.679,1.532z M 1.532,5.321l 1.472,0.61l 1.3,0.538C 4.108,6.941, 4,7.458, 4,8 s 0.108,1.059, 0.304,1.531l-2.772,1.148C 1.189,9.854, 1,8.949, 1,8C 1,7.051, 1.189,6.146, 1.532,5.321z M 5.321,14.468l 0.358-0.864l 0.79-1.908C 6.941,11.892, 7.458,12, 8,12s 1.059-0.108, 1.531-0.304l 1.148,2.772l0,0l0,0 C 9.854,14.811, 8.949,15, 8,15C 7.051,15, 6.146,14.811, 5.321,14.468z"></path></g></svg>