<?xml version="1.0" encoding="utf-8"?> <!-- Generator: IcoMoon.io --> <!DOCTYPE svg PUBLIC "-//W3C//DTD SVG 1.1//EN" "http://www.w3.org/Graphics/SVG/1.1/DTD/svg11.dtd"> <svg fill="#333333" xmlns:xlink="http://www.w3.org/1999/xlink" xmlns="http://www.w3.org/2000/svg" width="16" height="16" viewBox="0 0 16 16"><g><path d="M 14.497,0L 9.988,0 c-0.827,0-1.981,0.478-2.566,1.063L 0.438,8.047c-0.585,0.585-0.585,1.541,0,2.126 l 5.389,5.389c 0.585,0.585, 1.541,0.585, 2.125,0l 6.984-6.984C 15.522,7.993, 16,6.838, 16,6.012L 16,1.503 C 16,0.676, 15.324,0, 14.497,0z M 12.5,5c-0.828,0-1.5-0.672-1.5-1.5s 0.672-1.5, 1.5-1.5s 1.5,0.672, 1.5,1.5S 13.328,5, 12.5,5z"></path></g></svg>