<?xml version="1.0" encoding="utf-8"?> <!-- Generator: IcoMoon.io --> <!DOCTYPE svg PUBLIC "-//W3C//DTD SVG 1.1//EN" "http://www.w3.org/Graphics/SVG/1.1/DTD/svg11.dtd"> <svg fill="#333333" xmlns:xlink="http://www.w3.org/1999/xlink" xmlns="http://www.w3.org/2000/svg" width="16.875" height="16" viewBox="0 0 16.875 16"><g><path d="M 15.5,1L 12,1 c-0.825,0-1.977,0.477-2.561,1.061L 3.561,7.939c-0.583,0.583-0.583,1.538,0,2.121l 4.379,4.379 c 0.583,0.583, 1.538,0.583, 2.121,0l 5.879-5.879C 16.523,7.977, 17,6.825, 17,6L 17,2.5 C 17,1.675, 16.325,1, 15.5,1z M 13.5,6 c-0.828,0-1.5-0.672-1.5-1.5s 0.672-1.5, 1.5-1.5s 1.5,0.672, 1.5,1.5S 14.328,6, 13.5,6zM 1.354,9.354 L 6.703,14.703 C 6.137,15.003 5.415,14.915 4.939,14.439 L 0.561,10.061 C -0.023,9.477 -0.023,8.523 0.561,7.939 L 6.439,2.061 C 7.023,1.477 8.175,1 9,1 L 1.354,8.646 C 1.159,8.841 1.159,9.159 1.354,9.354 Z"></path></g></svg>