<?xml version="1.0" encoding="utf-8"?> <!-- Generator: IcoMoon.io --> <!DOCTYPE svg PUBLIC "-//W3C//DTD SVG 1.1//EN" "http://www.w3.org/Graphics/SVG/1.1/DTD/svg11.dtd"> <svg fill="#333333" xmlns:xlink="http://www.w3.org/1999/xlink" xmlns="http://www.w3.org/2000/svg" width="16" height="16" viewBox="0 0 16 16"><g><path d="M 14.5,9 C 15.641,9 15,12 14,12 C 14.5,12 14,14.5 13,14.5 C 13,15.5 12,16 11,16 C 6.776,16 8.261,14.943 4,14.5 L 4,6.5 C 7.764,5.371 11.5,2.54 11.5,0 C 12.328,0 14.5,1 11.5,6 C 11.5,6 14,6 14.5,6 C 16,6 15.5,9 14.5,9 ZM 3,6.5 L 3,14.5 L 4,14.5 L 4,15 L 2,15 C 1.45,15 1,14.325 1,13.5 L 1,7.5 C 1,6.675 1.45,6 2,6 L 4,6 L 4,6.5 L 3,6.5 Z"></path></g></svg>