<?xml version="1.0" encoding="utf-8"?> <!-- Generator: IcoMoon.io --> <!DOCTYPE svg PUBLIC "-//W3C//DTD SVG 1.1//EN" "http://www.w3.org/Graphics/SVG/1.1/DTD/svg11.dtd"> <svg fill="#333333" xmlns:xlink="http://www.w3.org/1999/xlink" xmlns="http://www.w3.org/2000/svg" width="16" height="16" viewBox="0 0 16 16"><g><path d="M 1.5,7 C 0.359,7 1,4 2,4 C 1.5,4 2,1.5 3,1.5 C 3,0.5 4,0 5,0 C 9.224,0 7.739,1.057 12,1.5 L 12,9.5 C 8.236,10.629 4.5,13.46 4.5,16 C 3.672,16 1.5,15 4.5,10 C 4.5,10 2,10 1.5,10 C 0,10 0.5,7 1.5,7 ZM 13,9.5 L 13,1.5 L 12,1.5 L 12,1 L 14,1 C 14.55,1 15,1.675 15,2.5 L 15,8.5 C 15,9.325 14.55,10 14,10 L 12,10 L 12,9.5 L 13,9.5 Z"></path></g></svg>