<?xml version="1.0" encoding="utf-8"?> <!-- Generator: IcoMoon.io --> <!DOCTYPE svg PUBLIC "-//W3C//DTD SVG 1.1//EN" "http://www.w3.org/Graphics/SVG/1.1/DTD/svg11.dtd"> <svg fill="#333333" xmlns:xlink="http://www.w3.org/1999/xlink" xmlns="http://www.w3.org/2000/svg" width="16" height="16" viewBox="0 0 16 16"><g><path d="M 15.25,12l-0.25,0 L 15,8.75 c0-0.965-0.785-1.75-1.75-1.75L 9,7 l0-2 l 0.25,0 c 0.412,0, 0.75-0.338, 0.75-0.75L 10,1.75 c0-0.412-0.338-0.75-0.75-0.75l-2.5,0 c-0.412,0-0.75,0.338-0.75,0.75l0,2.5 c0,0.412, 0.338,0.75, 0.75,0.75l 0.25,0 l0,2 L 2.75,7 c-0.965,0-1.75,0.785-1.75,1.75l0,3.25 l-0.25,0 c-0.412,0-0.75,0.338-0.75,0.75l0,2.5 c0,0.412, 0.338,0.75, 0.75,0.75l 2.5,0 c 0.412,0, 0.75-0.338, 0.75-0.75l0-2.5 c0-0.412-0.338-0.75-0.75-0.75l-0.25,0 l0-3 l 4,0 l0,3 l-0.25,0 c-0.412,0-0.75,0.338-0.75,0.75l0,2.5 c0,0.412, 0.338,0.75, 0.75,0.75l 2.5,0 c 0.412,0, 0.75-0.338, 0.75-0.75l0-2.5 c0-0.412-0.338-0.75-0.75-0.75l-0.25,0 l0-3 l 4,0 l0,3 l-0.25,0 c-0.412,0-0.75,0.338-0.75,0.75l0,2.5 c0,0.412, 0.338,0.75, 0.75,0.75l 2.5,0 c 0.412,0, 0.75-0.338, 0.75-0.75l0-2.5 C 16,12.338, 15.662,12, 15.25,12z M 3,15L 1,15 l0-2 l 2,0 L 3,15 z M 9,15l-2,0 l0-2 l 2,0 L 9,15 z M 7,4L 7,2 l 2,0 l0,2 L 7,4 z M 15,15l-2,0 l0-2 l 2,0 L 15,15 z"></path></g></svg>