<?xml version="1.0" encoding="utf-8"?> <!-- Generator: IcoMoon.io --> <!DOCTYPE svg PUBLIC "-//W3C//DTD SVG 1.1//EN" "http://www.w3.org/Graphics/SVG/1.1/DTD/svg11.dtd"> <svg fill="#333333" xmlns:xlink="http://www.w3.org/1999/xlink" xmlns="http://www.w3.org/2000/svg" width="16" height="16" viewBox="0 0 16 16"><g><path d="M 13.334,0L 2.667,0 C 1.2,0, 0,1.2, 0,2.667l0,10.666 C 0,14.801, 1.2,16, 2.667,16L 13.334,16 C 14.801,16, 16,14.801, 16,13.333L 16,2.667 C 16,1.2, 14.801,0, 13.334,0z M 11.433,12.886 c-0.471,0.222-0.899,0.378-1.281,0.468c-0.383,0.089-0.796,0.134-1.241,0.134c-0.505,0-0.803-0.063-1.19-0.19 c-0.388-0.128-0.719-0.31-0.992-0.545c-0.274-0.236-0.464-0.487-0.57-0.753c-0.106-0.266-0.159-0.651-0.159-1.156L 6,6.971 l-1.5,0 l0-1.564 c 0.433-0.141, 0.936-0.343, 1.245-0.605c 0.31-0.264, 0.558-0.579, 0.745-0.948 c 0.188-0.368, 0.316-0.838, 0.387-1.407l 1.57,0 L 8.447,5 L 11,5 l0,1.971 l-2.553,0 l0,2.831 c0,0.641-0.008,1.010, 0.060,1.191 c 0.067,0.181, 0.236,0.368, 0.42,0.477c 0.245,0.146, 0.523,0.22, 0.838,0.22c 0.559,0, 1.115-0.182, 1.668-0.545L 11.433,12.886 L 11.433,12.886z"></path></g></svg>