<?xml version="1.0" encoding="utf-8"?> <!-- Generator: IcoMoon.io --> <!DOCTYPE svg PUBLIC "-//W3C//DTD SVG 1.1//EN" "http://www.w3.org/Graphics/SVG/1.1/DTD/svg11.dtd"> <svg fill="#333333" xmlns:xlink="http://www.w3.org/1999/xlink" xmlns="http://www.w3.org/2000/svg" width="16" height="16" viewBox="0 0 16 16"><g><path d="M 12,1l-2,0 c-1.654,0-3,1.346-3,3l0,3 L 0.75,7 c-0.412,0-0.75,0.338-0.75,0.75l0,7.5 c0,0.412, 0.338,0.75, 0.75,0.75l 8.5,0 c 0.412,0, 0.75-0.338, 0.75-0.75L 10,7.75 c0-0.412-0.338-0.75-0.75-0.75l-0.25,0 l0-3 c0-0.551, 0.449-1, 1-1l 2,0 c 0.551,0, 1,0.449, 1,1l0,3 l 2,0 l0-3 C 15,2.346, 13.654,1, 12,1z M 6,14l-2,0 l 0.435-2.175C 4.172,11.645, 4,11.343, 4,11c0-0.552, 0.448-1, 1-1c 0.552,0, 1,0.448, 1,1 c0,0.343-0.172,0.645-0.435,0.825L 6,14z"></path></g></svg>