<?xml version="1.0" encoding="utf-8"?> <!-- Generator: IcoMoon.io --> <!DOCTYPE svg PUBLIC "-//W3C//DTD SVG 1.1//EN" "http://www.w3.org/Graphics/SVG/1.1/DTD/svg11.dtd"> <svg fill="#333333" xmlns:xlink="http://www.w3.org/1999/xlink" xmlns="http://www.w3.org/2000/svg" width="16" height="16" viewBox="0 0 16 16"><g><path d="M 11.484,12.584c-0.296-0.047-0.303-0.854-0.303-0.854s 0.87-0.854, 1.060-2.002 c 0.51,0, 0.825-1.221, 0.315-1.65c 0.021-0.452, 0.656-3.55-2.556-3.55c-3.212,0-2.577,3.097-2.556,3.55 c-0.51,0.43-0.195,1.65, 0.315,1.65c 0.19,1.148, 1.060,2.002, 1.060,2.002s-0.007,0.807-0.303,0.854 C 7.562,12.734, 4,14.292, 4,16l 6,0 l 6,0 C 16,14.292, 12.438,12.734, 11.484,12.584zM 5.376,12.856c 0.689-0.424, 1.525-0.817, 2.212-1.054c-0.246-0.35-0.52-0.827-0.693-1.392 c-0.241-0.196-0.437-0.477-0.562-0.822c-0.126-0.345-0.174-0.732-0.135-1.089c 0.028-0.256, 0.101-0.495, 0.213-0.705 c-0.068-0.728-0.116-2.157, 0.82-3.199c 0.363-0.404, 0.821-0.695, 1.37-0.87C 8.503,2.715, 7.989,1.528, 6,1.528 c-3.212,0-2.577,3.097-2.556,3.55c-0.51,0.43-0.195,1.65, 0.315,1.65c 0.19,1.148, 1.060,2.002, 1.060,2.002 s-0.007,0.807-0.303,0.854C 3.562,9.734,0,11.292,0,13l 5.15,0 C 5.224,12.952, 5.298,12.904, 5.376,12.856z"></path></g></svg>