<?xml version="1.0" encoding="utf-8"?> <!-- Generator: IcoMoon.io --> <!DOCTYPE svg PUBLIC "-//W3C//DTD SVG 1.1//EN" "http://www.w3.org/Graphics/SVG/1.1/DTD/svg11.dtd"> <svg fill="#333333" xmlns:xlink="http://www.w3.org/1999/xlink" xmlns="http://www.w3.org/2000/svg" width="16" height="16" viewBox="0 0 16 16"><g><path d="M 9.732,10.98c-0.345-0.055-0.353-1.005-0.353-1.005s 1.015-1.005, 1.236-2.356 c 0.595,0, 0.963-1.437, 0.368-1.942C 11.007,5.145, 11.747,1.5, 8,1.5c-3.747,0-3.007,3.645-2.982,4.177 c-0.595,0.505-0.228,1.942, 0.368,1.942c 0.221,1.351, 1.236,2.356, 1.236,2.356s-0.008,0.95-0.353,1.005 C 5.155,11.157, 1,12.99, 1,15l 7,0 l 7,0 C 15,12.99, 10.845,11.157, 9.732,10.98z"></path></g></svg>