<?xml version="1.0" encoding="utf-8"?> <!-- Generator: IcoMoon.io --> <!DOCTYPE svg PUBLIC "-//W3C//DTD SVG 1.1//EN" "http://www.w3.org/Graphics/SVG/1.1/DTD/svg11.dtd"> <svg fill="#333333" xmlns:xlink="http://www.w3.org/1999/xlink" xmlns="http://www.w3.org/2000/svg" width="16" height="16" viewBox="0 0 16 16"><g><path d="M 4,3L 2,1L 1,1L 1,2L 3,4 zM 5,0L 6,0L 6,2L 5,2zM 9,5L 11,5L 11,6L 9,6zM 10,2L 10,1L 9,1L 7,3L 8,4 zM0,5L 2,5L 2,6L0,6zM 5,9L 6,9L 6,11L 5,11zM 1,9L 1,10L 2,10L 4,8L 3,7 zM 15.781,13.781L 5.842,3.842c-0.292-0.292-0.769-0.292-1.061,0L 3.842,4.781c-0.292,0.292-0.292,0.769,0,1.061L 13.781,15.781 c 0.292,0.292, 0.769,0.292, 1.061,0L 15.781,14.842C 16.073,14.55, 16.073,14.073, 15.781,13.781z M 7.5,8.5l-3-3l 1-1l 3,3L 7.5,8.5z"></path></g></svg>