<?xml version="1.0" encoding="utf-8"?>
<!-- Generator: IcoMoon.io  -->
<!DOCTYPE svg PUBLIC "-//W3C//DTD SVG 1.1//EN" "http://www.w3.org/Graphics/SVG/1.1/DTD/svg11.dtd">
<svg fill="#333333" xmlns="http://www.w3.org/2000/svg" class="metadata" data-author="Keyamoon" data-authorlink="http://keyamoon.com/" data-license="CC BY 3.0" data-licenselink="http://creativecommons.org/licenses/by/3.0/" width="496" height="272" viewBox="0 0 496 272" data-tags="forward, arrow, right" style="margin-left: 8px; margin-top: 8px;"><path d="M 131.070,512C 74.206,408.984, 64.625,251.848, 288,257.088L 288,384 l 192-192L 288,0L 288,124.186 C 20.52,117.215 -9.286,360.293, 131.070,512z" transform="scale(0.03125 0.03125)"></path><path d="M 48,9.5L 45,6.5L 45,2L 43,2L 43,4.5L 40,1.5L 32,9.5L 32,10L 34,10L 34,15L 39,15L 39,12L 41,12L 41,15L 46,15L 46,10L 48,10 z"></path><path d="M 64,16l 8,0 L 72,0 L 64,0 L 64,16 z M 69,2l 2,0 l0,2 l-2,0 L 69,2 z M 69,6l 2,0 l0,2 l-2,0 L 69,6 z M 69,10l 2,0 l0,2 l-2,0 L 69,10 z M 65,2l 2,0 l0,2 L 65,4 L 65,2 z M 65,6
			l 2,0 l0,2 L 65,8 L 65,6 z M 65,10l 2,0 l0,2 L 65,12 L 65,10 zM 73,5L 80,5L 80,6L 73,6zM 73,16L 75,16L 75,12L 78,12L 78,16L 80,16L 80,7L 73,7 		z"></path><path d="M 110,4L 110,2 L 96,2 l0,11 c0,0.552, 0.448,1, 1,1l 13.5,0 c 0.828,0, 1.5-0.672, 1.5-1.5L 112,4 L 110,4 z M 109,13L 97,13 L 97,3 l 12,0 L 109,13 zM 98,5L 108,5L 108,6L 98,6zM 104,7L 108,7L 108,8L 104,8zM 104,9L 108,9L 108,10L 104,10zM 104,11L 107,11L 107,12L 104,12zM 98,7L 103,7L 103,12L 98,12z"></path><path d="M 141.5,0 C 142.881,0 144,1.119 144,2.5 C 144,3.063 143.814,3.582 143.5,4 L 142.5,5 L 139,1.5 L 140,0.5 C 140.418,0.186 140.937,0 141.5,0 ZM 129,11.5L 128,16l 4.5-1l 9.25-9.25L 138.25,2.25L 129,11.5z M 139.181,5.681l-7,7l-0.862-0.862l 7-7L 139.181,5.681z"></path><path d="M 160,2l0,13 l 16,0 L 176,2 L 160,2 z M 175,14L 161,14 L 161,3 l 14,0 L 175,14 zM 171,5.5A1.5,1.5 2520 1 0 174,5.5A1.5,1.5 2520 1 0 171,5.5zM 174,13 L 162,13 L 165,5 L 169,10 L 171,8.5 Z"></path><path d="M 196.75,9.5c0,1.795, 1.455,3.25, 3.25,3.25s 3.25-1.455, 3.25-3.25s-1.455-3.25-3.25-3.25S 196.75,7.705, 196.75,9.5z M 207,4L 203.5,4 
	c-0.25-1-0.5-2-1.5-2L 198,2 c-1,0-1.25,1-1.5,2L 193,4 c-0.55,0-1,0.45-1,1l0,9 c0,0.55, 0.45,1, 1,1l 14,0 c 0.55,0, 1-0.45, 1-1L 208,5 
	C 208,4.45, 207.55,4, 207,4z M 200,13.938c-2.451,0-4.438-1.987-4.438-4.438c0-2.451, 1.987-4.438, 4.438-4.438c 2.451,0, 4.438,1.987, 4.438,4.438
	C 204.438,11.951, 202.451,13.938, 200,13.938z M 207,7l-2,0 l0-1 l 2,0 L 207,7 z"></path><path d="M 229,3 L 240,0 L 240,1 L 240,3 L 240,11.5 C 240,12.881 238.433,14 236.5,14 C 234.567,14 233,12.881 233,11.5 C 233,10.119 234.567,9 236.5,9 C 237.037,9 237.545,9.086 238,9.241 L 238,4.091 L 231,6 L 231,13.5 C 231,14.881 229.433,16 227.5,16 C 225.567,16 224,14.881 224,13.5 C 224,12.119 225.567,11 227.5,11 C 228.037,11 228.545,11.086 229,11.241 L 229,6 L 229,3 Z"></path><path d="M 256,2l0,12 l 16,0 L 272,2 L 256,2 z M 259,13L 257,13 l0-2 l 2,0 L 259,13 z M 259,9L 257,9 l0-2 l 2,0 L 259,9 z M 259,5L 257,5 L 257,3 l 2,0 L 259,5 z M 268,13L 260,13 L 260,3 l 8,0 L 268,13 z
		 M 271,13l-2,0 l0-2 l 2,0 L 271,13 z M 271,9l-2,0 l0-2 l 2,0 L 271,9 z M 271,5l-2,0 L 269,3 l 2,0 L 271,5 zM 262,5L 262,11L 266,8 	z"></path><path d="M 301.5,3L 293.5,3 c-1.375,0-2.5,1.125-2.5,2.5l0,8 c0,1.375, 1.125,2.5, 2.5,2.5l 8,0 c 1.375,0, 2.5-1.125, 2.5-2.5L 304,5.5 C 304,4.125, 302.875,3, 301.5,3z M 294.5,14
	c-0.828,0-1.5-0.672-1.5-1.5s 0.672-1.5, 1.5-1.5s 1.5,0.672, 1.5,1.5S 295.328,14, 294.5,14z M 294.5,8c-0.828,0-1.5-0.672-1.5-1.5s 0.672-1.5, 1.5-1.5
	s 1.5,0.672, 1.5,1.5S 295.328,8, 294.5,8z M 297.5,11c-0.828,0-1.5-0.672-1.5-1.5s 0.672-1.5, 1.5-1.5s 1.5,0.672, 1.5,1.5S 298.328,11, 297.5,11z M 300.5,14
	c-0.828,0-1.5-0.672-1.5-1.5s 0.672-1.5, 1.5-1.5s 1.5,0.672, 1.5,1.5S 301.328,14, 300.5,14z M 300.5,8c-0.828,0-1.5-0.672-1.5-1.5s 0.672-1.5, 1.5-1.5
	s 1.5,0.672, 1.5,1.5S 301.328,8, 300.5,8z M 300.949,2C 300.716,0.862, 299.704,0, 298.5,0L 290.5,0 C 289.125,0, 288,1.125, 288,2.5l0,8 
	c0,1.204, 0.862,2.216, 2,2.449L 290,3 c0-0.55, 0.45-1, 1-1L 300.949,2 z"></path><path d="M 336,6.707c0-3.139-0.919-5.687-2.054-5.707c 0.005,0, 0.009,0, 0.014,0l-1.296,0 
	c0,0-3.044,2.287-7.425,3.184c-0.134,0.708-0.219,1.551-0.219,2.523c0,0.972, 0.085,1.816, 0.219,2.523
	c 4.382,0.897, 7.425,3.184, 7.425,3.184l 1.296,0 c-0.005,0-0.009,0-0.014-0.001C 335.081,12.394, 336,9.847, 336,6.707
	z M 333.513,11.551c-0.147,0-0.305-0.152-0.387-0.243c-0.197-0.22-0.387-0.562-0.55-0.99
	c-0.363-0.957-0.564-2.239-0.564-3.611c0-1.372, 0.2-2.655, 0.564-3.611c 0.162-0.428, 0.353-0.77, 0.55-0.99
	c 0.081-0.091, 0.24-0.243, 0.387-0.243c 0.147,0, 0.305,0.152, 0.387,0.243c 0.197,0.22, 0.387,0.562, 0.55,0.99
	c 0.363,0.957, 0.564,2.239, 0.564,3.611c0,1.372-0.2,2.655-0.564,3.611c-0.162,0.428-0.353,0.77-0.55,0.99
	C 333.818,11.399, 333.659,11.551, 333.513,11.551z M 323.935,6.707c0-0.812, 0.060-1.6, 0.173-2.33
	c-0.74,0.102-1.39,0.161-2.193,0.161c-1.048,0-1.048,0-1.048,0L 320,6.018l0,1.378 l 0.867,1.479c0,0,0,0, 1.048,0
	c 0.803,0, 1.453,0.059, 2.193,0.161C 323.994,8.308, 323.935,7.519, 323.935,6.707z M 325.752,10.034l-2-0.383
	l 1.279,5.024c 0.066,0.26, 0.324,0.391, 0.573,0.291l 1.852-0.741c 0.249-0.1, 0.349-0.374, 0.222-0.611L 325.752,10.034zM 333.513,8.574c-0.057,0-0.118-0.059-0.149-0.094c-0.076-0.085-0.149-0.217-0.212-0.381
	c-0.14-0.369-0.217-0.863-0.217-1.392c0-0.529, 0.077-1.023, 0.217-1.392c 0.063-0.165, 0.136-0.297, 0.212-0.381
	c 0.031-0.035, 0.092-0.094, 0.149-0.094c 0.057,0, 0.118,0.059, 0.149,0.094c 0.076,0.085, 0.149,0.217, 0.212,0.381
	c 0.14,0.369, 0.217,0.863, 0.217,1.392c0,0.529-0.077,1.023-0.217,1.392c-0.063,0.165-0.136,0.297-0.212,0.381
	C 333.631,8.515, 333.569,8.574, 333.513,8.574z"></path><path d="M 366,2l0,13 L 355.5,15 c-0.828,0-1.5-0.672-1.5-1.5c0-0.828, 0.672-1.5, 1.5-1.5l 9.5,0 L 365,0 L 355,0 C 353.9,0, 353,0.9, 353,2l0,12 
		c0,1.1, 0.9,2, 2,2l 12,0 L 367,2 L 366,2 zM 356,13L 365,13L 365,14L 356,14z"></path><path d="M 393.004,4.52L 396.796,3.247L 399.977,12.728L 396.185,14.001zM 384,14l 4,0 L 388,3 L 384,3 L 384,14 z M 385,5l 2,0 l0,1 L 385,6 L 385,5 zM 389,14l 4,0 L 393,3 L 389,3 L 389,14 z M 390,5l 2,0 l0,1 l-2,0 L 390,5 z"></path><path d="M 424,0L 416,5l 16,0 L 424,0z M 428.5,6l 0.5,1l0,6 l 2,0 L 431,7 l 0.5-1L 428.5,6 z M 424.5,6l 0.5,1l0,6 l 2,0 L 427,7 l 0.5-1L 424.5,6 z M 420.5,6l 0.5,1l0,6 l 2,0 
	L 423,7 l 0.5-1L 420.5,6 z M 416.5,6l 0.5,1l0,6 l 2,0 L 419,7 l 0.5-1L 416.5,6 z M 416.5,14L 416,16l 16,0 l-0.5-2L 416.5,14 z M 425,3c0,0.552-0.448,1-1,1
	c-0.552,0-1-0.448-1-1s 0.448-1, 1-1C 424.552,2, 425,2.448, 425,3z"></path><path d="M 461.939,2.939l-1.879-1.879C 459.477,0.477, 458.325,0, 457.5,0L 450.5,0 C 449.675,0, 449,0.675, 449,1.5l0,13 c0,0.825, 0.675,1.5, 1.5,1.5l 11,0 
	c 0.825,0, 1.5-0.675, 1.5-1.5L 463,5.5 C 463,4.675, 462.523,3.523, 461.939,2.939z M 458,2.118c 0.034,0.013, 0.070,0.026, 0.106,0.041
	c 0.282,0.117, 0.478,0.253, 0.541,0.316l 1.879,1.879c 0.063,0.063, 0.199,0.259, 0.316,0.541c 0.015,0.036, 0.029,0.071, 0.041,0.106
	L 458,5 L 458,2.118 z M 461,14L 451,14 L 451,2 l 6,0 l0,4 l 4,0 L 461,14 zM 452,8L 460,8L 460,9L 452,9zM 452,10L 460,10L 460,11L 452,11zM 452,12L 460,12L 460,13L 452,13z"></path><path d="M 491,2l-2,0 L 489,1 c0-0.55-0.45-1-1-1l-2,0 c-0.55,0-1,0.45-1,1l0,1 L 483,2 l0,2 l 8,0 L 491,2 z M 488,2l-2,0 L 486,1.002 
		c 0.001-0.001, 0.001-0.001, 0.002-0.002l 1.996,0 c 0.001,0.001, 0.001,0.001, 0.002,0.002L 488,2 zM 493,5L 493,2.5 c0-0.275-0.225-0.5-0.5-0.5l-1,0 l0,1 l 0.5,0 l0,2 L 486,5 l0,7 L 482,12 L 482,3 l 0.5,0 L 482.5,2 L 481.5,2 c-0.275,0-0.5,0.225-0.5,0.5l0,10 c0,0.275, 0.225,0.5, 0.5,0.5l 4.5,0 
		l0,3 l 7,0 l 3-3L 496,5 L 493,5 z M 493,14.586L 493,13 l 1.586,0 L 493,14.586z M 495,12l-3,0 l0,3 L 487,15 L 487,6 l 8,0 L 495,12 z"></path><path d="M 13,37L 13,34.5 c0-0.275-0.225-0.5-0.5-0.5L 9,34 L 9,33 c0-0.55-0.45-1-1-1l-2,0 c-0.55,0-1,0.45-1,1l0,1 L 1.5,34 c-0.275,0-0.5,0.225-0.5,0.5l0,10 
	c0,0.275, 0.225,0.5, 0.5,0.5l 4.5,0 l0,3 l 7,0 l 3-3L 16,37 L 13,37 z M 6,33.002c 0.001-0.001, 0.001-0.001, 0.002-0.002l 1.996,0 
	c 0.001,0.001, 0.001,0.001, 0.002,0.002L 8,34 l-2,0 L 6,33.002 z M 3,36L 3,35 l 8,0 l0,1 L 3,36 z M 13,46.586L 13,45 l 1.586,0 L 13,46.586z M 15,44l-3,0 l0,3 
	L 7,47 L 7,38 l 8,0 L 15,44 z"></path><path d="M 43,34l-2,0 L 41,33 c0-0.55-0.45-1-1-1l-2,0 c-0.55,0-1,0.45-1,1l0,1 L 35,34 l0,2 l 8,0 L 43,34 z M 40,34l-2,0 L 38,33.002 
		c 0.001-0.001, 0.001-0.001, 0.002-0.002l 1.996,0 c 0.001,0.001, 0.001,0.001, 0.002,0.002L 40,34 zM 45,37L 45,34.5 c0-0.275-0.225-0.5-0.5-0.5l-1,0 l0,1 l 0.5,0 l0,2 l-3,0 l-3,3l0,4 L 34,44 L 34,35 l 0.5,0 L 34.5,34 L 33.5,34 c-0.275,0-0.5,0.225-0.5,0.5l0,10 
		c0,0.275, 0.225,0.5, 0.5,0.5l 4.5,0 l0,3 l 10,0 L 48,37 L 45,37 z M 41,38.414L 41,40 l-1.586,0 L 41,38.414z M 47,47L 39,47 L 39,41 l 3,0 l0-3 l 5,0 L 47,47 z"></path><path d="M 80,37L 72,33L 64,37l 8,4L 80,37z M 72,34.328L 77.345,37L 72,39.672L 66.655,37L 72,34.328zM 78.398,39.199 L 80,40 L 72,44 L 64,40 L 65.602,39.199 L 72,42.398 ZM 78.398,42.199 L 80,43 L 72,47 L 64,43 L 65.602,42.199 L 72,45.398 Z"></path><path d="M 96,37 L 112,37 L 111,47 L 97,47 L 96,37 Z M 110.5,35 L 111,36 L 97,36 L 98,34 L 103.5,34 L 104,35 L 110.5,35 Z"></path><path d="M 141,47L 144,39L 131,39L 128,47 zM 130,38 L 128,47 L 128,34 L 132.5,34 L 134.5,36 L 141,36 L 141,38 Z"></path><path d="M 174.497,32L 169.988,32 c-0.827,0-1.981,0.478-2.566,1.063L 160.438,40.047c-0.585,0.585-0.585,1.541,0,2.126
	l 5.389,5.389c 0.585,0.585, 1.541,0.585, 2.125,0l 6.984-6.984C 175.522,39.993, 176,38.838, 176,38.012L 176,33.503 
	C 176,32.676, 175.324,32, 174.497,32z M 172.5,37c-0.828,0-1.5-0.672-1.5-1.5s 0.672-1.5, 1.5-1.5s 1.5,0.672, 1.5,1.5S 173.328,37, 172.5,37z"></path><path d="M 207.5,33L 204,33 c-0.825,0-1.977,0.477-2.561,1.061L 195.561,39.939c-0.583,0.583-0.583,1.538,0,2.121l 4.379,4.379
	c 0.583,0.583, 1.538,0.583, 2.121,0l 5.879-5.879C 208.523,39.977, 209,38.825, 209,38L 209,34.5 C 209,33.675, 208.325,33, 207.5,33z M 205.5,38
	c-0.828,0-1.5-0.672-1.5-1.5s 0.672-1.5, 1.5-1.5s 1.5,0.672, 1.5,1.5S 206.328,38, 205.5,38zM 193.354,41.354 L 198.703,46.703 C 198.137,47.003 197.415,46.915 196.939,46.439 L 192.561,42.061 C 191.977,41.477 191.977,40.523 192.561,39.939 L 198.439,34.061 C 199.023,33.477 200.175,33 201,33 L 193.354,40.646 C 193.159,40.841 193.159,41.159 193.354,41.354 Z"></path><path d="M 229,33 L 225,33 L 225,37 L 229,37 L 229,33 Z M 230,32 L 230,32 L 230,38 L 224,38 L 224,32 L 230,32 ZM 226,34L 228,34L 228,36L 226,36zM 239,33 L 235,33 L 235,37 L 239,37 L 239,33 Z M 240,32 L 240,32 L 240,38 L 234,38 L 234,32 L 240,32 ZM 236,34L 238,34L 238,36L 236,36zM 229,43 L 225,43 L 225,47 L 229,47 L 229,43 Z M 230,42 L 230,42 L 230,48 L 224,48 L 224,42 L 230,42 ZM 226,44L 228,44L 228,46L 226,46zM 231,32L 232,32L 232,33L 231,33zM 232,33L 233,33L 233,34L 232,34zM 231,34L 232,34L 232,35L 231,35zM 232,35L 233,35L 233,36L 232,36zM 231,36L 232,36L 232,37L 231,37zM 232,37L 233,37L 233,38L 232,38zM 231,38L 232,38L 232,39L 231,39zM 231,40L 232,40L 232,41L 231,41zM 232,41L 233,41L 233,42L 232,42zM 231,42L 232,42L 232,43L 231,43zM 232,43L 233,43L 233,44L 232,44zM 231,44L 232,44L 232,45L 231,45zM 232,45L 233,45L 233,46L 232,46zM 231,46L 232,46L 232,47L 231,47zM 232,47L 233,47L 233,48L 232,48zM 239,40L 240,40L 240,41L 239,41zM 225,40L 226,40L 226,41L 225,41zM 226,39L 227,39L 227,40L 226,40zM 224,39L 225,39L 225,40L 224,40zM 228,39L 229,39L 229,40L 228,40zM 229,40L 230,40L 230,41L 229,41zM 230,39L 231,39L 231,40L 230,40zM 233,40L 234,40L 234,41L 233,41zM 234,39L 235,39L 235,40L 234,40zM 235,40L 236,40L 236,41L 235,41zM 236,39L 237,39L 237,40L 236,40zM 237,40L 238,40L 238,41L 237,41zM 238,39L 239,39L 239,40L 238,40zM 239,42L 240,42L 240,43L 239,43zM 233,42L 234,42L 234,43L 233,43zM 234,41L 235,41L 235,42L 234,42zM 235,42L 236,42L 236,43L 235,43zM 237,42L 238,42L 238,43L 237,43zM 238,41L 239,41L 239,42L 238,42zM 239,44L 240,44L 240,45L 239,45zM 233,44L 234,44L 234,45L 233,45zM 234,43L 235,43L 235,44L 234,44zM 236,43L 237,43L 237,44L 236,44zM 237,44L 238,44L 238,45L 237,45zM 238,43L 239,43L 239,44L 238,44zM 239,46L 240,46L 240,47L 239,47zM 234,45L 235,45L 235,46L 234,46zM 235,46L 236,46L 236,47L 235,47zM 236,45L 237,45L 237,46L 236,46zM 237,46L 238,46L 238,47L 237,47zM 234,47L 235,47L 235,48L 234,48zM 236,47L 237,47L 237,48L 236,48zM 238,47L 239,47L 239,48L 238,48z"></path><path d="M 263.5,33C 259.358,33, 256,36.358, 256,40.5c0,4.142, 3.358,7.5, 7.5,7.5c 4.142,0, 7.5-3.358, 7.5-7.5
		C 271,36.358, 267.642,33, 263.5,33z M 263.5,46.5c-3.314,0-6-2.686-6-6c0-3.314, 2.686-6, 6-6
		c 3.314,0, 6,2.686, 6,6C 269.5,43.814, 266.814,46.5, 263.5,46.5zM 264,40l0-2 l 2,0 l0-1 l-2,0 l0-1 l-1,0 l0,1 l-2,0 l0,4 l 2,0 l0,2 l-2,0 l0,1 l 2,0 l0,1 l 1,0 l0-1 l 2,0 l 0,0 L 266,40L 264,40 z M 263,40l-1,0 l0-2 l 1,0 L 263,40 z
	 M 265,43L 264,43 l0-2 l 1,0 L 265,43 z"></path><path d="M 296,32C 291.582,32, 288,35.582, 288,40s 3.582,8, 8,8s 8-3.582, 8-8S 300.418,32, 296,32z M 293,40
	c0-1.657, 1.343-3, 3-3s 3,1.343, 3,3s-1.343,3-3,3S 293,41.657, 293,40z M 302.468,42.679L 302.468,42.679l-2.772-1.148
	C 299.892,41.059, 300,40.542, 300,40s-0.108-1.059-0.304-1.531l 1.908-0.79l 0.864-0.358C 302.811,38.146, 303,39.051, 303,40
	C 303,40.949, 302.811,41.854, 302.468,42.679L 302.468,42.679z M 298.679,33.532L 298.679,33.532L 298.679,33.532l-1.148,2.772
	C 297.059,36.108, 296.542,36, 296,36s-1.059,0.108-1.531,0.304l-0.538-1.3l-0.61-1.472C 294.146,33.189, 295.051,33, 296,33
	C 296.949,33, 297.854,33.189, 298.679,33.532z M 289.532,37.321l 1.472,0.61l 1.3,0.538C 292.108,38.941, 292,39.458, 292,40
	s 0.108,1.059, 0.304,1.531l-2.772,1.148C 289.189,41.854, 289,40.949, 289,40C 289,39.051, 289.189,38.146, 289.532,37.321z
	 M 293.321,46.468l 0.358-0.864l 0.79-1.908C 294.941,43.892, 295.458,44, 296,44s 1.059-0.108, 1.531-0.304l 1.148,2.772l0,0l0,0
	C 297.854,46.811, 296.949,47, 296,47C 295.051,47, 294.146,46.811, 293.321,46.468z"></path><path d="M 331,42c-1,1-1,2-2,2s-2-1-3-2s-2-2-2-3s 1-1, 2-2S 324,33, 323,33S 320,36, 320,36c0,2, 2.055,6.055, 4,8
	s 6,4, 8,4c0,0, 3-2, 3-3S 332,41, 331,42z"></path><path d="M 366.5,34L 353.5,34 C 352.675,34, 352,34.675, 352,35.5l0,10 c0,0.825, 0.675,1.5, 1.5,1.5l 13,0 c 0.825,0, 1.5-0.675, 1.5-1.5L 368,35.5 C 368,34.675, 367.325,34, 366.5,34z
	 M 358.23,40.6L 354,43.895L 354,36.057 L 358.23,40.6z M 354.756,36L 365.244,36 L 360,39.938L 354.756,36z M 358.395,40.777L 360,42.5l 1.605-1.723
	L 364.895,45L 355.105,45 L 358.395,40.777z M 361.77,40.6L 366,36.057l0,7.838 L 361.77,40.6z"></path><path d="M 392.5,32l-1.5,1.5l 1.5,1.5L 389,39L 385.5,39 l 2.75,2.75L 384,47.385L 384,48 l 0.615,0 L 390.25,43.75l 2.75,2.75L 393,43 l 4-3.5l 1.5,1.5l 1.5-1.5L 392.5,32z M 391,40.5l-1-1
	l 3.5-3.5l 1,1L 391,40.5z"></path><path d="M 424,32C 421.239,32, 419,34.239, 419,37c0,5, 5,11, 5,11s 5-6, 5-11C 429,34.239, 426.761,32, 424,32z M 424,40
	c-1.657,0-3-1.343-3-3s 1.343-3, 3-3s 3,1.343, 3,3S 425.657,40, 424,40z"></path><path d="M 456,32C 451.582,32, 448,35.582, 448,40s 3.582,8, 8,8s 8-3.582, 8-8S 460.418,32, 456,32z M 456,46.5
	c-3.59,0-6.5-2.91-6.5-6.5S 452.41,33.5, 456,33.5s 6.5,2.91, 6.5,6.5S 459.59,46.5, 456,46.5zM 457.5,38.5l-4.5-2.5l-1,0 l0,1 l 2.5,4.5l 4.5,2.5l 1,0 l0-1 L 457.5,38.5z M 456,41c-0.552,0-1-0.448-1-1c0-0.552, 0.448-1, 1-1
	c 0.552,0, 1,0.448, 1,1C 457,40.552, 456.552,41, 456,41z"></path><path d="M 480,35L 485,33L 485,45L 480,47 zM 491,35 L 491,47 L 486,45.333 L 486,33.333 ZM 496,33 L 496,45 L 492,46.6 L 492,34.6 Z"></path><path d="M 9,65 C 12.866,65 16,68.134 16,72 C 16,75.866 12.866,79 9,79 L 9,77.5 C 10.469,77.5 11.85,76.928 12.889,75.889 C 13.928,74.85 14.5,73.469 14.5,72 C 14.5,70.531 13.928,69.15 12.889,68.111 C 11.85,67.072 10.469,66.5 9,66.5 C 7.531,66.5 6.15,67.072 5.111,68.111 C 4.312,68.91 3.789,69.912 3.591,71 L 6.5,71 L 3,75 L -0.5,71 L 2.071,71 C 2.557,67.608 5.474,65 9,65 ZM 12,71 L 12,73 L 8,73 L 8,68 L 10,68 L 10,71 Z"></path><path d="M 41,72.586 L 42.707,74.293 L 41.293,75.707 L 39,73.414 L 39,70 L 41,70 ZM 45,65 C 46.657,65 48,66.343 48,68 C 48,69.015 47.495,69.913 46.724,70.456 C 45.996,68.533 44.467,67.004 42.544,66.276 C 43.087,65.505 43.985,65 45,65 ZM 37.456,66.276 C 35.533,67.004 34.004,68.533 33.276,70.456 C 32.505,69.913 32,69.015 32,68 C 32,66.343 33.343,65 35,65 C 36.015,65 36.913,65.505 37.456,66.276 ZM 40,67C 36.686,67, 34,69.686, 34,73c0,1.448, 0.513,2.776, 1.367,3.813L 35,80l 1,0 l 1-1.803l0,0
		C 37.882,78.708, 38.907,79, 40,79c 1.093,0, 2.118-0.292, 3-0.803L 43,78.197L 44,80l 1,0 l-0.367-3.187
		C 45.487,75.776, 46,74.448, 46,73C 46,69.686, 43.314,67, 40,67z M 40,77c-2.209,0-4-1.791-4-4s 1.791-4, 4-4
		s 4,1.791, 4,4S 42.209,77, 40,77z"></path><path d="M 80.023,76.5c0-4.5-4-3.5-4-7c0-0.29-0.028-0.538-0.079-0.749c-0.263-1.766-1.44-3.183-2.965-3.615
	c 0.014-0.062, 0.021-0.126, 0.021-0.191C 73,64.425, 72.55,64, 72,64c-0.55,0-1,0.425-1,0.945c0,0.065, 0.007,0.129, 0.021,0.191
	c-1.71,0.484-2.983,2.208-3.020,4.273c-0.001,0.030-0.001,0.060-0.001,0.091C 68,73, 64,72, 64,76.5
	c0,1.191, 2.665,2.187, 6.234,2.439C 70.57,79.57, 71.235,80, 72,80s 1.43-0.43, 1.766-1.061
	C 77.335,78.687, 80,77.691, 80,76.5c0-0.0040-0.0070-0.011L 80.023,76.5z M 76.91,77.345
	c-0.847,0.226-1.846,0.389-2.918,0.479C 73.903,76.802, 73.045,76, 72,76s-1.903,0.802-1.992,1.824
	c-1.072-0.090-2.071-0.253-2.918-0.479C 65.924,77.034, 65.366,76.686, 65.162,76.5c 0.204-0.186, 0.762-0.534, 1.928-0.845
	C 68.446,75.293, 70.189,75.094, 72,75.094s 3.554,0.199, 4.91,0.561c 1.166,0.311, 1.724,0.659, 1.928,0.845
	C 78.634,76.686, 78.076,77.034, 76.91,77.345z"></path><path d="M 101,70L 103,70L 103,72L 101,72zM 104,70L 106,70L 106,72L 104,72zM 107,70L 109,70L 109,72L 107,72zM 98,76L 100,76L 100,78L 98,78zM 101,76L 103,76L 103,78L 101,78zM 104,76L 106,76L 106,78L 104,78zM 101,73L 103,73L 103,75L 101,75zM 104,73L 106,73L 106,75L 104,75zM 107,73L 109,73L 109,75L 107,75zM 98,73L 100,73L 100,75L 98,75zM 109,64l0,1 l-2,0 L 107,64 L 100,64 l0,1 L 98,65 L 98,64 L 96,64 l0,16 l 15,0 L 111,64 L 109,64 z M 110,79L 97,79 L 97,68 l 13,0 L 110,79 z"></path><path d="M 142,66l-1.5,0 l0,0.5 c0,0.551-0.449,1-1,1s-1-0.449-1-1L 138.5,66 L 133.5,66 l0,0.5 c0,0.551-0.449,1-1,1s-1-0.449-1-1L 131.5,66 L 130,66 
		c-0.55,0-1,0.45-1,1l0,11 c0,0.55, 0.45,1, 1,1l 12,0 c 0.55,0, 1-0.45, 1-1L 143,67 C 143,66.45, 142.55,66, 142,66z M 142,77.998
		c-0.001,0.001-0.001,0.001-0.002,0.002L 130.002,78 c-0.001-0.001-0.001-0.001-0.002-0.002L 130,69 l 12,0 L 142,77.998 zM 132.5,67c 0.276,0, 0.5-0.224, 0.5-0.5L 133,64.5 c0-0.276-0.224-0.5-0.5-0.5s-0.5,0.224-0.5,0.5l0,2 C 132,66.776, 132.224,67, 132.5,67zM 139.5,67c 0.276,0, 0.5-0.224, 0.5-0.5L 140,64.5 c0-0.276-0.224-0.5-0.5-0.5s-0.5,0.224-0.5,0.5l0,2 C 139,66.776, 139.224,67, 139.5,67zM 137,70L 132,70L 132,71L 136,71L 136,73L 132,73L 132,74L 136,74L 136,76L 132,76L 132,77L 137,77 	zM 139,77L 140,77L 140,70L 138,70L 138,71L 139,71 	zM 141.625,79.375L 130.375,79.375 c-0.55,0-1-0.325-1-0.875l0,0.5 c0,0.55, 0.45,1, 1,1l 11.25,0 c 0.55,0, 1-0.45, 1-1l0-0.5 C 142.625,79.050, 142.175,79.375, 141.625,79.375z"></path><path d="M 164,65L 172,65L 172,67L 164,67zM 175,68L 161,68 C 160.45,68, 160,68.45, 160,69l0,5 c0,0.55, 0.45,1, 1,1l 3,0 l0,4 l 8,0 L 172,75 l 3,0 c 0.55,0, 1-0.45, 1-1L 176,69 
		C 176,68.45, 175.55,68, 175,68z M 171,78L 165,78 L 165,73 l 6,0 L 171,78 z M 175.225,69.5c0,0.4-0.325,0.725-0.725,0.725
		c-0.4,0-0.725-0.325-0.725-0.725s 0.325-0.725, 0.725-0.725C 174.9,68.775, 175.225,69.1, 175.225,69.5z"></path><path d="M 200,73L 204,69L 201,69L 201,65L 199,65L 199,69L 196,69 	zM 203.636,71.364L 202.515,72.485L 206.579,74L 200,76.453L 193.421,74L 197.485,72.485L 196.364,71.364L 192,73L 192,77L 200,80L 208,77L 208,73 	z"></path><path d="M 231,73L 233,73L 233,69L 236,69L 232,65L 228,69L 231,69 	zM 234,70.75L 234,72.292L 238.579,74L 232,76.453L 225.421,74L 230,72.292L 230,70.75L 224,73L 224,77L 232,80L 240,77L 240,73 	z"></path><path d="M 270,64L 256,64 l0,16 l 16,0 L 272,66 L 270,64z M 264,66l 2,0 l0,4 l-2,0 L 264,66 z M 270,78L 258,78 L 258,66 l 1,0 l0,5 l 9,0 L 268,66 l 1.172,0 L 270,66.828L 270,78 z"></path><path d="M 299.904,80C 301.681,76.781, 301.98,71.87, 295,72.034L 295,76 L 289,70L 295,64l0,3.881 
	C 303.359,67.663, 304.29,75.259, 299.904,80z"></path><path d="M 329,67.881L 329,64 l 6,6L 329,76L 329,72.034 C 322.020,71.87, 322.319,76.781, 324.096,80
	C 319.71,75.259, 320.641,67.663, 329,67.881z"></path><path d="M 356.096,64C 354.319,67.219, 354.020,72.13, 361,71.966L 361,68 l 6,6L 361,80L 361,76.119 C 352.641,76.337 351.71,68.741, 356.096,64z"></path><path d="M 391,76.119L 391,80 L 385,74l 6-6l0,3.966 C 397.98,72.13, 397.681,67.219, 395.904,64
	C 400.29,68.741, 399.359,76.337, 391,76.119z"></path><path d="M 424,65 C 428.418,65 432,67.91 432,71.5 C 432,75.090 428.418,78 424,78 C 423.576,78 423.159,77.973 422.753,77.921 C 421.034,79.64 418.983,79.948 417,79.993 L 417,79.572 C 418.071,79.048 419,78.092 419,77 C 419,76.848 418.988,76.698 418.966,76.552 C 417.157,75.36 416,73.54 416,71.5 C 416,67.91 419.582,65 424,65 Z"></path><path d="M 456,67 C 455.142,67 454.313,67.135 453.536,67.402 C 452.806,67.653 452.156,68.008 451.604,68.456 C 450.57,69.297 450,70.378 450,71.5 C 450,72.13 450.175,72.74 450.52,73.315 C 450.875,73.907 451.41,74.449 452.066,74.881 C 452.541,75.194 452.86,75.693 452.944,76.255 C 452.972,76.442 452.99,76.631 452.997,76.819 C 453.113,76.722 453.227,76.618 453.339,76.507 C 453.716,76.13 454.226,75.921 454.753,75.921 C 454.837,75.921 454.921,75.926 455.005,75.937 C 455.333,75.979 455.668,76 456,76 C 456.858,76 457.687,75.865 458.464,75.598 C 459.194,75.347 459.844,74.992 460.396,74.544 C 461.43,73.703 462,72.622 462,71.5 C 462,70.378 461.43,69.297 460.396,68.456 C 459.844,68.008 459.194,67.653 458.464,67.402 C 457.687,67.135 456.858,67 456,67 Z M 456,65 L 456,65 C 460.418,65 464,67.91 464,71.5 C 464,75.090 460.418,78 456,78 C 455.576,78 455.159,77.973 454.753,77.921 C 453.034,79.64 450.983,79.948 449,79.993 L 449,79.572 C 450.071,79.048 451,78.092 451,77 C 451,76.848 450.988,76.698 450.966,76.552 C 449.157,75.36 448,73.54 448,71.5 C 448,67.91 451.582,65 456,65 Z"></path><path d="M 497,78.081 C 497,78.792 497.407,79.407 498,79.709 L 498,79.958 C 497.834,79.98 497.665,79.992 497.492,79.992 C 496.43,79.992 495.471,79.547 494.793,78.832 C 494.384,78.941 493.95,79 493.5,79 C 491.015,79 489,77.209 489,75 C 489,72.791 491.015,71 493.5,71 C 495.985,71 498,72.791 498,75 C 498,75.865 497.691,76.665 497.166,77.32 C 497.060,77.551 497,77.809 497,78.081 ZM 483.604,67.456 C 482.57,68.297 482,69.378 482,70.5 C 482,71.13 482.175,71.74 482.52,72.315 C 482.875,72.907 483.41,73.449 484.066,73.881 C 484.541,74.194 484.86,74.693 484.944,75.255 C 484.972,75.442 484.99,75.631 484.997,75.819 C 485.113,75.722 485.227,75.618 485.339,75.507 C 485.716,75.13 486.226,74.921 486.753,74.921 C 486.837,74.921 486.921,74.926 487.005,74.937 C 487.332,74.979 487.667,75 487.999,75 L 487.999,77 C 487.575,77 487.159,76.973 486.753,76.921 C 485.034,78.64 482.983,78.948 481,78.993 L 481,78.572 C 482.071,78.048 483,77.092 483,76 C 483,75.848 482.988,75.698 482.966,75.552 C 481.157,74.36 480,72.54 480,70.5 C 480,66.91 483.582,64 488,64 C 492.351,64 495.89,66.822 495.997,70.336 C 495.355,70.050 494.656,69.877 493.931,69.827 C 493.751,68.951 493.221,68.127 492.396,67.456 C 491.844,67.008 491.194,66.653 490.464,66.402 C 489.687,66.135 488.858,66 488,66 C 487.142,66 486.313,66.135 485.536,66.402 C 484.806,66.653 484.156,67.008 483.604,67.456 Z"></path><path d="M 7.5,98 C 6.708,98 5.944,98.124 5.228,98.369 C 4.558,98.599 3.961,98.923 3.455,99.332 C 2.517,100.092 2,101.064 2,102.069 C 2,102.632 2.157,103.178 2.467,103.693 C 2.791,104.229 3.278,104.721 3.878,105.114 C 4.353,105.426 4.674,105.926 4.758,106.488 C 4.773,106.582 4.784,106.676 4.793,106.77 C 4.835,106.731 4.877,106.69 4.919,106.648 C 5.296,106.273 5.805,106.065 6.331,106.065 C 6.414,106.065 6.498,106.071 6.582,106.081 C 6.885,106.12 7.193,106.139 7.5,106.139 C 8.292,106.139 9.056,106.015 9.772,105.77 C 10.442,105.54 11.039,105.216 11.545,104.807 C 12.483,104.047 13,103.075 13,102.069 C 13,101.064 12.483,100.092 11.545,99.332 C 11.039,98.923 10.442,98.599 9.772,98.369 C 9.056,98.124 8.292,98 7.5,98 Z M 7.5,96 L 7.5,96 C 11.642,96 15,98.717 15,102.069 C 15,105.422 11.642,108.139 7.5,108.139 C 7.102,108.139 6.712,108.114 6.331,108.065 C 4.72,109.67 2.859,109.958 1,110 L 1,109.607 C 2.004,109.117 2.813,108.225 2.813,107.205 C 2.813,107.063 2.801,106.923 2.781,106.787 C 1.085,105.674 0,103.974 0,102.069 C 0,98.717 3.358,96 7.5,96 ZM 15.563,109.604 C 15.563,110.479 16.13,111.243 17,111.663 L 17,112 C 15.389,111.964 13.91,111.717 12.513,110.342 C 12.183,110.383 11.845,110.405 11.5,110.405 C 10.008,110.405 8.634,110.002 7.537,109.326 C 9.798,109.318 11.932,108.594 13.55,107.284 C 14.366,106.624 15.010,105.85 15.463,104.982 C 15.944,104.062 16.188,103.082 16.188,102.069 C 16.188,101.906 16.18,101.744 16.168,101.582 C 17.302,102.519 18,103.795 18,105.202 C 18,106.835 17.060,108.292 15.59,109.246 C 15.572,109.363 15.563,109.482 15.563,109.604 Z"></path><path d="M 41.732,106.98c-0.345-0.055-0.353-1.005-0.353-1.005s 1.015-1.005, 1.236-2.356
	c 0.595,0, 0.963-1.437, 0.368-1.942C 43.007,101.145, 43.747,97.5, 40,97.5c-3.747,0-3.007,3.645-2.982,4.177
	c-0.595,0.505-0.228,1.942, 0.368,1.942c 0.221,1.351, 1.236,2.356, 1.236,2.356s-0.008,0.95-0.353,1.005
	C 37.155,107.157, 33,108.99, 33,111l 7,0 l 7,0 C 47,108.99, 42.845,107.157, 41.732,106.98z"></path><path d="M 75.484,108.584c-0.296-0.047-0.303-0.854-0.303-0.854s 0.87-0.854, 1.060-2.002
	c 0.51,0, 0.825-1.221, 0.315-1.65c 0.021-0.452, 0.656-3.55-2.556-3.55c-3.212,0-2.577,3.097-2.556,3.55
	c-0.51,0.43-0.195,1.65, 0.315,1.65c 0.19,1.148, 1.060,2.002, 1.060,2.002s-0.007,0.807-0.303,0.854
	C 71.562,108.734, 68,110.292, 68,112l 6,0 l 6,0 C 80,110.292, 76.438,108.734, 75.484,108.584zM 69.376,108.856c 0.689-0.424, 1.525-0.817, 2.212-1.054c-0.246-0.35-0.52-0.827-0.693-1.392
	c-0.241-0.196-0.437-0.477-0.562-0.822c-0.126-0.345-0.174-0.732-0.135-1.089c 0.028-0.256, 0.101-0.495, 0.213-0.705
	c-0.068-0.728-0.116-2.157, 0.82-3.199c 0.363-0.404, 0.821-0.695, 1.37-0.87C 72.503,98.715, 71.989,97.528, 70,97.528
	c-3.212,0-2.577,3.097-2.556,3.55c-0.51,0.43-0.195,1.65, 0.315,1.65c 0.19,1.148, 1.060,2.002, 1.060,2.002
	s-0.007,0.807-0.303,0.854C 67.562,105.734, 64,107.292, 64,109l 5.15,0 C 69.224,108.952, 69.298,108.904, 69.376,108.856z"></path><path d="M 99.516,103 C 101.449,103 103.016,104.567 103.016,106.5 C 103.016,108.433 101.449,110 99.516,110 C 97.583,110 96.016,108.433 96.016,106.5 L 96,106 C 96,102.134 99.134,99 103,99 L 103,101 C 101.664,101 100.409,101.52 99.464,102.464 C 99.283,102.646 99.117,102.84 98.967,103.043 C 99.146,103.015 99.329,103 99.516,103 ZM 108.516,103 C 110.449,103 112.016,104.567 112.016,106.5 C 112.016,108.433 110.449,110 108.516,110 C 106.583,110 105.016,108.433 105.016,106.5 L 105,106 C 105,102.134 108.134,99 112,99 L 112,101 C 110.664,101 109.409,101.52 108.464,102.464 C 108.283,102.646 108.117,102.84 107.967,103.043 C 108.146,103.015 108.329,103 108.516,103 Z"></path><path d="M 139.39,104C 141.543,102.635, 143,100.012, 143,97c0-0.339-0.019-0.672-0.054-1L 129.054,96 C 129.019,96.328, 129,96.661, 129,97
		c0,3.012, 1.457,5.635, 3.609,7C 130.457,105.365, 129,107.988, 129,111c0,0.339, 0.019,0.672, 0.054,1l 13.891,0 
		c 0.036-0.328, 0.054-0.661, 0.054-1C 143,107.988, 141.543,105.365, 139.39,104z M 130.5,111c0-2.921, 1.253-5.397, 3.5-6.214
		l0-1.572 l0,0 C 131.753,102.397, 130.5,99.921, 130.5,97l0,0 l 11,0 l0,0 c0,2.921-1.253,5.397-3.5,6.214l0,1.572 
		C 140.247,105.603, 141.5,108.079, 141.5,111L 130.5,111 zM 137.682,106.462c-1.12-0.635-1.181-1.459-1.182-1.959L 136.5,103.5 c0-0.5, 0.059-1.327, 1.183-1.964
		c 0.602-0.349, 1.122-0.88, 1.516-1.536L 132.8,100 c 0.395,0.657, 0.916,1.188, 1.518,1.538
		c 1.12,0.635, 1.181,1.459, 1.182,1.959L 135.5,104.5 c0,0.5-0.059,1.327-1.183,1.964c-1.135,0.659-1.98,1.964-2.236,3.537
		l 7.839,0 C 139.664,108.426, 138.817,107.121, 137.682,106.462z"></path><path d="M 168,96 C 163.645,96 160.102,99.481 160.002,103.812 C 160.095,100.033 162.969,97 166.5,97 C 170.090,97 173,100.134 173,104 C 173,104.828 173.672,105.5 174.5,105.5 C 175.328,105.5 176,104.828 176,104 C 176,99.582 172.418,96 168,96 ZM 168,112 C 172.355,112 175.898,108.519 175.998,104.188 C 175.905,107.967 173.031,111 169.5,111 C 165.91,111 163,107.866 163,104 C 163,103.172 162.328,102.5 161.5,102.5 C 160.672,102.5 160,103.172 160,104 C 160,108.418 163.582,112 168,112 Z"></path><path d="M 193,96L 199,96L 199,97L 193,97zM 201,96L 207,96L 207,97L 201,97zM 206.875,101l-0.875,0 L 206,97 L 202,97 l0,4 L 198,101 L 198,97 L 194,97 l0,4 L 193.125,101 c-0.619,0-1.125,0.506-1.125,1.125l0,8.75 c0,0.619, 0.506,1.125, 1.125,1.125l 4.75,0 c 0.619,0, 1.125-0.506, 1.125-1.125L 199,105 l 2,0 
	l0,5.875 c0,0.619, 0.506,1.125, 1.125,1.125l 4.75,0 c 0.619,0, 1.125-0.506, 1.125-1.125L 208,102.125 C 208,101.506, 207.494,101, 206.875,101z M 197.438,111L 193.563,111 c-0.309,0-0.563-0.225-0.563-0.5
	s 0.253-0.5, 0.563-0.5l 3.875,0 c 0.309,0, 0.563,0.225, 0.563,0.5S 197.747,111, 197.438,111z M 200.5,104l-1,0 c-0.275,0-0.5-0.225-0.5-0.5s 0.225-0.5, 0.5-0.5l 1,0 c 0.275,0, 0.5,0.225, 0.5,0.5
	S 200.775,104, 200.5,104z M 206.438,111L 202.563,111 c-0.309,0-0.563-0.225-0.563-0.5s 0.253-0.5, 0.563-0.5l 3.875,0 c 0.309,0, 0.563,0.225, 0.563,0.5S 206.747,111, 206.438,111z"></path><path d="M 239.504,109.616L 235.714,106.392c-0.392-0.353-0.811-0.514-1.149-0.499C 235.46,104.845, 236,103.486, 236,102
	C 236,98.686, 233.314,96, 230,96C 226.686,96, 224,98.686, 224,102c0,3.314, 2.686,6, 6,6c 1.486,0, 2.845-0.54, 3.893-1.435
	c-0.016,0.338, 0.146,0.757, 0.499,1.149l 3.223,3.79c 0.552,0.613, 1.453,0.665, 2.003,0.115S 240.117,110.167, 239.504,109.616z
	 M 230,106c-2.209,0-4-1.791-4-4S 227.791,98, 230,98s 4,1.791, 4,4S 232.209,106, 230,106z"></path><path d="M 267,96c-2.761,0-5,2.239-5,5c0,0.313, 0.029,0.619, 0.084,0.916L 256,108l0,3 c0,0.552, 0.448,1, 1,1
	l 1,0 l0-1 l 2,0 l0-2 l 2,0 l0-2 l 2,0 l 1.298-1.298C 265.829,105.895, 266.402,106, 267,106c 2.761,0, 5-2.239, 5-5S 269.761,96, 267,96z
	 M 268.498,101.002c-0.828,0-1.5-0.672-1.5-1.5s 0.672-1.5, 1.5-1.5s 1.5,0.672, 1.5,1.5S 269.326,101.002, 268.498,101.002z"></path><path d="M 297.25,103l-0.25,0 l0-3 c0-1.654-1.346-3-3-3l-2,0 c-1.654,0-3,1.346-3,3l0,3 l-0.25,0 c-0.412,0-0.75,0.338-0.75,0.75l0,7.5 
	c0,0.412, 0.338,0.75, 0.75,0.75l 8.5,0 c 0.412,0, 0.75-0.338, 0.75-0.75L 298,103.75 C 298,103.338, 297.662,103, 297.25,103z M 294,110l-2,0 l 0.435-2.175
	C 292.172,107.645, 292,107.343, 292,107c0-0.552, 0.448-1, 1-1c 0.552,0, 1,0.448, 1,1c0,0.343-0.172,0.645-0.435,0.825L 294,110
	z M 295,103L 291,103 l0-3 c0-0.551, 0.449-1, 1-1l 2,0 c 0.551,0, 1,0.449, 1,1L 295,103 z"></path><path d="M 332,97l-2,0 c-1.654,0-3,1.346-3,3l0,3 L 320.75,103 c-0.412,0-0.75,0.338-0.75,0.75l0,7.5 c0,0.412, 0.338,0.75, 0.75,0.75l 8.5,0 c 0.412,0, 0.75-0.338, 0.75-0.75L 330,103.75 
	c0-0.412-0.338-0.75-0.75-0.75l-0.25,0 l0-3 c0-0.551, 0.449-1, 1-1l 2,0 c 0.551,0, 1,0.449, 1,1l0,3 l 2,0 l0-3 C 335,98.346, 333.654,97, 332,97z
	 M 326,110l-2,0 l 0.435-2.175C 324.172,107.645, 324,107.343, 324,107c0-0.552, 0.448-1, 1-1c 0.552,0, 1,0.448, 1,1
	c0,0.343-0.172,0.645-0.435,0.825L 326,110z"></path><path d="M 366.59,105.535c-0.839-1.454-0.335-3.317, 1.127-4.164l-1.572-2.723c-0.449,0.263-0.972,0.414-1.529,0.414
	c-1.68,0-3.042-1.371-3.042-3.062L 358.43,96 c 0.004,0.522-0.126,1.051-0.406,1.535
	c-0.839,1.454-2.706,1.948-4.17,1.106L 352.282,101.364c 0.453,0.257, 0.845,0.634, 1.123,1.117
	c 0.838,1.452, 0.336,3.311-1.12,4.16l 1.572,2.723c 0.448-0.261, 0.967-0.41, 1.522-0.41
	c 1.675,0, 3.034,1.362, 3.042,3.046l 3.145,0 c-0.001-0.517, 0.129-1.040, 0.406-1.519
	c 0.838-1.452, 2.7-1.947, 4.163-1.11l 1.572-2.723C 367.257,106.391, 366.868,106.015, 366.59,105.535z M 360,107.24
	c-1.789,0-3.24-1.45-3.24-3.24c0-1.789, 1.45-3.24, 3.24-3.24c 1.789,0, 3.24,1.45, 3.24,3.24
	C 363.24,105.789, 361.789,107.24, 360,107.24z"></path><path d="M 388,99L 386,97L 385,97L 385,98L 387,100 	zM 389,96L 390,96L 390,98L 389,98zM 393,101L 395,101L 395,102L 393,102zM 394,98L 394,97L 393,97L 391,99L 392,100 	zM 384,101L 386,101L 386,102L 384,102zM 389,105L 390,105L 390,107L 389,107zM 385,105L 385,106L 386,106L 388,104L 387,103 	zM 399.781,109.781L 389.842,99.842c-0.292-0.292-0.769-0.292-1.061,0L 387.842,100.781c-0.292,0.292-0.292,0.769,0,1.061L 397.781,111.781
		c 0.292,0.292, 0.769,0.292, 1.061,0L 399.781,110.842C 400.073,110.55, 400.073,110.073, 399.781,109.781z M 391.5,104.5l-3-3l 1-1l 3,3L 391.5,104.5z"></path><path d="M 432,105l0-1 l-3.020,0 c-0.092-1.136-0.497-2.172-1.12-3.004l 2.53,0 l 1.095-4.379l-0.97-0.243l-0.905,3.621l-2.729,0 
	c-0.014-0.011-0.028-0.021-0.042-0.032c 0.105-0.305, 0.162-0.632, 0.162-0.972C 427,97.34, 425.657,96, 424,96s-3,1.34-3,2.992
	c0,0.34, 0.057,0.667, 0.162,0.972c-0.014,0.011-0.028,0.021-0.042,0.032l-2.729,0 l-0.905-3.621l-0.97,0.243l 1.095,4.379l 2.53,0 
	C 419.517,101.828, 419.112,102.864, 419.020,104L 416,104 l0,1 l 3.021,0 c 0.059,0.714, 0.242,1.388, 0.526,1.996L 417.61,106.996 l-1.095,4.379
	l 0.97,0.243l 0.905-3.621l 1.756,0 C 421.063,109.215, 422.449,109.992, 424,109.992s 2.937-0.777, 3.854-1.996l 1.756,0 l 0.905,3.621
	l 0.97-0.243l-1.095-4.379l-1.937,0 c 0.283-0.608, 0.466-1.283, 0.526-1.996L 432,105 z"></path><path d="M 455,105L 455,98 C 451.134,98, 448,101.134, 448,105s 3.134,7, 7,7s 7-3.134, 7-7c0-1.126-0.266-2.189-0.738-3.131
		L 455,105zM 462.262,99.869C 461.113,97.575, 458.74,96, 456,96l0,7 L 462.262,99.869z"></path><path d="M 492.055,101c 0.283-0.201, 0.555-0.425, 0.804-0.674c 0.522-0.522, 0.871-1.164, 0.983-1.808
	c 0.123-0.706-0.057-1.362-0.494-1.798c-0.348-0.348-0.82-0.533-1.365-0.533c-0.775,0-1.593,0.372-2.242,1.021
	c-1.039,1.039-1.644,2.472-1.97,3.496c-0.241-1.028-0.722-2.416-1.657-3.351C 485.613,96.851, 484.972,96.594, 484.367,96.594
	c-0.495,0-0.965,0.172-1.317,0.523c-0.781,0.781-0.675,2.153, 0.236,3.064c 0.325,0.325, 0.705,0.595, 1.105,0.819L 481,101 l0,4 
	l 1,0 l0,7 l 12,0 L 494,105 l 1,0 L 495,101 L 492.055,101 z M 490.536,98.003c 0.433-0.433, 0.974-0.692, 1.446-0.692c 0.167,0, 0.402,0.035, 0.57,0.203
	c 0.407,0.407, 0.178,1.349-0.489,2.016c-0.687,0.687-1.61,1.159-2.413,1.47l-0.792,0 
	C 489.149,100.101, 489.672,98.868, 490.536,98.003z M 483.655,98.514c-0.011-0.142-0.001-0.41, 0.191-0.601
	C 484.006,97.752, 484.217,97.719, 484.367,97.719l0,0 c 0.332,0, 0.679,0.157, 0.952,0.429c 0.529,0.529, 0.965,1.371, 1.26,2.436
	c 0.008,0.029, 0.016,0.057, 0.023,0.086c-0.028-0.008-0.057-0.015-0.086-0.023c-1.064-0.295-1.906-0.731-2.436-1.26
	C 483.834,99.138, 483.679,98.821, 483.655,98.514z M 487,111L 483,111 L 483,104.5 l 4,0 L 487,111 z M 487,104L 482,104 l0-2 l 5,0 L 487,104 z M 493,111L 489,111 L 489,104.5 l 4,0 L 493,111 z
	 M 494,104L 489,104 l0-2 l 5,0 L 494,104 z"></path><path d="M 13,133l-1,0 l0-1.5 c0-1.381-2.686-2.5-6-2.5C 2.686,129,0,130.119,0,131.5l0,9 c0,1.381, 2.686,2.5, 6,2.5
	c 3.314,0, 6-1.119, 6-2.5l0-1.5 l 1,0 c 1.65,0, 3-1.35, 3-3S 14.65,133, 13,133z M 2.751,130.963C 3.656,130.664, 4.81,130.5, 6,130.5
	s 2.344,0.164, 3.249,0.463c 0.578,0.19, 0.928,0.394, 1.116,0.537c-0.188,0.143-0.538,0.347-1.116,0.537
	C 8.344,132.336, 7.19,132.5, 6,132.5s-2.344-0.164-3.249-0.463C 2.173,131.847, 1.823,131.643, 1.635,131.5
	C 1.823,131.357, 2.173,131.153, 2.751,130.963z M 14.131,136.881C 13.993,137.019, 13.695,137.25, 13.25,137.25l-1.25,0 l0-2.5 l 1.25,0 
	c 0.445,0, 0.743,0.231, 0.881,0.369S 14.5,135.555, 14.5,136S 14.269,136.743, 14.131,136.881z"></path><path d="M 43,129L 38,134L 35,134 L 32,138c0,0, 3.178-0.885, 5.032-0.47L 32,144l 6.592-5.127C 39.512,140.977, 38,144, 38,144l 4-3
	l0-3 l 5-5L 48,128L 43,129z"></path><path d="M 69.016,144 C 67.949,141.781 68.517,140.51 69.337,139.312 C 70.234,138 70.466,136.701 70.466,136.701 C 70.466,136.701 71.171,137.619 70.889,139.053 C 72.135,137.666 72.371,135.455 72.182,134.608 C 75,136.577 76.204,140.84 74.581,144 C 83.212,139.117 76.728,131.81 75.599,130.987 C 75.976,131.81 76.047,133.203 75.287,133.879 C 74,129 70.818,128 70.818,128 C 71.195,130.516 69.454,133.268 67.776,135.324 C 67.717,134.321 67.655,133.628 67.127,132.668 C 67.009,134.491 65.616,135.977 65.238,137.803 C 64.727,140.276 65.621,142.087 69.016,144 Z"></path><path d="M 110.942,140.57L 106,132.335L 106,129 l 0.5,0 c 0.275,0, 0.5-0.225, 0.5-0.5s-0.225-0.5-0.5-0.5L 101.5,128 c-0.275,0-0.5,0.225-0.5,0.5s 0.225,0.5, 0.5,0.5l 0.5,0 l0,3.335 
	L 97.058,140.57C 95.926,142.457, 96.8,144, 99,144l 10,0 C 111.2,144, 112.074,142.457, 110.942,140.57z M 99.766,138L 103,132.61L 103,129 l 2,0 
	l0,3.61 L 108.234,138L 99.766,138 z"></path><path d="M 131,144L 141,144L 142,133L 130,133 	zM 138,130L 138,128 L 134,128 l0,2 L 129,130 l0,3 l 1-1l 12,0 l 1,1L 143,130 L 138,130 z M 137,130l-2,0 L 135,129 l 2,0 L 137,130 z"></path><path d="M 166,128L 160,136L 166,136L 162,144L 176,134L 168,134L 174,128 z"></path><path d="M 208,132.414L 206.586,131L 203.793,133.793L 202.207,132.207L 205,129.414L 203.586,128L 200.793,130.793L 199,129L 197.646,130.353L 205.646,138.354L 207,137L 205.207,135.207 	zM 196.293,139.707c 2.59,2.59, 6.019,0.568, 8.114-1.179L 197.472,131.593
		C 195.725,133.688, 193.703,137.117, 196.293,139.707zM 195,139L 197,141L 194,144L 192,142z"></path><path d="M 224,128L 228,128L 228,132L 224,132zM 230,129L 240,129L 240,131L 230,131zM 224,134L 228,134L 228,138L 224,138zM 230,135L 240,135L 240,137L 230,137zM 224,140L 228,140L 228,144L 224,144zM 230,141L 240,141L 240,143L 230,143z"></path><path d="M 271.25,140l-0.25,0 L 271,136.75 c0-0.965-0.785-1.75-1.75-1.75L 265,135 l0-2 l 0.25,0 c 0.412,0, 0.75-0.338, 0.75-0.75L 266,129.75 c0-0.412-0.338-0.75-0.75-0.75l-2.5,0 
	c-0.412,0-0.75,0.338-0.75,0.75l0,2.5 c0,0.412, 0.338,0.75, 0.75,0.75l 0.25,0 l0,2 L 258.75,135 c-0.965,0-1.75,0.785-1.75,1.75l0,3.25 l-0.25,0 c-0.412,0-0.75,0.338-0.75,0.75l0,2.5 
	c0,0.412, 0.338,0.75, 0.75,0.75l 2.5,0 c 0.412,0, 0.75-0.338, 0.75-0.75l0-2.5 c0-0.412-0.338-0.75-0.75-0.75l-0.25,0 l0-3 l 4,0 l0,3 l-0.25,0 c-0.412,0-0.75,0.338-0.75,0.75l0,2.5 
	c0,0.412, 0.338,0.75, 0.75,0.75l 2.5,0 c 0.412,0, 0.75-0.338, 0.75-0.75l0-2.5 c0-0.412-0.338-0.75-0.75-0.75l-0.25,0 l0-3 l 4,0 l0,3 l-0.25,0 c-0.412,0-0.75,0.338-0.75,0.75l0,2.5 
	c0,0.412, 0.338,0.75, 0.75,0.75l 2.5,0 c 0.412,0, 0.75-0.338, 0.75-0.75l0-2.5 C 272,140.338, 271.662,140, 271.25,140z M 259,143L 257,143 l0-2 l 2,0 L 259,143 z M 265,143l-2,0 l0-2 l 2,0 L 265,143 z
	 M 263,132L 263,130 l 2,0 l0,2 L 263,132 z M 271,143l-2,0 l0-2 l 2,0 L 271,143 z"></path><path d="M 304,138.274c0-1.283-0.886-2.358-2.078-2.648C 301.871,133.615, 300.227,132, 298.205,132
	c-1.184,0-2.239,0.555-2.92,1.418c-0.382-0.494-0.98-0.812-1.652-0.812c-1.153,0-2.088,0.936-2.088,2.089
	c0,0.101, 0.007,0.199, 0.021,0.296c-0.175-0.032-0.356-0.049-0.54-0.049C 289.355,134.942, 288,136.298, 288,137.971
	C 288,139.644, 289.355,141, 291.027,141l 10.254,0 l0,0 C 302.783,140.997, 304,139.778, 304,138.274z"></path><path d="M 333.922,133.626C 333.871,131.615, 332.227,130, 330.205,130c-1.184,0-2.239,0.555-2.92,1.418
	c-0.382-0.494-0.98-0.812-1.652-0.812c-1.153,0-2.088,0.936-2.088,2.089c0,0.101, 0.007,0.199, 0.021,0.296
	c-0.175-0.032-0.356-0.049-0.54-0.049C 321.355,132.942, 320,134.298, 320,135.971C 320,137.644, 321.355,139, 323.027,139l 1.559,0 L 328,142.414
	L 331.414,139l 1.867,0 l0,0 C 334.783,138.997, 336,137.778, 336,136.274C 336,134.991, 335.114,133.916, 333.922,133.626z M 328,141l-3-3
	l 2,0 l0-3 l 2,0 l0,3 l 2,0 L 328,141z"></path><path d="M 365.942,134.039C 365.98,133.865, 366,133.685, 366,133.5c0-1.381-1.119-2.5-2.5-2.5c-0.222,0-0.438,0.029-0.643,0.084
	C 362.47,129.875, 361.337,129, 360,129c-1.365,0-2.516,0.911-2.88,2.159C 356.765,131.055, 356.389,131, 356,131C 353.791,131, 352,132.791, 352,135
	c0,2.209, 1.791,4, 4,4l 2,0 l0,3 l 4,0 l0-3 l 3.5,0 c 1.381,0, 2.5-1.119, 2.5-2.5C 368,135.27, 367.112,134.247, 365.942,134.039z M 361,138l0,3 
	l-2,0 l0-3 l-2.5,0 l 3.5-3.5l 3.5,3.5L 361,138 z"></path><path d="M 391.5,129C 387.358,129, 384,132.358, 384,136.5c0,4.142, 3.358,7.5, 7.5,7.5c 4.142,0, 7.5-3.358, 7.5-7.5
	C 399,132.358, 395.642,129, 391.5,129z M 395.744,139c 0.134-0.632, 0.219-1.303, 0.246-2l 1.991,0 c-0.052,0.691-0.213,1.361-0.479,2
	L 395.744,139 z M 387.256,134c-0.134,0.632-0.219,1.303-0.246,2L 385.019,136 c 0.052-0.691, 0.213-1.361, 0.479-2L 387.256,134 z M 394.719,134
	c 0.15,0.64, 0.241,1.31, 0.27,2L 392,136 l0-2 L 394.719,134 z M 392,133L 392,130.073 c 0.228,0.066, 0.454,0.178, 0.675,0.334
	c 0.415,0.293, 0.813,0.744, 1.149,1.304c 0.233,0.388, 0.434,0.819, 0.602,1.289L 392,133 z M 389.176,131.711
	c 0.336-0.561, 0.734-1.012, 1.149-1.304c 0.222-0.156, 0.447-0.268, 0.675-0.334L 391,133 l-2.426,0 
	C 388.742,132.53, 388.943,132.099, 389.176,131.711z M 391,134l0,2 l-2.989,0 c 0.029-0.69, 0.12-1.36, 0.27-2L 391,134 z M 385.498,139
	c-0.267-0.639-0.427-1.309-0.479-2l 1.991,0 c 0.028,0.697, 0.112,1.368, 0.246,2L 385.498,139 z M 388.011,137L 391,137 l0,2 l-2.719,0 
	C 388.13,138.36, 388.040,137.69, 388.011,137z M 391,140l0,2.927 c-0.228-0.066-0.454-0.178-0.675-0.334
	c-0.415-0.293-0.813-0.744-1.149-1.304c-0.233-0.388-0.434-0.819-0.602-1.289L 391,140 z M 393.825,141.289
	c-0.336,0.561-0.734,1.012-1.149,1.304c-0.222,0.156-0.447,0.268-0.675,0.334L 392,140 l 2.426,0 
	C 394.258,140.47, 394.057,140.901, 393.825,141.289z M 392,139l0-2 l 2.989,0 c-0.029,0.69-0.12,1.36-0.27,2L 392,139 z M 395.99,136
	c-0.028-0.697-0.112-1.368-0.246-2l 1.758,0 c 0.267,0.639, 0.427,1.309, 0.479,2L 395.99,136 z M 396.979,133l-1.498,0 
	c-0.291-0.918-0.693-1.723-1.177-2.366c 0.665,0.318, 1.267,0.744, 1.792,1.27C 396.432,132.239, 396.727,132.606, 396.979,133
	z M 386.904,131.904c 0.526-0.526, 1.128-0.952, 1.792-1.27c-0.483,0.643-0.886,1.448-1.177,2.366L 386.021,133 
	C 386.273,132.606, 386.568,132.239, 386.904,131.904z M 386.021,140l 1.498,0 c 0.291,0.918, 0.693,1.723, 1.177,2.366
	c-0.665-0.318-1.267-0.744-1.792-1.27C 386.568,140.761, 386.273,140.394, 386.021,140z M 396.096,141.096
	c-0.526,0.526-1.128,0.952-1.792,1.27c 0.483-0.643, 0.886-1.448, 1.177-2.366l 1.498,0 
	C 396.727,140.394, 396.432,140.761, 396.096,141.096z"></path><path d="M 429.657,130.343 C 431.168,131.854 432,133.863 432,136 C 432,138.137 431.168,140.146 429.657,141.657 C 428.146,143.168 426.137,144 424,144 C 421.863,144 419.854,143.168 418.343,141.657 C 416.832,140.146 416,138.137 416,136 C 416,133.863 416.832,131.854 418.343,130.343 C 419.854,128.832 421.863,128 424,128 C 426.137,128 428.146,128.832 429.657,130.343 Z M 428.95,140.95 C 429.935,139.964 430.59,138.737 430.86,137.402 C 430.65,137.712 430.448,137.827 430.324,137.133 C 430.195,136.002 429.156,136.725 428.503,136.323 C 427.816,136.786 426.27,135.422 426.533,136.961 C 426.938,137.655 428.72,136.032 427.832,137.5 C 427.265,138.526 425.759,140.796 425.955,141.973 C 425.98,143.688 424.203,142.331 423.591,141.762 C 423.179,140.623 423.451,138.631 422.374,138.073 C 421.205,138.022 420.202,137.916 419.749,136.609 C 419.476,135.675 420.039,134.283 421.041,134.068 C 422.507,133.147 423.031,135.147 424.406,135.184 C 424.833,134.738 425.997,134.595 426.094,134.094 C 425.191,133.935 427.238,133.336 426.007,132.995 C 425.328,133.075 424.89,133.699 425.252,134.228 C 423.935,134.535 423.893,132.324 422.628,133.021 C 422.596,134.124 420.562,133.379 421.924,133.155 C 422.392,132.951 421.161,132.358 421.826,132.466 C 422.153,132.448 423.253,132.063 422.955,131.803 C 423.568,131.423 424.083,132.714 424.683,131.774 C 425.116,131.051 424.501,130.917 423.958,131.284 C 423.652,130.941 424.499,130.201 425.245,129.882 C 425.494,129.775 425.731,129.717 425.913,129.734 C 426.289,130.168 426.984,130.243 427.020,129.681 C 426.089,129.236 425.063,129 424,129 C 422.475,129 421.024,129.485 419.823,130.381 C 420.146,130.529 420.329,130.713 420.018,130.948 C 419.777,131.668 418.797,132.634 417.937,132.497 C 417.49,133.267 417.196,134.116 417.070,135.005 C 417.791,135.244 417.957,135.715 417.802,135.873 C 417.435,136.193 417.209,136.647 417.093,137.144 C 417.327,138.579 418.002,139.901 419.050,140.95 C 420.372,142.272 422.13,143 424,143 C 425.87,143 427.628,142.272 428.95,140.95 Z"></path><path d="M 462.897,129.166l-0.063-0.063c-1.471-1.471-3.878-1.471-5.349,0L 454.077,132.511
		c-1.471,1.471-1.471,3.878,0,5.349l 0.063,0.063c 0.122,0.123, 0.252,0.233, 0.387,0.335l 1.248-1.248
		c-0.145-0.086-0.283-0.189-0.408-0.313l-0.063-0.063c-0.799-0.798-0.799-2.098,0-2.897L 458.711,130.329
		c 0.799-0.799, 2.098-0.799, 2.897,0l 0.063,0.063c 0.798,0.799, 0.798,2.098,0,2.897l-1.542,1.542
		c 0.268,0.661, 0.395,1.366, 0.383,2.069l 2.384-2.384C 464.368,133.044, 464.368,130.637, 462.897,129.166zM 457.86,134.077c-0.122-0.122-0.252-0.233-0.387-0.335l-1.248,1.247c 0.145,0.086, 0.283,0.189, 0.408,0.313l 0.063,0.063
		c 0.799,0.799, 0.799,2.098,0,2.897L 453.289,141.671c-0.799,0.798-2.098,0.798-2.897,0l-0.063-0.063
		c-0.798-0.799-0.798-2.098,0-2.897l 1.542-1.542c-0.268-0.661-0.394-1.366-0.383-2.069l-2.384,2.384
		c-1.471,1.471-1.471,3.878,0,5.349l 0.063,0.063c 1.471,1.471, 3.878,1.471, 5.349,0l 3.408-3.408
		c 1.471-1.471, 1.471-3.878,0-5.349L 457.86,134.077z"></path><path d="M 493,130.692 C 494.195,130.692 495.267,130.042 496,129.55 L 496,138.858 C 495.267,139.35 494.195,140 493,140 C 491.805,140 490.733,139.646 490,139.154 C 489.267,138.662 488.195,138.308 487,138.308 C 485.805,138.308 484.733,138.916 484,139.408 L 484,130.1 C 484.733,129.608 485.805,129 487,129 C 488.195,129 489.267,129.354 490,129.846 C 490.733,130.338 491.805,130.692 493,130.692 ZM 482,128 C 482.552,128 483,128.448 483,129 L 483,144 L 481,144 L 481,129 C 481,128.448 481.448,128 482,128 Z"></path><path d="M 10.904,165.11l-1.015-1.014L 4.814,169.17c-0.841,0.841-0.841,2.204,0,3.044
	c 0.841,0.841, 2.204,0.841, 3.045,0l 6.090-6.089c 1.402-1.401, 1.402-3.673,0-5.074
	c-1.401-1.402-3.674-1.402-5.075,0L 2.479,167.444l 0.001,0.001c-0.005,0.005-0.010,0.009-0.014,0.013
	c-1.955,1.955-1.955,5.123,0,7.077c 1.954,1.954, 5.123,1.954, 7.078,0c 0.004-0.004, 0.008-0.009, 0.013-0.014l 0.001,0.001
	l 4.365-4.364l-1.015-1.014L 8.542,173.507l0,0 c-0.005,0.004-0.009,0.009-0.013,0.013
	c-1.392,1.392-3.656,1.392-5.048,0c-1.392-1.391-1.392-3.655,0-5.047c 0.005-0.005, 0.009-0.009, 0.014-0.013l-0.001-0.001
	l 6.395-6.393c 0.839-0.84, 2.205-0.84, 3.045,0c 0.839,0.84, 0.839,2.205,0,3.044L 6.844,171.199
	c-0.28,0.28-0.735,0.28-1.015,0c-0.28-0.279-0.28-0.735,0-1.014L 10.904,165.11z"></path><path d="M 40,163C 36.511,163, 33.486,165.032, 32,168c 1.486,2.968, 4.511,5, 8,5c 3.489,0, 6.514-2.032, 8-5
	C 46.514,165.032, 43.489,163, 40,163z M 43.945,165.652c 0.94,0.6, 1.737,1.403, 2.335,2.348
	c-0.598,0.946-1.395,1.749-2.335,2.348C 42.763,171.102, 41.399,171.5, 40,171.5c-1.399,0-2.763-0.398-3.945-1.152
	C 35.115,169.749, 34.319,168.946, 33.721,168c 0.598-0.946, 1.395-1.749, 2.335-2.348c 0.061-0.039, 0.123-0.077, 0.185-0.114
	C 36.085,165.965, 36,166.425, 36,166.906c0,2.209, 1.791,4, 4,4s 4-1.791, 4-4c0-0.481-0.085-0.942-0.241-1.369
	C 43.821,165.575, 43.883,165.613, 43.945,165.652z M 40,166.406c0,0.828-0.672,1.5-1.5,1.5s-1.5-0.672-1.5-1.5s 0.672-1.5, 1.5-1.5
	S 40,165.578, 40,166.406z"></path><path d="M 77.114,164.631 C 78.328,165.491 79.323,166.649 80,168 C 78.514,170.968 75.489,173 72,173 C 71.022,173 70.081,172.84 69.2,172.546 L 70.418,171.328 C 70.935,171.442 71.465,171.5 72,171.5 C 73.399,171.5 74.763,171.102 75.944,170.348 C 76.884,169.749 77.681,168.946 78.279,168 C 77.7,167.085 76.935,166.304 76.035,165.711 L 77.114,164.631 ZM 72,170.906 C 71.645,170.906 71.301,170.86 70.973,170.773 L 75.867,165.879 C 75.953,166.207 76,166.551 76,166.906 C 76,169.115 74.209,170.906 72,170.906 ZM 79,160l-0.84,0 L 74.729,163.431C 73.868,163.151, 72.951,163, 72,163C 68.511,163, 65.486,165.032, 64,168
		c 0.667,1.331, 1.643,2.474, 2.831,3.329L 64,174.16L 64,175 l 0.84,0 L 79,160.84L 79,160 z M 70.5,164.906c 0.751,0, 1.373,0.551, 1.483,1.271
		l-1.711,1.711C 69.551,167.779, 69,167.157, 69,166.406C 69,165.578, 69.672,164.906, 70.5,164.906z M 65.721,168
		c 0.598-0.946, 1.395-1.749, 2.335-2.348c 0.061-0.039, 0.123-0.077, 0.185-0.114C 68.085,165.965, 68,166.425, 68,166.906
		c0,0.914, 0.307,1.757, 0.823,2.431l-0.915,0.915C 67.032,169.664, 66.287,168.896, 65.721,168z"></path><path d="M 99,160L 99,176L 104,171L 109,176L 109,160 z"></path><path d="M 132,162L 132,176L 137,171L 142,176L 142,162 	zM 140,160L 130,160L 130,174L 131,173L 131,161L 140,161 	z"></path><path d="M 176,166.204l-5.528-0.803L 168,160.392l-2.472,5.009L 160,166.204l 4,3.899L 163.056,175.608L 168,173.009l 4.944,2.599
	l-0.944-5.505L 176,166.204z M 168,171.773l-3.492,1.836l 0.667-3.888l-2.825-2.753l 3.904-0.567L 168,162.863l 1.746,3.537
	l 3.904,0.567l-2.825,2.753l 0.667,3.888L 168,171.773z"></path><path d="M 208,166.204L 202.472,165.401L 200,160.392l-2.472,5.009L 192,166.204l 4,3.899L 195.056,175.608L 200,173.009l 4.944,2.599
	l-0.944-5.505L 208,166.204z"></path><path d="M 238.5,169 C 239.641,169 239,172 238,172 C 238.5,172 238,174.5 237,174.5 C 237,175.5 236,176 235,176 C 230.776,176 232.261,174.943 228,174.5 L 228,166.5 C 231.764,165.371 235.5,162.54 235.5,160 C 236.328,160 238.5,161 235.5,166 C 235.5,166 238,166 238.5,166 C 240,166 239.5,169 238.5,169 ZM 227,166.5 L 227,174.5 L 228,174.5 L 228,175 L 226,175 C 225.45,175 225,174.325 225,173.5 L 225,167.5 C 225,166.675 225.45,166 226,166 L 228,166 L 228,166.5 L 227,166.5 Z"></path><path d="M 257.5,167 C 256.359,167 257,164 258,164 C 257.5,164 258,161.5 259,161.5 C 259,160.5 260,160 261,160 C 265.224,160 263.739,161.057 268,161.5 L 268,169.5 C 264.236,170.629 260.5,173.46 260.5,176 C 259.672,176 257.5,175 260.5,170 C 260.5,170 258,170 257.5,170 C 256,170 256.5,167 257.5,167 ZM 269,169.5 L 269,161.5 L 268,161.5 L 268,161 L 270,161 C 270.55,161 271,161.675 271,162.5 L 271,168.5 C 271,169.325 270.55,170 270,170 L 268,170 L 268,169.5 L 269,169.5 Z"></path><path d="M 296,160C 291.582,160, 288,163.582, 288,168s 3.582,8, 8,8s 8-3.582, 8-8S 300.418,160, 296,160z M 296,174.5
		c-3.59,0-6.5-2.91-6.5-6.5S 292.41,161.5, 296,161.5s 6.5,2.91, 6.5,6.5S 299.59,174.5, 296,174.5zM 295,164L 297,164L 297,166L 295,166zM 298,172L 294,172L 294,171L 295,171L 295,168L 294,168L 294,167L 297,167L 297,171L 298,171 z"></path><path d="M 328,160C 323.582,160, 320,163.582, 320,168s 3.582,8, 8,8s 8-3.582, 8-8S 332.418,160, 328,160z M 327,163l 2,0 l0,2 l-2,0 L 327,163 z
	 M 330,173L 326,173 l0-1 l 1,0 L 327,168 l-1,0 l0-1 l 3,0 l0,5 l 1,0 L 330,173 z"></path><path d="M 360,160C 355.582,160, 352,163.582, 352,168s 3.582,8, 8,8s 8-3.582, 8-8S 364.418,160, 360,160z M 364,165.414L 361.414,168
	L 364,170.586L 364,172 l-1.414,0 L 360,169.414L 357.414,172L 356,172 l0-1.414 L 358.586,168L 356,165.414L 356,164 l 1.414,0 L 360,166.586L 362.586,164L 364,164 
	L 364,165.414 z"></path><path d="M 400,171.5M 395.5,160L 388.5,160 L 384,164.5l0,7 l 4.5,4.5l 7,0 l 4.5-4.5L 400,164.5 L 395.5,160z M 393,173l-2,0 l0-2 l 2,0 L 393,173 z M 393,169l-2,0 L 391,163 l 2,0 L 393,169 z"></path><path d="M 431.854,172.854c0,00,00,0L 427,168l 4.854-4.854c 0,0, 0,0, 0,0
		c 0.052-0.052, 0.090-0.113, 0.114-0.178c 0.066-0.178, 0.029-0.386-0.114-0.529L 429.561,160.146c-0.143-0.143-0.351-0.181-0.529-0.114
		c-0.065,0.024-0.126,0.062-0.178,0.114c0,00,00,0L 424,165L 419.146,160.146
		c0,00,00,0c-0.052-0.052-0.113-0.090-0.178-0.114c-0.178-0.066-0.386-0.029-0.529,0.114L 416.146,162.439
		c-0.143,0.143-0.181,0.351-0.114,0.529c 0.024,0.065, 0.062,0.126, 0.114,0.178c 0,0, 0,0, 0,0L 421,168
		L 416.146,172.854c0,00,00,0c-0.052,0.052-0.090,0.113-0.114,0.178c-0.066,0.178-0.029,0.386, 0.114,0.529
		l 2.293,2.293c 0.143,0.143, 0.351,0.181, 0.529,0.114c 0.065-0.024, 0.126-0.062, 0.178-0.114c 0,0, 0,0, 0,0
		l 4.854-4.854l 4.854,4.854c 0,0, 0,0, 0,0c 0.052,0.052, 0.113,0.090, 0.178,0.114
		c 0.178,0.066, 0.386,0.029, 0.529-0.114l 2.293-2.293c 0.143-0.143, 0.181-0.351, 0.114-0.529
		C 431.944,172.967, 431.906,172.906, 431.854,172.854z"></path><path d="M 461.5,162L 454,169.5L 450.5,166L 448,168.5L 454,174.5L 464,164.5 z"></path><path d="M 486.21,174.339l-6.217-6.119l 3.084-3.035l 3.133,3.083l 6.713-6.607l 3.084,3.035L 486.21,174.339z
		 M 481.686,168.22l 4.524,4.453l 8.104-7.976l-1.391-1.369l-6.713,6.607L 483.077,166.851L 481.686,168.22z"></path><path d="M0,198.5l0,3 c0,0.276, 0.224,0.5, 0.5,0.5l 15,0 c 0.276,0, 0.5-0.224, 0.5-0.5l0-3 c0-0.276-0.224-0.5-0.5-0.5L 0.5,198 C 0.224,198,0,198.224,0,198.5z"></path><path d="M 47.5,198L 42,198 L 42,192.5 c0-0.276-0.224-0.5-0.5-0.5l-3,0 c-0.276,0-0.5,0.224-0.5,0.5l0,5.5 L 32.5,198 c-0.276,0-0.5,0.224-0.5,0.5l0,3 
	c0,0.276, 0.224,0.5, 0.5,0.5l 5.5,0 l0,5.5 c0,0.276, 0.224,0.5, 0.5,0.5l 3,0 c 0.276,0, 0.5-0.224, 0.5-0.5L 42,202 l 5.5,0 c 0.276,0, 0.5-0.224, 0.5-0.5l0-3 
	C 48,198.224, 47.776,198, 47.5,198z"></path><path d="M 70,200 L 65,200 L 65,198 L 70,198 L 70,196 L 73,199 L 70,202 ZM 80,192 L 80,205 L 74,208 L 74,205 L 68,205 L 68,201 L 69,201 L 69,204 L 74,204 L 74,195 L 78,193 L 69,193 L 69,197 L 68,197 L 68,192 Z"></path><path d="M 108,202 L 108,200 L 103,200 L 103,198 L 108,198 L 108,196 L 111,199 ZM 107,201 L 107,205 L 102,205 L 102,208 L 96,205 L 96,192 L 107,192 L 107,197 L 106,197 L 106,193 L 98,193 L 102,195 L 102,204 L 106,204 L 106,201 Z"></path><path d="M 131,194L 141,200L 131,206 z"></path><path d="M 162,194L 167,194L 167,206L 162,206zM 169,194L 174,194L 174,206L 169,206z"></path><path d="M 194,194L 206,194L 206,206L 194,206z"></path><path d="M 237.657,194.343C 236.209,192.896, 234.209,192, 232,192C 228.571,192, 225.645,194.158, 224.508,197.19l 1.873,0.702
		C 227.234,195.619, 229.428,194, 232,194c 1.657,0, 3.157,0.672, 4.242,1.758L 234,198l 6,0 L 240,192 L 237.657,194.343zM 232,206c-1.657,0-3.157-0.672-4.242-1.758L 230,202L 224,202 l0,6 l 2.344-2.344C 227.791,207.104, 229.791,208, 232,208
		c 3.43,0, 6.355-2.158, 7.492-5.19l-1.873-0.702C 236.766,204.381, 234.572,206, 232,206z"></path><path d="M 264,192L 256,200L 261,200L 261,208L 267,208L 267,200L 272,200 z"></path><path d="M 304,200L 296,192L 296,197L 288,197L 288,203L 296,203L 296,208 z"></path><path d="M 328,208L 336,200L 331,200L 331,192L 325,192L 325,200L 320,200 z"></path><path d="M 352,200L 360,208L 360,203L 368,203L 368,197L 360,197L 360,192 z"></path><path d="M 386,201c0,0.552, 0.448,1, 1,1s 1-0.448, 1-1L 388,197.414 l 8.293,8.293c 0.391,0.391, 1.024,0.391, 1.414,0
	C 397.902,205.512, 398,205.256, 398,205s-0.098-0.512-0.293-0.707L 389.414,196L 393,196 c 0.552,0, 1-0.448, 1-1s-0.448-1-1-1L 386,194 
	L 386,201 z"></path><path d="M 429.707,198.293l-5-5c-0.391-0.391-1.024-0.391-1.414,0l-5,5c-0.391,0.391-0.391,1.024,0,1.414
	c 0.391,0.391, 1.024,0.391, 1.414,0L 423,196.414L 423,206 c0,0.552, 0.448,1, 1,1c 0.552,0, 1-0.448, 1-1L 425,196.414 l 3.293,3.293
	C 428.488,199.902, 428.744,200, 429,200s 0.512-0.098, 0.707-0.293C 430.098,199.317, 430.098,198.683, 429.707,198.293z"></path><path d="M 461,194c0,00,0-0.001,0L 455,194 c-0.552,0-1,0.448-1,1s 0.448,1, 1,1l 3.586,0 L 450.293,204.293
	c-0.391,0.391-0.391,1.024,0,1.414C 450.488,205.902, 450.744,206, 451,206s 0.512-0.098, 0.707-0.293L 460,197.414L 460,201 
	c0,0.552, 0.448,1, 1,1s 1-0.448, 1-1L 462,194 L 461,194 z"></path><path d="M 489.707,205.707l 5-5c 0.391-0.391, 0.391-1.024,0-1.414l-5-5c-0.391-0.391-1.024-0.391-1.414,0
	c-0.391,0.391-0.391,1.024,0,1.414L 491.586,199L 482,199 c-0.552,0-1,0.448-1,1s 0.448,1, 1,1l 9.586,0 L 488.293,204.293
	C 488.098,204.488, 488,204.744, 488,205s 0.098,0.512, 0.293,0.707C 488.683,206.098, 489.317,206.098, 489.707,205.707z"></path><path d="M 14,231c0-0.552-0.448-1-1-1c-0.552,0-1,0.448-1,1l0,3.586 L 3.707,226.293
	c-0.391-0.391-1.024-0.391-1.414,0C 2.098,226.488, 2,226.744, 2,227s 0.098,0.512, 0.293,0.707L 10.586,236L 7,236 
	c-0.552,0-1,0.448-1,1s 0.448,1, 1,1l 7,0 L 14,231 z"></path><path d="M 34.293,233.707l 5,5c 0.391,0.391, 1.024,0.391, 1.414,0l 5-5c 0.391-0.391, 0.391-1.024,0-1.414
	c-0.391-0.391-1.024-0.391-1.414,0L 41,235.586L 41,226 c0-0.552-0.448-1-1-1s-1,0.448-1,1l0,9.586 L 35.707,232.293
	C 35.512,232.098, 35.256,232, 35,232s-0.512,0.098-0.707,0.293C 33.902,232.683, 33.902,233.317, 34.293,233.707z"></path><path d="M 73,238c 0.552,0, 1-0.448, 1-1c0-0.552-0.448-1-1-1L 69.414,236 l 8.293-8.293c 0.391-0.391, 0.391-1.024,0-1.414
	C 77.512,226.098, 77.256,226, 77,226s-0.512,0.098-0.707,0.293L 68,234.586L 68,231 c0-0.552-0.448-1-1-1s-1,0.448-1,1l0,7 L 73,238 z
	"></path><path d="M 102.293,226.293l-5,5c-0.391,0.391-0.391,1.024,0,1.414l 5,5c 0.391,0.391, 1.024,0.391, 1.414,0
	c 0.391-0.391, 0.391-1.024,0-1.414L 100.414,233L 110,233 c 0.552,0, 1-0.448, 1-1c0-0.552-0.448-1-1-1L 100.414,231 l 3.293-3.293
	C 103.902,227.512, 104,227.256, 104,227s-0.098-0.512-0.293-0.707C 103.317,225.902, 102.683,225.902, 102.293,226.293z"></path><path d="M 141.918,235.081c-0.713-0.712-1.621-1.079-2.468-1.079l-0.455,0 l-0.999-1l 3.994-4.001
	c 0.999-1, 0.999-3,0-4.001L 136,231.001L 130.009,225c-0.999,1-0.999,3,0,4.001l 3.994,4.001
	l-0.999,1l-0.455,0 c-0.847,0-1.755,0.367-2.468,1.079c-1.275,1.273-1.448,3.164-0.385,4.224
	C 130.165,239.772, 130.795,240, 131.462,240c 0.847,0, 1.755-0.367, 2.468-1.079c 0.837-0.835, 1.199-1.938, 1.048-2.896l 1.022-1.023
	l 1.022,1.023c-0.151,0.959, 0.211,2.061, 1.048,2.896C 138.783,239.633, 139.691,240, 140.538,240
	c 0.667,0, 1.297-0.228, 1.766-0.695C 143.366,238.244, 143.194,236.353, 141.918,235.081z M 133.516,237.212
	c-0.12,0.279-0.297,0.537-0.525,0.764c-0.229,0.228-0.487,0.405-0.768,0.525c-0.252,0.108-0.515,0.165-0.76,0.165
	c-0.237,0-0.572-0.053-0.826-0.306c-0.252-0.252-0.305-0.583-0.305-0.817c0-0.243, 0.057-0.503, 0.164-0.753
	c 0.12-0.279, 0.297-0.537, 0.525-0.764c 0.229-0.228, 0.487-0.405, 0.768-0.525c 0.252-0.108, 0.515-0.165, 0.76-0.165
	c 0.237,0, 0.572,0.053, 0.826,0.306c 0.252,0.252, 0.305,0.583, 0.305,0.817C 133.681,236.701, 133.624,236.962, 133.516,237.212z
	 M 136,234.416c-0.78,0-1.412-0.633-1.412-1.414c0-0.781, 0.632-1.414, 1.412-1.414s 1.412,0.633, 1.412,1.414
	C 137.412,233.782, 136.78,234.416, 136,234.416z M 141.364,238.36c-0.254,0.253-0.589,0.306-0.826,0.306
	c-0.245,0-0.508-0.057-0.76-0.165c-0.281-0.12-0.539-0.297-0.768-0.525c-0.228-0.228-0.405-0.485-0.525-0.764
	c-0.108-0.25-0.164-0.51-0.164-0.753c0-0.234, 0.053-0.565, 0.305-0.817c 0.254-0.253, 0.589-0.306, 0.826-0.306
	c 0.245,0, 0.508,0.057, 0.76,0.165c 0.281,0.12, 0.539,0.297, 0.768,0.525c 0.228,0.228, 0.405,0.485, 0.525,0.764
	c 0.108,0.25, 0.164,0.51, 0.164,0.753C 141.669,237.777, 141.616,238.108, 141.364,238.36z"></path><path d="M 160,226L 166,232L 166,238L 170,237L 170,232L 176,226 z"></path><path d="M 195,225l0,12 l 12,0 L 207,225 L 195,225 z M 206,236L 196,236 L 196,226 l 10,0 L 206,236 zM 194,238L 194,228L 193,227L 193,239L 205,239L 204,238 	zM 198.707,234.707L 201.707,231.707L 204,234L 204,228L 198,228L 200.293,230.293L 197.293,233.293 	z"></path><path d="M 237.5,235c-0.706,0-1.343,0.293-1.797,0.763L 228.968,232.396C 228.989,232.267, 229,232.135, 229,232
	s-0.011-0.267-0.032-0.396l 6.734-3.367C 236.158,228.707, 236.794,229, 237.5,229c 1.381,0, 2.5-1.119, 2.5-2.5S 238.881,224, 237.5,224
	s-2.5,1.119-2.5,2.5c0,0.135, 0.011,0.267, 0.032,0.396L 228.297,230.263C 227.842,229.793, 227.206,229.5, 226.5,229.5c-1.381,0-2.5,1.119-2.5,2.5
	c0,1.381, 1.119,2.5, 2.5,2.5c 0.706,0, 1.343-0.293, 1.797-0.763l 6.734,3.367C 235.011,237.233, 235,237.365, 235,237.5
	c0,1.381, 1.119,2.5, 2.5,2.5s 2.5-1.119, 2.5-2.5C 240,236.119, 238.881,235, 237.5,235z"></path><path d="M 256.013,237.588c-0.004-0.040-0.007-0.079-0.009-0.119C 256.005,237.509, 256.009,237.549, 256.013,237.588zM 259.686,232.83c 1.438,0.043, 2.402-1.448, 2.154-3.331c-0.248-1.883-1.616-3.393-3.053-3.436
		c-1.438-0.043-2.402,1.398-2.154,3.281C 256.881,231.226, 258.248,232.788, 259.686,232.83zM 272,228L 272,226.667 C 272,225.2, 270.8,224, 269.333,224L 258.667,224 C 257.225,224, 256.042,225.16, 256.002,226.593
		c 0.912-0.803, 2.177-1.474, 3.482-1.474c 1.395,0, 5.582,0, 5.582,0l-1.249,1.057l-1.77,0 
		c 1.174,0.45, 1.799,1.814, 1.799,3.214c0,1.176-0.653,2.187-1.576,2.906c-0.901,0.702-1.071,0.995-1.071,1.592
		c0,0.509, 0.965,1.375, 1.469,1.731c 1.475,1.040, 1.952,2.005, 1.952,3.616c0,0.257-0.032,0.513-0.095,0.765l 4.808,0 
		C 270.8,240, 272,238.801, 272,237.333L 272,229 l-3,0 L 269,232 l-1,0 l0-3 l-3,0 l0-1 L 268,228 L 268,225 l 1,0 l0,3 L 272,228 zM 258.904,235.968c 0.338,0, 0.647-0.009, 0.968-0.009c-0.424-0.411-0.76-0.916-0.76-1.537
		c0-0.369, 0.118-0.724, 0.283-1.039c-0.168,0.012-0.34,0.016-0.518,0.016c-1.162,0-2.149-0.376-2.878-0.998l0,1.051 
		l 0,3.152C 256.835,236.206, 257.826,235.968, 258.904,235.968zM 256.053,237.863c-0.017-0.085-0.031-0.172-0.040-0.26C 256.023,237.691, 256.036,237.778, 256.053,237.863zM 263.116,238.888c-0.235-0.919-1.070-1.374-2.233-2.181c-0.423-0.136-0.889-0.217-1.389-0.222
		c-1.4-0.015-2.705,0.546-3.441,1.381C 256.303,239.080, 257.383,240, 258.667,240l 4.476,0 c 0.028-0.174, 0.042-0.354, 0.042-0.538
		C 263.185,239.266, 263.161,239.075, 263.116,238.888z"></path><path d="M 301.334,224L 290.667,224 C 289.2,224, 288,225.2, 288,226.667l0,10.666 C 288,238.801, 289.2,240, 290.667,240l 10.667,0
	c 1.467,0, 2.667-1.199, 2.667-2.667L 304,226.667 C 304,225.2, 302.8,224, 301.334,224z M 301.603,232L 299,232 l0,7 l-3,0 L 296,232 l-1.446,0 l0-2.29 L 296,229.71 
	l0-1.487 C 296,226.202, 296.872,225, 299.248,225l 2.738,0 l0,2.478 l-2.236,0 c-0.664-0.001-0.746,0.346-0.746,0.992L 299,229.71l 3,0 
	L 301.603,232z"></path><path d="M 333.344,224L 322.656,224 C 321.195,224, 320,225.195, 320,226.656l0,10.688 c0,1.461, 1.195,2.656, 2.656,2.656l 10.688,0 c 1.461,0, 2.656-1.195, 2.656-2.656L 336,226.656 C 336,225.195, 334.805,224, 333.344,224z
	 M 325.122,231l 5.756,0 c 0.109,0.313, 0.169,0.65, 0.169,1c0,1.68-1.367,3.047-3.047,3.047c-1.68,0-3.047-1.367-3.047-3.047
	C 324.953,231.65, 325.013,231.313, 325.122,231z M 334,231.001L 334,235 l0,2 c0,0.55-0.45,1-1,1L 323,238 c-0.55,0-1-0.45-1-1l0-2 L 322,231.001 L 322,231 
	l 1.564,0 c-0.073,0.322-0.111,0.656-0.111,1c0,2.507, 2.040,4.547, 4.547,4.547c 2.507,0, 4.547-2.040, 4.547-4.547
	c0-0.344-0.038-0.678-0.111-1L 334,231 L 334,231.001 z M 334,227.5c0,0.275-0.225,0.5-0.5,0.5l-1,0 c-0.275,0-0.5-0.225-0.5-0.5L 332,226.5 c0-0.275, 0.225-0.5, 0.5-0.5l 1,0 
	c 0.275,0, 0.5,0.225, 0.5,0.5L 334,227.5 z"></path><path d="M 368,227.038c-0.589,0.261-1.221,0.438-1.885,0.517c 0.678-0.406, 1.198-1.050, 1.443-1.816
	c-0.634,0.376-1.337,0.649-2.085,0.797c-0.599-0.638-1.452-1.037-2.396-1.037c-1.813,0-3.283,1.47-3.283,3.282
	c0,0.257, 0.029,0.508, 0.085,0.748c-2.728-0.137-5.147-1.444-6.766-3.43c-0.283,0.485-0.444,1.049-0.444,1.65
	c0,1.139, 0.58,2.144, 1.46,2.732c-0.538-0.017-1.044-0.165-1.487-0.411c0,0.0140,0.0270,0.041
	c0,1.59, 1.132,2.917, 2.633,3.219c-0.275,0.075-0.565,0.115-0.865,0.115c-0.212,0-0.417-0.021-0.618-0.059
	c 0.418,1.304, 1.63,2.253, 3.066,2.28c-1.123,0.88-2.539,1.405-4.077,1.405c-0.265,0-0.526-0.016-0.783-0.046
	c 1.453,0.931, 3.178,1.475, 5.032,1.475c 6.038,0, 9.34-5.002, 9.34-9.34c0-0.142-0.003-0.284-0.010-0.425
	C 367.003,228.274, 367.56,227.696, 368,227.038z"></path><path d="M 386.13,235.733c-1.175,0-2.13,0.958-2.13,2.126c0,1.174, 0.955,2.122, 2.13,2.122
		c 1.179,0, 2.133-0.948, 2.133-2.122C 388.262,236.692, 387.309,235.733, 386.13,235.733zM 384.002,229.436l0,3.067 c 1.997,0, 3.874,0.781, 5.288,2.196c 1.412,1.411, 2.192,3.297, 2.192,5.302l 3.080,0 
		C 394.563,234.175, 389.824,229.436, 384.002,229.436zM 384.006,224l0,3.068 c 7.122,0, 12.918,5.802, 12.918,12.932L 400,240 C 400,231.18, 392.824,224, 384.006,224z"></path><path d="M 429.333,224L 418.667,224 C 417.2,224, 416,225.2, 416,226.667l0,10.666 C 416,238.801, 417.2,240, 418.667,240L 429.333,240 
	c 1.467,0, 2.667-1.199, 2.667-2.667L 432,226.667 C 432,225.2, 430.8,224, 429.333,224z M 420.359,236.988C 419.609,236.988, 419,236.384, 419,235.635
	c0-0.745, 0.609-1.356, 1.359-1.356c 0.752,0, 1.36,0.611, 1.36,1.356C 421.719,236.384, 421.111,236.988, 420.359,236.988z
	 M 423.773,237c0-1.278-0.497-2.482-1.398-3.382c-0.902-0.902-2.1-1.4-3.373-1.4L 419.002,230.262 
	c 3.713,0, 6.736,3.023, 6.736,6.738L 423.773,237L 423.773,237z M 427.244,237
	c0-4.548-3.698-8.249-8.24-8.249L 419.004,226.794 c 5.625,0, 10.202,4.58, 10.202,10.206L 427.244,237L 427.244,237z"></path><path d="M 461.334,224L 450.667,224 C 449.2,224, 448,225.2, 448,226.667l0,10.666 C 448,238.801, 449.2,240, 450.667,240L 461.334,240 
	C 462.801,240, 464,238.801, 464,237.333L 464,226.667 C 464,225.2, 462.801,224, 461.334,224z M 459.433,236.886
	c-0.471,0.222-0.899,0.378-1.281,0.468c-0.383,0.089-0.796,0.134-1.241,0.134c-0.505,0-0.803-0.063-1.19-0.19
	c-0.388-0.128-0.719-0.31-0.992-0.545c-0.274-0.236-0.464-0.487-0.57-0.753c-0.106-0.266-0.159-0.651-0.159-1.156L 454,230.971 
	l-1.5,0 l0-1.564 c 0.433-0.141, 0.936-0.343, 1.245-0.605c 0.31-0.264, 0.558-0.579, 0.745-0.948
	c 0.188-0.368, 0.316-0.838, 0.387-1.407l 1.57,0 L 456.447,229 L 459,229 l0,1.971 l-2.553,0 l0,2.831 c0,0.641-0.008,1.010, 0.060,1.191
	c 0.067,0.181, 0.236,0.368, 0.42,0.477c 0.245,0.146, 0.523,0.22, 0.838,0.22c 0.559,0, 1.115-0.182, 1.668-0.545L 459.433,236.886 
	L 459.433,236.886z"></path><path d="M 493.334,224L 482.667,224 C 481.2,224, 480,225.2, 480,226.667l0,10.666 C 480,238.801, 481.2,240, 482.667,240l 10.667,0 
	C 494.801,240, 496,238.801, 496,237.333L 496,226.667 C 496,225.2, 494.801,224, 493.334,224z M 495,237.333c0,0.443-0.174,0.861-0.49,1.177
	C 494.194,238.826, 493.776,239, 493.334,239L 488,239 L 488,232 L 481,232 L 481,226.667 c0-0.442, 0.174-0.86, 0.491-1.177C 481.807,225.174, 482.225,225, 482.667,225
	L 488,225 l0,7 l 7,0 L 495,237.333 z"></path><path d="M 8.354,256.354C 8.159,256.159, 7.775,256, 7.5,256L 1.5,256 c-0.275,0-0.5,0.225-0.5,0.5l0,15 c0,0.275, 0.225,0.5, 0.5,0.5l 12,0 c 0.275,0, 0.5-0.225, 0.5-0.5L 14,262.5 
		c0-0.275-0.159-0.659-0.354-0.854L 8.354,256.354z M 13,271L 2,271 L 2,257 l 5.487,0 c 0.046,0.007, 0.131,0.043, 0.169,0.070l 5.274,5.274
		c 0.027,0.038, 0.062,0.123, 0.070,0.169L 13,271 zM 13.5,256l-3,0 c-0.275,0-0.341,0.159-0.146,0.354l 3.293,3.293C 13.841,259.841, 14,259.775, 14,259.5L 14,256.5 C 14,256.225, 13.775,256, 13.5,256
		z"></path><path d="M 45.156,265.211c-0.213-0.21-0.686-0.321-1.406-0.331c-0.487-0.005-1.073,0.038-1.69,0.124
		c-0.276-0.159-0.561-0.333-0.784-0.542c-0.601-0.561-1.103-1.34-1.415-2.197c 0.020-0.080, 0.038-0.15, 0.054-0.222
		c0,0, 0.339-1.923, 0.249-2.573c-0.012-0.089-0.020-0.115-0.044-0.184l-0.029-0.076c-0.092-0.212-0.273-0.437-0.556-0.425
		l-0.166-0.005l-0.005,0c-0.316,0-0.573,0.161-0.64,0.403c-0.205,0.757, 0.007,1.889, 0.39,3.355l-0.098,0.239
		c-0.275,0.67-0.619,1.345-0.923,1.94l-0.040,0.077c-0.32,0.626-0.61,1.157-0.873,1.607l-0.272,0.144
		c-0.020,0.010-0.485,0.257-0.594,0.323c-0.926,0.553-1.539,1.18-1.641,1.678c-0.032,0.159-0.008,0.362, 0.156,0.456
		l 0.263,0.132c 0.114,0.057, 0.234,0.086, 0.357,0.086c 0.659,0, 1.425-0.821, 2.48-2.662
		c 1.218-0.396, 2.604-0.726, 3.819-0.908c 0.926,0.521, 2.065,0.884, 2.783,0.884c 0.128,0, 0.238-0.012, 0.327-0.036
		c 0.138-0.036, 0.254-0.115, 0.325-0.222c 0.139-0.21, 0.168-0.499, 0.13-0.795C 45.303,265.393, 45.232,265.285, 45.156,265.211z
		 M 35.307,268.72c 0.12-0.329, 0.596-0.979, 1.3-1.556c 0.044-0.036, 0.153-0.138, 0.253-0.233
		C 36.124,268.105, 35.631,268.573, 35.307,268.72z M 39.476,259.12c 0.212,0, 0.333,0.534, 0.343,1.035
		c 0.010,0.501-0.107,0.853-0.252,1.113c-0.12-0.385-0.179-0.992-0.179-1.389C 39.387,259.879, 39.378,259.12, 39.476,259.12z
		 M 38.232,265.961c 0.148-0.264, 0.301-0.543, 0.458-0.839c 0.383-0.724, 0.624-1.29, 0.804-1.755
		c 0.358,0.651, 0.804,1.205, 1.328,1.649c 0.065,0.055, 0.135,0.111, 0.207,0.166C 39.964,265.393, 39.043,265.649, 38.232,265.961z
		 M 44.952,265.901c-0.065,0.041-0.251,0.064-0.37,0.064c-0.386,0-0.864-0.176-1.533-0.464
		c 0.257-0.019, 0.493-0.029, 0.705-0.029c 0.387,0, 0.502-0.002, 0.88,0.095S 45.017,265.86, 44.952,265.901zM 46.116,259.116l-2.232-2.232C 43.398,256.398, 42.438,256, 41.75,256L 34.25,256 C 33.563,256, 33,256.563, 33,257.25l0,13.5 c0,0.688, 0.563,1.25, 1.25,1.25l 11.5,0 
		c 0.688,0, 1.25-0.563, 1.25-1.25L 47,261.25 C 47,260.563, 46.602,259.602, 46.116,259.116z M 45.409,259.823c 0.049,0.049, 0.098,0.109, 0.145,0.177L 43,260 L 43,257.446 
		c 0.068,0.047, 0.128,0.096, 0.177,0.145L 45.409,259.823z M 46,270.75c0,0.136-0.115,0.25-0.25,0.25L 34.25,271 c-0.136,0-0.25-0.115-0.25-0.25L 34,257.25 
		c0-0.136, 0.115-0.25, 0.25-0.25l 7.5,0 c 0.075,0, 0.16,0.010, 0.25,0.027L 42,261 l 3.973,0 c 0.017,0.090, 0.027,0.174, 0.027,0.25L 46,270.75 z"></path><path d="M 74.785,263.37c-0.948-0.448-2.156-0.538-3.044,0.095c 1.080-0.103, 2.265,0.076, 3.049,0.893
			c 0.75-0.861, 1.939-1.022, 3.015-0.933C 76.906,262.828, 75.722,262.908, 74.785,263.37zM 74.401,265.465c-1.068-0.025-2.101,0.362-2.986,0.939c-1.675-0.712-3.793-0.58-5.219,0.609
			c 0.411-0.015, 0.813-0.116, 1.22-0.169c 1.487-0.148, 3.072,0.221, 4.196,1.247c 0.465-0.68, 1.119-1.223, 1.87-1.561
			c 0.986-0.477, 2.096-0.526, 3.169-0.539C 75.998,265.543, 75.171,265.46, 74.401,265.465zM 78.116,259.116l-2.232-2.232C 75.398,256.398, 74.438,256, 73.75,256L 66.25,256 C 65.563,256, 65,256.563, 65,257.25l0,13.5 c0,0.688, 0.563,1.25, 1.25,1.25l 11.5,0 
		c 0.688,0, 1.25-0.563, 1.25-1.25L 79,261.25 C 79,260.563, 78.602,259.602, 78.116,259.116z M 77.409,259.823c 0.049,0.049, 0.098,0.109, 0.145,0.177L 75,260 L 75,257.446 
		c 0.068,0.047, 0.128,0.096, 0.177,0.145L 77.409,259.823z M 78,270.75c0,0.136-0.115,0.25-0.25,0.25L 66.25,271 c-0.136,0-0.25-0.115-0.25-0.25L 66,257.25 
		c0-0.136, 0.115-0.25, 0.25-0.25l 7.5,0 c 0.075,0, 0.16,0.010, 0.25,0.027L 74,261 l 3.973,0 c 0.017,0.090, 0.027,0.174, 0.027,0.25L 78,270.75 z"></path><path d="M 105.997,263.436L 106.687,263.436L 105.89,266.97L 104.854,262.001L 103.189,262.001L 101.984,266.97L 101.081,262.001L 99.34,262.001L 101.107,269.999L 102.808,269.999L 104,265.269L 105.067,269.999L 106.634,269.999L 108.66,262.001L 105.997,262.001 	
		zM 110.116,259.116l-2.232-2.232C 107.398,256.398, 106.438,256, 105.75,256L 98.25,256 C 97.563,256, 97,256.563, 97,257.25l0,13.5 c0,0.688, 0.563,1.25, 1.25,1.25l 11.5,0 
		c 0.688,0, 1.25-0.563, 1.25-1.25L 111,261.25 C 111,260.563, 110.602,259.602, 110.116,259.116z M 109.409,259.823c 0.049,0.049, 0.098,0.109, 0.145,0.177L 107,260 L 107,257.446 
		c 0.068,0.047, 0.128,0.096, 0.177,0.145L 109.409,259.823z M 110,270.75c0,0.136-0.115,0.25-0.25,0.25L 98.25,271 c-0.136,0-0.25-0.115-0.25-0.25L 98,257.25 
		c0-0.136, 0.115-0.25, 0.25-0.25l 7.5,0 c 0.075,0, 0.16,0.010, 0.25,0.027L 106,261 l 3.973,0 c 0.017,0.090, 0.027,0.174, 0.027,0.25L 110,270.75 z"></path><path d="M 139.61,262L 137.496,262L 136,264.204L 134.504,262L 132.39,262L 134.924,265.789L 132.065,270L 136.163,270L 136.163,268.569L 135.216,268.569L 136,267.397L 137.741,270L 139.935,270L 137.076,265.789 	zM 142.116,259.116l-2.232-2.232C 139.398,256.398, 138.438,256, 137.75,256L 130.25,256 C 129.563,256, 129,256.563, 129,257.25l0,13.5 c0,0.688, 0.563,1.25, 1.25,1.25l 11.5,0 
		c 0.688,0, 1.25-0.563, 1.25-1.25L 143,261.25 C 143,260.563, 142.602,259.602, 142.116,259.116z M 141.409,259.823c 0.049,0.049, 0.098,0.109, 0.145,0.177L 139,260 L 139,257.446 
		c 0.068,0.047, 0.128,0.096, 0.177,0.145L 141.409,259.823z M 142,270.75c0,0.136-0.115,0.25-0.25,0.25L 130.25,271 c-0.136,0-0.25-0.115-0.25-0.25L 130,257.25 
		c0-0.136, 0.115-0.25, 0.25-0.25l 7.5,0 c 0.075,0, 0.16,0.010, 0.25,0.027L 138,261 l 3.973,0 c 0.017,0.090, 0.027,0.174, 0.027,0.25L 142,270.75 z"></path><path d="M 166.5,258L 168,258L 168,259L 166.5,259zM 165,259L 166.5,259L 166.5,260L 165,260zM 166.5,260L 168,260L 168,261L 166.5,261zM 165,261L 166.5,261L 166.5,262L 165,262zM 166.5,262L 168,262L 168,263L 166.5,263zM 165,263L 166.5,263L 166.5,264L 165,264zM 166.5,264l0,1 l-1.5,0 l0,3.5 c0,0.276, 0.224,0.5, 0.5,0.5l 2,0 c 0.276,0, 0.5-0.224, 0.5-0.5L 168,264 L 166.5,264 z M 167.5,268l-2,0 l0-1 l 2,0 L 167.5,268 zM 174.116,259.116l-2.232-2.232C 171.398,256.398, 170.438,256, 169.75,256L 162.25,256 C 161.563,256, 161,256.563, 161,257.25l0,13.5 c0,0.688, 0.563,1.25, 1.25,1.25l 11.5,0 
		c 0.688,0, 1.25-0.563, 1.25-1.25L 175,261.25 C 175,260.563, 174.602,259.602, 174.116,259.116z M 173.409,259.823c 0.049,0.049, 0.098,0.109, 0.145,0.177L 171,260 L 171,257.446 
		c 0.068,0.047, 0.128,0.096, 0.177,0.145L 173.409,259.823z M 174,270.75c0,0.136-0.115,0.25-0.25,0.25L 162.25,271 c-0.136,0-0.25-0.115-0.25-0.25L 162,257.25 
		c0-0.136, 0.115-0.25, 0.25-0.25l 7.5,0 c 0.075,0, 0.16,0.010, 0.25,0.027L 170,261 l 3.973,0 c 0.017,0.090, 0.027,0.174, 0.027,0.25L 174,270.75 z"></path><path d="M 195,264l 3,0 l0,1 L 195,265 L 195,264 z M 195,266l 3,0 l0,1 L 195,267 L 195,266 z M 195,268l 3,0 l0,1 L 195,269 L 195,268 z M 206.116,259.116l-2.232-2.232
	C 203.398,256.398, 202.438,256, 201.75,256L 194.25,256 C 193.563,256, 193,256.563, 193,257.25l0,13.5 c0,0.688, 0.563,1.25, 1.25,1.25l 11.5,0 c 0.688,0, 1.25-0.563, 1.25-1.25L 207,261.25 
	C 207,260.563, 206.602,259.602, 206.116,259.116z M 205.409,259.823c 0.049,0.049, 0.098,0.109, 0.145,0.177L 203,260 L 203,257.446 
	c 0.068,0.047, 0.128,0.096, 0.177,0.145L 205.409,259.823z M 206,270.75c0,0.136-0.115,0.25-0.25,0.25L 194.25,271 c-0.136,0-0.25-0.115-0.25-0.25L 194,257.25 c0-0.136, 0.115-0.25, 0.25-0.25
	l 7.5,0 c 0.075,0, 0.16,0.010, 0.25,0.027L 202,261 l 3.973,0 c 0.017,0.090, 0.027,0.174, 0.027,0.25L 206,270.75 zM 201,267 L 203.95,267 C 203.718,268.141 202.709,269 201.5,269 C 200.119,269 199,267.881 199,266.5 C 199,265.291 199.859,264.282 201,264.050 L 201,267 ZM 202.5,263 C 203.881,263 205,264.119 205,265.5 C 205,265.671 204.983,265.838 204.95,266 L 202,266 L 202,263.050 C 202.162,263.017 202.329,263 202.5,263 Z"></path></svg>